ISO-10303-21;
HEADER;
FILE_DESCRIPTION((''),'2;1');
FILE_NAME('CAR','2026-05-27T16:58:25',('13763'),(''),
'CREO PARAMETRIC BY PTC INC, 2025102','CREO PARAMETRIC BY PTC INC, 2025102','');
FILE_SCHEMA(('CONFIG_CONTROL_DESIGN'));
ENDSEC;
DATA;
#1=CARTESIAN_POINT('',(8.5E0,0.E0,-2.E0));
#2=DIRECTION('',(0.E0,0.E0,-1.E0));
#3=DIRECTION('',(-1.E0,0.E0,0.E0));
#4=AXIS2_PLACEMENT_3D('',#1,#2,#3);
#6=DIRECTION('',(0.E0,0.E0,-1.E0));
#7=VECTOR('',#6,1.E0);
#8=CARTESIAN_POINT('',(1.025E1,0.E0,-2.E0));
#9=LINE('',#8,#7);
#10=DIRECTION('',(0.E0,0.E0,1.E0));
#11=VECTOR('',#10,1.E0);
#12=CARTESIAN_POINT('',(6.75E0,0.E0,-3.E0));
#13=LINE('',#12,#11);
#14=CARTESIAN_POINT('',(-8.5E0,0.E0,-2.E0));
#15=DIRECTION('',(0.E0,0.E0,1.E0));
#16=DIRECTION('',(1.E0,0.E0,0.E0));
#17=AXIS2_PLACEMENT_3D('',#14,#15,#16);
#19=CARTESIAN_POINT('',(-8.5E0,0.E0,-2.E0));
#20=DIRECTION('',(0.E0,0.E0,1.E0));
#21=DIRECTION('',(-1.E0,0.E0,0.E0));
#22=AXIS2_PLACEMENT_3D('',#19,#20,#21);
#24=CARTESIAN_POINT('',(8.5E0,0.E0,-2.E0));
#25=DIRECTION('',(0.E0,0.E0,1.E0));
#26=DIRECTION('',(1.E0,0.E0,0.E0));
#27=AXIS2_PLACEMENT_3D('',#24,#25,#26);
#29=CARTESIAN_POINT('',(8.5E0,0.E0,-2.E0));
#30=DIRECTION('',(0.E0,0.E0,1.E0));
#31=DIRECTION('',(-1.E0,0.E0,0.E0));
#32=AXIS2_PLACEMENT_3D('',#29,#30,#31);
#34=DIRECTION('',(0.E0,0.E0,-1.E0));
#35=VECTOR('',#34,6.E0);
#36=CARTESIAN_POINT('',(-5.5E0,0.E0,4.E0));
#37=LINE('',#36,#35);
#38=CARTESIAN_POINT('',(0.E0,0.E0,4.E0));
#39=DIRECTION('',(0.E0,0.E0,1.E0));
#40=DIRECTION('',(-1.E0,0.E0,0.E0));
#41=AXIS2_PLACEMENT_3D('',#38,#39,#40);
#43=CARTESIAN_POINT('',(0.E0,0.E0,4.E0));
#44=DIRECTION('',(0.E0,0.E0,1.E0));
#45=DIRECTION('',(1.E0,0.E0,0.E0));
#46=AXIS2_PLACEMENT_3D('',#43,#44,#45);
#48=DIRECTION('',(0.E0,-1.E0,0.E0));
#49=VECTOR('',#48,7.E0);
#50=CARTESIAN_POINT('',(5.E1,-2.05E1,4.E0));
#51=LINE('',#50,#49);
#52=DIRECTION('',(0.E0,1.E0,0.E0));
#53=VECTOR('',#52,7.E0);
#54=CARTESIAN_POINT('',(-5.E1,-2.75E1,4.E0));
#55=LINE('',#54,#53);
#56=DIRECTION('',(1.E0,0.E0,0.E0));
#57=VECTOR('',#56,3.25E1);
#58=CARTESIAN_POINT('',(-5.E1,-2.05E1,4.E0));
#59=LINE('',#58,#57);
#60=DIRECTION('',(0.E0,1.E0,0.E0));
#61=VECTOR('',#60,2.05E1);
#62=CARTESIAN_POINT('',(-1.75E1,-2.05E1,4.E0));
#63=LINE('',#62,#61);
#64=CARTESIAN_POINT('',(0.E0,0.E0,4.E0));
#65=DIRECTION('',(0.E0,0.E0,-1.E0));
#66=DIRECTION('',(-1.E0,0.E0,0.E0));
#67=AXIS2_PLACEMENT_3D('',#64,#65,#66);
#69=DIRECTION('',(0.E0,-1.E0,0.E0));
#70=VECTOR('',#69,2.05E1);
#71=CARTESIAN_POINT('',(1.75E1,0.E0,4.E0));
#72=LINE('',#71,#70);
#73=DIRECTION('',(1.E0,0.E0,0.E0));
#74=VECTOR('',#73,3.25E1);
#75=CARTESIAN_POINT('',(1.75E1,-2.05E1,4.E0));
#76=LINE('',#75,#74);
#77=CARTESIAN_POINT('',(-8.5E0,0.E0,4.E0));
#78=DIRECTION('',(0.E0,0.E0,1.E0));
#79=DIRECTION('',(1.E0,0.E0,0.E0));
#80=AXIS2_PLACEMENT_3D('',#77,#78,#79);
#82=CARTESIAN_POINT('',(-8.5E0,0.E0,4.E0));
#83=DIRECTION('',(0.E0,0.E0,1.E0));
#84=DIRECTION('',(-1.E0,0.E0,0.E0));
#85=AXIS2_PLACEMENT_3D('',#82,#83,#84);
#87=CARTESIAN_POINT('',(8.5E0,0.E0,4.E0));
#88=DIRECTION('',(0.E0,0.E0,1.E0));
#89=DIRECTION('',(1.E0,0.E0,0.E0));
#90=AXIS2_PLACEMENT_3D('',#87,#88,#89);
#92=CARTESIAN_POINT('',(8.5E0,0.E0,4.E0));
#93=DIRECTION('',(0.E0,0.E0,1.E0));
#94=DIRECTION('',(-1.E0,0.E0,0.E0));
#95=AXIS2_PLACEMENT_3D('',#92,#93,#94);
#97=DIRECTION('',(0.E0,0.E0,-1.E0));
#98=VECTOR('',#97,7.E0);
#99=CARTESIAN_POINT('',(4.E0,0.E0,4.E0));
#100=LINE('',#99,#98);
#101=DIRECTION('',(0.E0,0.E0,1.E0));
#102=VECTOR('',#101,7.E0);
#103=CARTESIAN_POINT('',(-4.E0,0.E0,-3.E0));
#104=LINE('',#103,#102);
#105=CARTESIAN_POINT('',(-8.5E0,0.E0,-3.E0));
#106=DIRECTION('',(0.E0,0.E0,-1.E0));
#107=DIRECTION('',(1.E0,0.E0,0.E0));
#108=AXIS2_PLACEMENT_3D('',#105,#106,#107);
#110=CARTESIAN_POINT('',(-8.5E0,0.E0,-3.E0));
#111=DIRECTION('',(0.E0,0.E0,-1.E0));
#112=DIRECTION('',(-1.E0,0.E0,0.E0));
#113=AXIS2_PLACEMENT_3D('',#110,#111,#112);
#115=CARTESIAN_POINT('',(8.5E0,0.E0,-3.E0));
#116=DIRECTION('',(0.E0,0.E0,-1.E0));
#117=DIRECTION('',(1.E0,0.E0,0.E0));
#118=AXIS2_PLACEMENT_3D('',#115,#116,#117);
#120=CARTESIAN_POINT('',(8.5E0,0.E0,-3.E0));
#121=DIRECTION('',(0.E0,0.E0,-1.E0));
#122=DIRECTION('',(-1.E0,0.E0,0.E0));
#123=AXIS2_PLACEMENT_3D('',#120,#121,#122);
#125=CARTESIAN_POINT('',(0.E0,0.E0,-3.E0));
#126=DIRECTION('',(0.E0,0.E0,-1.E0));
#127=DIRECTION('',(1.E0,0.E0,0.E0));
#128=AXIS2_PLACEMENT_3D('',#125,#126,#127);
#130=CARTESIAN_POINT('',(0.E0,0.E0,-3.E0));
#131=DIRECTION('',(0.E0,0.E0,-1.E0));
#132=DIRECTION('',(-1.E0,0.E0,0.E0));
#133=AXIS2_PLACEMENT_3D('',#130,#131,#132);
#135=DIRECTION('',(0.E0,1.E0,0.E0));
#136=VECTOR('',#135,2.05E1);
#137=CARTESIAN_POINT('',(1.75E1,-2.05E1,-3.E0));
#138=LINE('',#137,#136);
#139=CARTESIAN_POINT('',(0.E0,0.E0,-3.E0));
#140=DIRECTION('',(0.E0,0.E0,1.E0));
#141=DIRECTION('',(1.E0,0.E0,0.E0));
#142=AXIS2_PLACEMENT_3D('',#139,#140,#141);
#144=DIRECTION('',(0.E0,-1.E0,0.E0));
#145=VECTOR('',#144,2.05E1);
#146=CARTESIAN_POINT('',(-1.75E1,0.E0,-3.E0));
#147=LINE('',#146,#145);
#148=CARTESIAN_POINT('',(-8.5E0,0.E0,-2.E0));
#149=DIRECTION('',(0.E0,0.E0,-1.E0));
#150=DIRECTION('',(1.E0,0.E0,0.E0));
#151=AXIS2_PLACEMENT_3D('',#148,#149,#150);
#153=CARTESIAN_POINT('',(-8.5E0,0.E0,-2.E0));
#154=DIRECTION('',(0.E0,0.E0,-1.E0));
#155=DIRECTION('',(-1.E0,0.E0,0.E0));
#156=AXIS2_PLACEMENT_3D('',#153,#154,#155);
#158=DIRECTION('',(0.E0,0.E0,-1.E0));
#159=VECTOR('',#158,1.E0);
#160=CARTESIAN_POINT('',(-6.75E0,0.E0,-2.E0));
#161=LINE('',#160,#159);
#162=DIRECTION('',(0.E0,0.E0,1.E0));
#163=VECTOR('',#162,1.E0);
#164=CARTESIAN_POINT('',(-1.025E1,0.E0,-3.E0));
#165=LINE('',#164,#163);
#166=CARTESIAN_POINT('',(8.5E0,0.E0,-2.E0));
#167=DIRECTION('',(0.E0,0.E0,-1.E0));
#168=DIRECTION('',(1.E0,0.E0,0.E0));
#169=AXIS2_PLACEMENT_3D('',#166,#167,#168);
#171=DIRECTION('',(0.E0,0.E0,1.E0));
#172=VECTOR('',#171,7.E0);
#173=CARTESIAN_POINT('',(1.75E1,-2.05E1,-3.E0));
#174=LINE('',#173,#172);
#175=DIRECTION('',(0.E0,0.E0,-1.E0));
#176=VECTOR('',#175,7.E0);
#177=CARTESIAN_POINT('',(-1.75E1,0.E0,4.E0));
#178=LINE('',#177,#176);
#179=DIRECTION('',(0.E0,0.E0,1.E0));
#180=VECTOR('',#179,7.E0);
#181=CARTESIAN_POINT('',(1.75E1,0.E0,-3.E0));
#182=LINE('',#181,#180);
#183=DIRECTION('',(0.E0,0.E0,-1.E0));
#184=VECTOR('',#183,7.E0);
#185=CARTESIAN_POINT('',(-1.75E1,-2.05E1,4.E0));
#186=LINE('',#185,#184);
#187=DIRECTION('',(-1.E0,0.E0,0.E0));
#188=VECTOR('',#187,3.5E1);
#189=CARTESIAN_POINT('',(1.75E1,-2.05E1,-1.29E2));
#190=LINE('',#189,#188);
#191=DIRECTION('',(0.E0,0.E0,1.E0));
#192=VECTOR('',#191,7.E0);
#193=CARTESIAN_POINT('',(1.75E1,-2.05E1,-1.36E2));
#194=LINE('',#193,#192);
#195=DIRECTION('',(1.E0,0.E0,0.E0));
#196=VECTOR('',#195,3.5E1);
#197=CARTESIAN_POINT('',(-1.75E1,-2.05E1,-3.E0));
#198=LINE('',#197,#196);
#199=DIRECTION('',(0.E0,0.E0,1.E0));
#200=VECTOR('',#199,7.E0);
#201=CARTESIAN_POINT('',(-1.75E1,-2.05E1,-1.36E2));
#202=LINE('',#201,#200);
#203=CARTESIAN_POINT('',(8.5E0,0.E0,-1.29E2));
#204=DIRECTION('',(0.E0,0.E0,1.E0));
#205=DIRECTION('',(-1.E0,0.E0,0.E0));
#206=AXIS2_PLACEMENT_3D('',#203,#204,#205);
#208=CARTESIAN_POINT('',(8.5E0,0.E0,-1.29E2));
#209=DIRECTION('',(0.E0,0.E0,1.E0));
#210=DIRECTION('',(1.E0,0.E0,0.E0));
#211=AXIS2_PLACEMENT_3D('',#208,#209,#210);
#213=CARTESIAN_POINT('',(-8.5E0,0.E0,-1.29E2));
#214=DIRECTION('',(0.E0,0.E0,1.E0));
#215=DIRECTION('',(-1.E0,0.E0,0.E0));
#216=AXIS2_PLACEMENT_3D('',#213,#214,#215);
#218=CARTESIAN_POINT('',(-8.5E0,0.E0,-1.29E2));
#219=DIRECTION('',(0.E0,0.E0,1.E0));
#220=DIRECTION('',(1.E0,0.E0,0.E0));
#221=AXIS2_PLACEMENT_3D('',#218,#219,#220);
#223=CARTESIAN_POINT('',(0.E0,0.E0,-1.29E2));
#224=DIRECTION('',(0.E0,0.E0,1.E0));
#225=DIRECTION('',(-1.E0,0.E0,0.E0));
#226=AXIS2_PLACEMENT_3D('',#223,#224,#225);
#228=CARTESIAN_POINT('',(0.E0,0.E0,-1.29E2));
#229=DIRECTION('',(0.E0,0.E0,1.E0));
#230=DIRECTION('',(1.E0,0.E0,0.E0));
#231=AXIS2_PLACEMENT_3D('',#228,#229,#230);
#233=DIRECTION('',(0.E0,1.E0,0.E0));
#234=VECTOR('',#233,2.05E1);
#235=CARTESIAN_POINT('',(-1.75E1,-2.05E1,-1.29E2));
#236=LINE('',#235,#234);
#237=CARTESIAN_POINT('',(0.E0,0.E0,-1.29E2));
#238=DIRECTION('',(0.E0,0.E0,-1.E0));
#239=DIRECTION('',(-1.E0,0.E0,0.E0));
#240=AXIS2_PLACEMENT_3D('',#237,#238,#239);
#242=DIRECTION('',(0.E0,-1.E0,0.E0));
#243=VECTOR('',#242,2.05E1);
#244=CARTESIAN_POINT('',(1.75E1,0.E0,-1.29E2));
#245=LINE('',#244,#243);
#246=CARTESIAN_POINT('',(8.5E0,0.E0,-1.3E2));
#247=DIRECTION('',(0.E0,0.E0,1.E0));
#248=DIRECTION('',(-1.E0,0.E0,0.E0));
#249=AXIS2_PLACEMENT_3D('',#246,#247,#248);
#251=CARTESIAN_POINT('',(8.5E0,0.E0,-1.3E2));
#252=DIRECTION('',(0.E0,0.E0,-1.E0));
#253=DIRECTION('',(-1.E0,0.E0,0.E0));
#254=AXIS2_PLACEMENT_3D('',#251,#252,#253);
#256=CARTESIAN_POINT('',(8.5E0,0.E0,-1.3E2));
#257=DIRECTION('',(0.E0,0.E0,-1.E0));
#258=DIRECTION('',(1.E0,0.E0,0.E0));
#259=AXIS2_PLACEMENT_3D('',#256,#257,#258);
#261=DIRECTION('',(0.E0,0.E0,1.E0));
#262=VECTOR('',#261,6.E0);
#263=CARTESIAN_POINT('',(5.5E0,0.E0,-1.36E2));
#264=LINE('',#263,#262);
#265=CARTESIAN_POINT('',(0.E0,0.E0,-1.36E2));
#266=DIRECTION('',(0.E0,0.E0,-1.E0));
#267=DIRECTION('',(1.E0,0.E0,0.E0));
#268=AXIS2_PLACEMENT_3D('',#265,#266,#267);
#270=CARTESIAN_POINT('',(0.E0,0.E0,-1.36E2));
#271=DIRECTION('',(0.E0,0.E0,-1.E0));
#272=DIRECTION('',(-1.E0,0.E0,0.E0));
#273=AXIS2_PLACEMENT_3D('',#270,#271,#272);
#275=DIRECTION('',(0.E0,-1.E0,0.E0));
#276=VECTOR('',#275,7.E0);
#277=CARTESIAN_POINT('',(-5.E1,-2.05E1,-1.36E2));
#278=LINE('',#277,#276);
#279=DIRECTION('',(-1.E0,0.E0,0.E0));
#280=VECTOR('',#279,3.25E1);
#281=CARTESIAN_POINT('',(5.E1,-2.05E1,-1.36E2));
#282=LINE('',#281,#280);
#283=DIRECTION('',(0.E0,-1.E0,0.E0));
#284=VECTOR('',#283,2.05E1);
#285=CARTESIAN_POINT('',(1.75E1,0.E0,-1.36E2));
#286=LINE('',#285,#284);
#287=CARTESIAN_POINT('',(0.E0,0.E0,-1.36E2));
#288=DIRECTION('',(0.E0,0.E0,-1.E0));
#289=DIRECTION('',(-1.E0,0.E0,0.E0));
#290=AXIS2_PLACEMENT_3D('',#287,#288,#289);
#292=DIRECTION('',(0.E0,1.E0,0.E0));
#293=VECTOR('',#292,2.05E1);
#294=CARTESIAN_POINT('',(-1.75E1,-2.05E1,-1.36E2));
#295=LINE('',#294,#293);
#296=DIRECTION('',(-1.E0,0.E0,0.E0));
#297=VECTOR('',#296,3.25E1);
#298=CARTESIAN_POINT('',(-1.75E1,-2.05E1,-1.36E2));
#299=LINE('',#298,#297);
#300=CARTESIAN_POINT('',(8.5E0,0.E0,-1.36E2));
#301=DIRECTION('',(0.E0,0.E0,-1.E0));
#302=DIRECTION('',(-1.E0,0.E0,0.E0));
#303=AXIS2_PLACEMENT_3D('',#300,#301,#302);
#305=CARTESIAN_POINT('',(8.5E0,0.E0,-1.36E2));
#306=DIRECTION('',(0.E0,0.E0,-1.E0));
#307=DIRECTION('',(1.E0,0.E0,0.E0));
#308=AXIS2_PLACEMENT_3D('',#305,#306,#307);
#310=CARTESIAN_POINT('',(-8.5E0,0.E0,-1.36E2));
#311=DIRECTION('',(0.E0,0.E0,-1.E0));
#312=DIRECTION('',(-1.E0,0.E0,0.E0));
#313=AXIS2_PLACEMENT_3D('',#310,#311,#312);
#315=CARTESIAN_POINT('',(-8.5E0,0.E0,-1.36E2));
#316=DIRECTION('',(0.E0,0.E0,-1.E0));
#317=DIRECTION('',(1.E0,0.E0,0.E0));
#318=AXIS2_PLACEMENT_3D('',#315,#316,#317);
#320=DIRECTION('',(0.E0,0.E0,1.E0));
#321=VECTOR('',#320,7.E0);
#322=CARTESIAN_POINT('',(-4.E0,0.E0,-1.36E2));
#323=LINE('',#322,#321);
#324=DIRECTION('',(0.E0,0.E0,-1.E0));
#325=VECTOR('',#324,7.E0);
#326=CARTESIAN_POINT('',(4.E0,0.E0,-1.29E2));
#327=LINE('',#326,#325);
#328=DIRECTION('',(0.E0,0.E0,1.E0));
#329=VECTOR('',#328,1.4E2);
#330=CARTESIAN_POINT('',(-5.E1,-2.05E1,-1.36E2));
#331=LINE('',#330,#329);
#332=DIRECTION('',(0.E0,0.E0,-1.E0));
#333=VECTOR('',#332,1.4E2);
#334=CARTESIAN_POINT('',(-5.E1,-2.75E1,4.E0));
#335=LINE('',#334,#333);
#336=DIRECTION('',(-1.E0,0.E0,0.E0));
#337=VECTOR('',#336,1.E2);
#338=CARTESIAN_POINT('',(5.E1,-2.75E1,4.E0));
#339=LINE('',#338,#337);
#340=DIRECTION('',(0.E0,0.E0,1.E0));
#341=VECTOR('',#340,1.4E2);
#342=CARTESIAN_POINT('',(5.E1,-2.75E1,-1.36E2));
#343=LINE('',#342,#341);
#344=DIRECTION('',(1.E0,0.E0,0.E0));
#345=VECTOR('',#344,1.E2);
#346=CARTESIAN_POINT('',(-5.E1,-2.75E1,-1.36E2));
#347=LINE('',#346,#345);
#348=DIRECTION('',(0.E0,-1.E0,0.E0));
#349=VECTOR('',#348,7.E0);
#350=CARTESIAN_POINT('',(5.E1,-2.05E1,-1.36E2));
#351=LINE('',#350,#349);
#352=DIRECTION('',(0.E0,0.E0,-1.E0));
#353=VECTOR('',#352,1.4E2);
#354=CARTESIAN_POINT('',(5.E1,-2.05E1,4.E0));
#355=LINE('',#354,#353);
#356=DIRECTION('',(0.E0,0.E0,1.E0));
#357=VECTOR('',#356,7.E0);
#358=CARTESIAN_POINT('',(1.75E1,0.E0,-1.36E2));
#359=LINE('',#358,#357);
#360=DIRECTION('',(0.E0,0.E0,1.E0));
#361=VECTOR('',#360,7.E0);
#362=CARTESIAN_POINT('',(-1.75E1,0.E0,-1.36E2));
#363=LINE('',#362,#361);
#364=DIRECTION('',(0.E0,0.E0,1.E0));
#365=VECTOR('',#364,6.E0);
#366=CARTESIAN_POINT('',(1.15E1,0.E0,-1.36E2));
#367=LINE('',#366,#365);
#368=DIRECTION('',(0.E0,0.E0,1.E0));
#369=VECTOR('',#368,6.E0);
#370=CARTESIAN_POINT('',(-1.15E1,0.E0,-1.36E2));
#371=LINE('',#370,#369);
#372=DIRECTION('',(0.E0,0.E0,1.E0));
#373=VECTOR('',#372,6.E0);
#374=CARTESIAN_POINT('',(-5.5E0,0.E0,-1.36E2));
#375=LINE('',#374,#373);
#376=CARTESIAN_POINT('',(-8.5E0,0.E0,-1.3E2));
#377=DIRECTION('',(0.E0,0.E0,-1.E0));
#378=DIRECTION('',(-1.E0,0.E0,0.E0));
#379=AXIS2_PLACEMENT_3D('',#376,#377,#378);
#381=CARTESIAN_POINT('',(-8.5E0,0.E0,-1.3E2));
#382=DIRECTION('',(0.E0,0.E0,-1.E0));
#383=DIRECTION('',(1.E0,0.E0,0.E0));
#384=AXIS2_PLACEMENT_3D('',#381,#382,#383);
#386=CARTESIAN_POINT('',(-8.5E0,0.E0,-1.3E2));
#387=DIRECTION('',(0.E0,0.E0,1.E0));
#388=DIRECTION('',(1.E0,0.E0,0.E0));
#389=AXIS2_PLACEMENT_3D('',#386,#387,#388);
#391=DIRECTION('',(0.E0,0.E0,1.E0));
#392=VECTOR('',#391,1.E0);
#393=CARTESIAN_POINT('',(-1.025E1,0.E0,-1.3E2));
#394=LINE('',#393,#392);
#395=DIRECTION('',(0.E0,0.E0,-1.E0));
#396=VECTOR('',#395,1.E0);
#397=CARTESIAN_POINT('',(-6.75E0,0.E0,-1.29E2));
#398=LINE('',#397,#396);
#399=CARTESIAN_POINT('',(-8.5E0,0.E0,-1.3E2));
#400=DIRECTION('',(0.E0,0.E0,1.E0));
#401=DIRECTION('',(-1.E0,0.E0,0.E0));
#402=AXIS2_PLACEMENT_3D('',#399,#400,#401);
#404=CARTESIAN_POINT('',(8.5E0,0.E0,-1.3E2));
#405=DIRECTION('',(0.E0,0.E0,1.E0));
#406=DIRECTION('',(1.E0,0.E0,0.E0));
#407=AXIS2_PLACEMENT_3D('',#404,#405,#406);
#409=DIRECTION('',(0.E0,0.E0,1.E0));
#410=VECTOR('',#409,1.E0);
#411=CARTESIAN_POINT('',(6.75E0,0.E0,-1.3E2));
#412=LINE('',#411,#410);
#413=DIRECTION('',(0.E0,0.E0,-1.E0));
#414=VECTOR('',#413,1.E0);
#415=CARTESIAN_POINT('',(1.025E1,0.E0,-1.29E2));
#416=LINE('',#415,#414);
#417=DIRECTION('',(0.E0,0.E0,-1.E0));
#418=VECTOR('',#417,6.E0);
#419=CARTESIAN_POINT('',(-1.15E1,0.E0,4.E0));
#420=LINE('',#419,#418);
#421=DIRECTION('',(0.E0,0.E0,-1.E0));
#422=VECTOR('',#421,6.E0);
#423=CARTESIAN_POINT('',(1.15E1,0.E0,4.E0));
#424=LINE('',#423,#422);
#425=DIRECTION('',(0.E0,0.E0,-1.E0));
#426=VECTOR('',#425,6.E0);
#427=CARTESIAN_POINT('',(5.5E0,0.E0,4.E0));
#428=LINE('',#427,#426);
#429=CARTESIAN_POINT('',(-4.E0,0.E0,4.E0));
#430=CARTESIAN_POINT('',(4.E0,0.E0,4.E0));
#431=VERTEX_POINT('',#429);
#432=VERTEX_POINT('',#430);
#433=CARTESIAN_POINT('',(5.E1,-2.05E1,4.E0));
#434=CARTESIAN_POINT('',(5.E1,-2.05E1,-1.36E2));
#435=VERTEX_POINT('',#433);
#436=VERTEX_POINT('',#434);
#437=CARTESIAN_POINT('',(-5.E1,-2.05E1,-1.36E2));
#438=CARTESIAN_POINT('',(-5.E1,-2.05E1,4.E0));
#439=VERTEX_POINT('',#437);
#440=VERTEX_POINT('',#438);
#441=CARTESIAN_POINT('',(4.E0,0.E0,-1.36E2));
#442=CARTESIAN_POINT('',(-4.E0,0.E0,-1.36E2));
#443=VERTEX_POINT('',#441);
#444=VERTEX_POINT('',#442);
#445=CARTESIAN_POINT('',(-1.75E1,0.E0,4.E0));
#446=CARTESIAN_POINT('',(1.75E1,0.E0,4.E0));
#447=VERTEX_POINT('',#445);
#448=VERTEX_POINT('',#446);
#449=CARTESIAN_POINT('',(1.75E1,-2.05E1,4.E0));
#450=VERTEX_POINT('',#449);
#451=CARTESIAN_POINT('',(-1.75E1,-2.05E1,4.E0));
#452=VERTEX_POINT('',#451);
#453=CARTESIAN_POINT('',(-6.75E0,0.E0,-3.E0));
#454=CARTESIAN_POINT('',(-1.025E1,0.E0,-3.E0));
#455=VERTEX_POINT('',#453);
#456=VERTEX_POINT('',#454);
#457=CARTESIAN_POINT('',(1.025E1,0.E0,-3.E0));
#458=CARTESIAN_POINT('',(6.75E0,0.E0,-3.E0));
#459=VERTEX_POINT('',#457);
#460=VERTEX_POINT('',#458);
#461=CARTESIAN_POINT('',(4.E0,0.E0,-3.E0));
#462=CARTESIAN_POINT('',(-4.E0,0.E0,-3.E0));
#463=VERTEX_POINT('',#461);
#464=VERTEX_POINT('',#462);
#465=CARTESIAN_POINT('',(1.75E1,0.E0,-3.E0));
#466=CARTESIAN_POINT('',(-1.75E1,0.E0,-3.E0));
#467=VERTEX_POINT('',#465);
#468=VERTEX_POINT('',#466);
#469=CARTESIAN_POINT('',(-1.75E1,-2.05E1,-3.E0));
#470=CARTESIAN_POINT('',(1.75E1,-2.05E1,-3.E0));
#471=VERTEX_POINT('',#469);
#472=VERTEX_POINT('',#470);
#473=CARTESIAN_POINT('',(-1.75E1,0.E0,-1.36E2));
#474=CARTESIAN_POINT('',(1.75E1,0.E0,-1.36E2));
#475=VERTEX_POINT('',#473);
#476=VERTEX_POINT('',#474);
#477=CARTESIAN_POINT('',(6.75E0,0.E0,-1.29E2));
#478=CARTESIAN_POINT('',(1.025E1,0.E0,-1.29E2));
#479=VERTEX_POINT('',#477);
#480=VERTEX_POINT('',#478);
#481=CARTESIAN_POINT('',(-1.025E1,0.E0,-1.29E2));
#482=CARTESIAN_POINT('',(-6.75E0,0.E0,-1.29E2));
#483=VERTEX_POINT('',#481);
#484=VERTEX_POINT('',#482);
#485=CARTESIAN_POINT('',(-4.E0,0.E0,-1.29E2));
#486=CARTESIAN_POINT('',(4.E0,0.E0,-1.29E2));
#487=VERTEX_POINT('',#485);
#488=VERTEX_POINT('',#486);
#489=CARTESIAN_POINT('',(-1.75E1,0.E0,-1.29E2));
#490=CARTESIAN_POINT('',(1.75E1,0.E0,-1.29E2));
#491=VERTEX_POINT('',#489);
#492=VERTEX_POINT('',#490);
#493=CARTESIAN_POINT('',(1.75E1,-2.05E1,-1.29E2));
#494=CARTESIAN_POINT('',(-1.75E1,-2.05E1,-1.29E2));
#495=VERTEX_POINT('',#493);
#496=VERTEX_POINT('',#494);
#497=CARTESIAN_POINT('',(1.75E1,-2.05E1,-1.36E2));
#498=VERTEX_POINT('',#497);
#499=CARTESIAN_POINT('',(-1.75E1,-2.05E1,-1.36E2));
#500=VERTEX_POINT('',#499);
#501=CARTESIAN_POINT('',(-5.E1,-2.75E1,4.E0));
#502=CARTESIAN_POINT('',(-5.E1,-2.75E1,-1.36E2));
#503=VERTEX_POINT('',#501);
#504=VERTEX_POINT('',#502);
#505=CARTESIAN_POINT('',(5.E1,-2.75E1,-1.36E2));
#506=VERTEX_POINT('',#505);
#507=CARTESIAN_POINT('',(5.E1,-2.75E1,4.E0));
#508=VERTEX_POINT('',#507);
#509=CARTESIAN_POINT('',(5.5E0,0.E0,-1.3E2));
#510=CARTESIAN_POINT('',(1.15E1,0.E0,-1.3E2));
#511=VERTEX_POINT('',#509);
#512=VERTEX_POINT('',#510);
#513=CARTESIAN_POINT('',(1.025E1,0.E0,-1.3E2));
#514=CARTESIAN_POINT('',(6.75E0,0.E0,-1.3E2));
#515=VERTEX_POINT('',#513);
#516=VERTEX_POINT('',#514);
#517=CARTESIAN_POINT('',(5.5E0,0.E0,-1.36E2));
#518=CARTESIAN_POINT('',(1.15E1,0.E0,-1.36E2));
#519=VERTEX_POINT('',#517);
#520=VERTEX_POINT('',#518);
#521=CARTESIAN_POINT('',(-1.15E1,0.E0,-1.3E2));
#522=CARTESIAN_POINT('',(-5.5E0,0.E0,-1.3E2));
#523=VERTEX_POINT('',#521);
#524=VERTEX_POINT('',#522);
#525=CARTESIAN_POINT('',(-6.75E0,0.E0,-1.3E2));
#526=CARTESIAN_POINT('',(-1.025E1,0.E0,-1.3E2));
#527=VERTEX_POINT('',#525);
#528=VERTEX_POINT('',#526);
#529=CARTESIAN_POINT('',(-1.15E1,0.E0,-1.36E2));
#530=CARTESIAN_POINT('',(-5.5E0,0.E0,-1.36E2));
#531=VERTEX_POINT('',#529);
#532=VERTEX_POINT('',#530);
#533=CARTESIAN_POINT('',(-5.5E0,0.E0,-2.E0));
#534=CARTESIAN_POINT('',(-1.15E1,0.E0,-2.E0));
#535=VERTEX_POINT('',#533);
#536=VERTEX_POINT('',#534);
#537=CARTESIAN_POINT('',(1.15E1,0.E0,-2.E0));
#538=CARTESIAN_POINT('',(5.5E0,0.E0,-2.E0));
#539=VERTEX_POINT('',#537);
#540=VERTEX_POINT('',#538);
#541=CARTESIAN_POINT('',(6.75E0,0.E0,-2.E0));
#542=CARTESIAN_POINT('',(1.025E1,0.E0,-2.E0));
#543=VERTEX_POINT('',#541);
#544=VERTEX_POINT('',#542);
#545=CARTESIAN_POINT('',(-1.025E1,0.E0,-2.E0));
#546=CARTESIAN_POINT('',(-6.75E0,0.E0,-2.E0));
#547=VERTEX_POINT('',#545);
#548=VERTEX_POINT('',#546);
#549=CARTESIAN_POINT('',(-5.5E0,0.E0,4.E0));
#550=CARTESIAN_POINT('',(-1.15E1,0.E0,4.E0));
#551=VERTEX_POINT('',#549);
#552=VERTEX_POINT('',#550);
#553=CARTESIAN_POINT('',(1.15E1,0.E0,4.E0));
#554=CARTESIAN_POINT('',(5.5E0,0.E0,4.E0));
#555=VERTEX_POINT('',#553);
#556=VERTEX_POINT('',#554);
#557=CARTESIAN_POINT('',(8.5E0,0.E0,0.E0));
#558=DIRECTION('',(0.E0,0.E0,-1.E0));
#559=DIRECTION('',(1.E0,0.E0,0.E0));
#560=AXIS2_PLACEMENT_3D('',#557,#558,#559);
#561=CYLINDRICAL_SURFACE('',#560,1.75E0);
#563=ORIENTED_EDGE('',*,*,#562,.T.);
#565=ORIENTED_EDGE('',*,*,#564,.T.);
#567=ORIENTED_EDGE('',*,*,#566,.F.);
#569=ORIENTED_EDGE('',*,*,#568,.T.);
#570=EDGE_LOOP('',(#563,#565,#567,#569));
#571=FACE_OUTER_BOUND('',#570,.F.);
#572=ADVANCED_FACE('',(#571),#561,.F.);
#573=CARTESIAN_POINT('',(0.E0,0.E0,-2.E0));
#574=DIRECTION('',(0.E0,0.E0,1.E0));
#575=DIRECTION('',(1.E0,0.E0,0.E0));
#576=AXIS2_PLACEMENT_3D('',#573,#574,#575);
#577=PLANE('',#576);
#579=ORIENTED_EDGE('',*,*,#578,.F.);
#581=ORIENTED_EDGE('',*,*,#580,.F.);
#582=EDGE_LOOP('',(#579,#581));
#583=FACE_OUTER_BOUND('',#582,.F.);
#585=ORIENTED_EDGE('',*,*,#584,.F.);
#587=ORIENTED_EDGE('',*,*,#586,.F.);
#588=EDGE_LOOP('',(#585,#587));
#589=FACE_BOUND('',#588,.F.);
#590=ADVANCED_FACE('',(#583,#589),#577,.T.);
#591=CARTESIAN_POINT('',(0.E0,0.E0,-2.E0));
#592=DIRECTION('',(0.E0,0.E0,1.E0));
#593=DIRECTION('',(1.E0,0.E0,0.E0));
#594=AXIS2_PLACEMENT_3D('',#591,#592,#593);
#595=PLANE('',#594);
#597=ORIENTED_EDGE('',*,*,#596,.F.);
#599=ORIENTED_EDGE('',*,*,#598,.F.);
#600=EDGE_LOOP('',(#597,#599));
#601=FACE_OUTER_BOUND('',#600,.F.);
#602=ORIENTED_EDGE('',*,*,#562,.F.);
#604=ORIENTED_EDGE('',*,*,#603,.F.);
#605=EDGE_LOOP('',(#602,#604));
#606=FACE_BOUND('',#605,.F.);
#607=ADVANCED_FACE('',(#601,#606),#595,.T.);
#608=CARTESIAN_POINT('',(-8.5E0,0.E0,4.E0));
#609=DIRECTION('',(0.E0,0.E0,1.E0));
#610=DIRECTION('',(1.E0,0.E0,0.E0));
#611=AXIS2_PLACEMENT_3D('',#608,#609,#610);
#612=CYLINDRICAL_SURFACE('',#611,3.E0);
#614=ORIENTED_EDGE('',*,*,#613,.F.);
#616=ORIENTED_EDGE('',*,*,#615,.T.);
#617=ORIENTED_EDGE('',*,*,#578,.T.);
#619=ORIENTED_EDGE('',*,*,#618,.F.);
#620=EDGE_LOOP('',(#614,#616,#617,#619));
#621=FACE_OUTER_BOUND('',#620,.F.);
#622=ADVANCED_FACE('',(#621),#612,.F.);
#623=CARTESIAN_POINT('',(0.E0,0.E0,4.E0));
#624=DIRECTION('',(0.E0,0.E0,1.E0));
#625=DIRECTION('',(1.E0,0.E0,0.E0));
#626=AXIS2_PLACEMENT_3D('',#623,#624,#625);
#627=PLANE('',#626);
#629=ORIENTED_EDGE('',*,*,#628,.T.);
#631=ORIENTED_EDGE('',*,*,#630,.T.);
#633=ORIENTED_EDGE('',*,*,#632,.T.);
#635=ORIENTED_EDGE('',*,*,#634,.T.);
#637=ORIENTED_EDGE('',*,*,#636,.T.);
#639=ORIENTED_EDGE('',*,*,#638,.T.);
#641=ORIENTED_EDGE('',*,*,#640,.T.);
#643=ORIENTED_EDGE('',*,*,#642,.T.);
#644=EDGE_LOOP('',(#629,#631,#633,#635,#637,#639,#641,#643));
#645=FACE_OUTER_BOUND('',#644,.F.);
#647=ORIENTED_EDGE('',*,*,#646,.T.);
#649=ORIENTED_EDGE('',*,*,#648,.T.);
#650=EDGE_LOOP('',(#647,#649));
#651=FACE_BOUND('',#650,.F.);
#652=ORIENTED_EDGE('',*,*,#613,.T.);
#654=ORIENTED_EDGE('',*,*,#653,.T.);
#655=EDGE_LOOP('',(#652,#654));
#656=FACE_BOUND('',#655,.F.);
#658=ORIENTED_EDGE('',*,*,#657,.T.);
#660=ORIENTED_EDGE('',*,*,#659,.T.);
#661=EDGE_LOOP('',(#658,#660));
#662=FACE_BOUND('',#661,.F.);
#663=ADVANCED_FACE('',(#645,#651,#656,#662),#627,.T.);
#664=CARTESIAN_POINT('',(0.E0,0.E0,0.E0));
#665=DIRECTION('',(0.E0,0.E0,1.E0));
#666=DIRECTION('',(1.E0,0.E0,0.E0));
#667=AXIS2_PLACEMENT_3D('',#664,#665,#666);
#668=CYLINDRICAL_SURFACE('',#667,4.E0);
#670=ORIENTED_EDGE('',*,*,#669,.F.);
#672=ORIENTED_EDGE('',*,*,#671,.F.);
#674=ORIENTED_EDGE('',*,*,#673,.F.);
#675=ORIENTED_EDGE('',*,*,#646,.F.);
#676=EDGE_LOOP('',(#670,#672,#674,#675));
#677=FACE_OUTER_BOUND('',#676,.F.);
#678=ADVANCED_FACE('',(#677),#668,.F.);
#679=CARTESIAN_POINT('',(0.E0,0.E0,0.E0));
#680=DIRECTION('',(0.E0,0.E0,1.E0));
#681=DIRECTION('',(1.E0,0.E0,0.E0));
#682=AXIS2_PLACEMENT_3D('',#679,#680,#681);
#683=CYLINDRICAL_SURFACE('',#682,4.E0);
#684=ORIENTED_EDGE('',*,*,#673,.T.);
#686=ORIENTED_EDGE('',*,*,#685,.F.);
#687=ORIENTED_EDGE('',*,*,#669,.T.);
#688=ORIENTED_EDGE('',*,*,#648,.F.);
#689=EDGE_LOOP('',(#684,#686,#687,#688));
#690=FACE_OUTER_BOUND('',#689,.F.);
#691=ADVANCED_FACE('',(#690),#683,.F.);
#692=CARTESIAN_POINT('',(0.E0,0.E0,-3.E0));
#693=DIRECTION('',(0.E0,0.E0,1.E0));
#694=DIRECTION('',(1.E0,0.E0,0.E0));
#695=AXIS2_PLACEMENT_3D('',#692,#693,#694);
#696=PLANE('',#695);
#698=ORIENTED_EDGE('',*,*,#697,.T.);
#700=ORIENTED_EDGE('',*,*,#699,.T.);
#702=ORIENTED_EDGE('',*,*,#701,.T.);
#704=ORIENTED_EDGE('',*,*,#703,.T.);
#705=EDGE_LOOP('',(#698,#700,#702,#704));
#706=FACE_OUTER_BOUND('',#705,.F.);
#708=ORIENTED_EDGE('',*,*,#707,.T.);
#709=ORIENTED_EDGE('',*,*,#566,.T.);
#710=EDGE_LOOP('',(#708,#709));
#711=FACE_BOUND('',#710,.F.);
#712=ORIENTED_EDGE('',*,*,#671,.T.);
#713=ORIENTED_EDGE('',*,*,#685,.T.);
#714=EDGE_LOOP('',(#712,#713));
#715=FACE_BOUND('',#714,.F.);
#717=ORIENTED_EDGE('',*,*,#716,.T.);
#719=ORIENTED_EDGE('',*,*,#718,.T.);
#720=EDGE_LOOP('',(#717,#719));
#721=FACE_BOUND('',#720,.F.);
#722=ADVANCED_FACE('',(#706,#711,#715,#721),#696,.F.);
#723=CARTESIAN_POINT('',(-8.5E0,0.E0,0.E0));
#724=DIRECTION('',(0.E0,0.E0,-1.E0));
#725=DIRECTION('',(1.E0,0.E0,0.E0));
#726=AXIS2_PLACEMENT_3D('',#723,#724,#725);
#727=CYLINDRICAL_SURFACE('',#726,1.75E0);
#728=ORIENTED_EDGE('',*,*,#586,.T.);
#730=ORIENTED_EDGE('',*,*,#729,.F.);
#731=ORIENTED_EDGE('',*,*,#716,.F.);
#733=ORIENTED_EDGE('',*,*,#732,.F.);
#734=EDGE_LOOP('',(#728,#730,#731,#733));
#735=FACE_OUTER_BOUND('',#734,.F.);
#736=ADVANCED_FACE('',(#735),#727,.F.);
#737=CARTESIAN_POINT('',(-8.5E0,0.E0,0.E0));
#738=DIRECTION('',(0.E0,0.E0,-1.E0));
#739=DIRECTION('',(1.E0,0.E0,0.E0));
#740=AXIS2_PLACEMENT_3D('',#737,#738,#739);
#741=CYLINDRICAL_SURFACE('',#740,1.75E0);
#742=ORIENTED_EDGE('',*,*,#584,.T.);
#743=ORIENTED_EDGE('',*,*,#732,.T.);
#744=ORIENTED_EDGE('',*,*,#718,.F.);
#745=ORIENTED_EDGE('',*,*,#729,.T.);
#746=EDGE_LOOP('',(#742,#743,#744,#745));
#747=FACE_OUTER_BOUND('',#746,.F.);
#748=ADVANCED_FACE('',(#747),#741,.F.);
#749=CARTESIAN_POINT('',(8.5E0,0.E0,0.E0));
#750=DIRECTION('',(0.E0,0.E0,-1.E0));
#751=DIRECTION('',(1.E0,0.E0,0.E0));
#752=AXIS2_PLACEMENT_3D('',#749,#750,#751);
#753=CYLINDRICAL_SURFACE('',#752,1.75E0);
#754=ORIENTED_EDGE('',*,*,#603,.T.);
#755=ORIENTED_EDGE('',*,*,#568,.F.);
#756=ORIENTED_EDGE('',*,*,#707,.F.);
#757=ORIENTED_EDGE('',*,*,#564,.F.);
#758=EDGE_LOOP('',(#754,#755,#756,#757));
#759=FACE_OUTER_BOUND('',#758,.F.);
#760=ADVANCED_FACE('',(#759),#753,.F.);
#761=CARTESIAN_POINT('',(1.75E1,0.E0,0.E0));
#762=DIRECTION('',(1.E0,0.E0,0.E0));
#763=DIRECTION('',(0.E0,-1.E0,0.E0));
#764=AXIS2_PLACEMENT_3D('',#761,#762,#763);
#765=PLANE('',#764);
#767=ORIENTED_EDGE('',*,*,#766,.F.);
#768=ORIENTED_EDGE('',*,*,#697,.F.);
#770=ORIENTED_EDGE('',*,*,#769,.T.);
#771=ORIENTED_EDGE('',*,*,#640,.F.);
#772=EDGE_LOOP('',(#767,#768,#770,#771));
#773=FACE_OUTER_BOUND('',#772,.F.);
#774=ADVANCED_FACE('',(#773),#765,.T.);
#775=CARTESIAN_POINT('',(0.E0,0.E0,0.E0));
#776=DIRECTION('',(0.E0,0.E0,-1.E0));
#777=DIRECTION('',(-1.E0,0.E0,0.E0));
#778=AXIS2_PLACEMENT_3D('',#775,#776,#777);
#779=CYLINDRICAL_SURFACE('',#778,1.75E1);
#781=ORIENTED_EDGE('',*,*,#780,.T.);
#782=ORIENTED_EDGE('',*,*,#699,.F.);
#783=ORIENTED_EDGE('',*,*,#766,.T.);
#784=ORIENTED_EDGE('',*,*,#638,.F.);
#785=EDGE_LOOP('',(#781,#782,#783,#784));
#786=FACE_OUTER_BOUND('',#785,.F.);
#787=ADVANCED_FACE('',(#786),#779,.T.);
#788=CARTESIAN_POINT('',(-1.75E1,-2.05E1,0.E0));
#789=DIRECTION('',(-1.E0,0.E0,0.E0));
#790=DIRECTION('',(0.E0,1.E0,0.E0));
#791=AXIS2_PLACEMENT_3D('',#788,#789,#790);
#792=PLANE('',#791);
#794=ORIENTED_EDGE('',*,*,#793,.T.);
#795=ORIENTED_EDGE('',*,*,#701,.F.);
#796=ORIENTED_EDGE('',*,*,#780,.F.);
#797=ORIENTED_EDGE('',*,*,#636,.F.);
#798=EDGE_LOOP('',(#794,#795,#796,#797));
#799=FACE_OUTER_BOUND('',#798,.F.);
#800=ADVANCED_FACE('',(#799),#792,.T.);
#801=CARTESIAN_POINT('',(0.E0,-2.05E1,0.E0));
#802=DIRECTION('',(0.E0,-1.E0,0.E0));
#803=DIRECTION('',(0.E0,0.E0,1.E0));
#804=AXIS2_PLACEMENT_3D('',#801,#802,#803);
#805=PLANE('',#804);
#807=ORIENTED_EDGE('',*,*,#806,.F.);
#809=ORIENTED_EDGE('',*,*,#808,.F.);
#811=ORIENTED_EDGE('',*,*,#810,.F.);
#813=ORIENTED_EDGE('',*,*,#812,.F.);
#814=ORIENTED_EDGE('',*,*,#642,.F.);
#815=ORIENTED_EDGE('',*,*,#769,.F.);
#816=ORIENTED_EDGE('',*,*,#703,.F.);
#817=ORIENTED_EDGE('',*,*,#793,.F.);
#818=ORIENTED_EDGE('',*,*,#634,.F.);
#820=ORIENTED_EDGE('',*,*,#819,.F.);
#822=ORIENTED_EDGE('',*,*,#821,.F.);
#824=ORIENTED_EDGE('',*,*,#823,.T.);
#825=EDGE_LOOP('',(#807,#809,#811,#813,#814,#815,#816,#817,#818,#820,#822,
#824));
#826=FACE_OUTER_BOUND('',#825,.F.);
#827=ADVANCED_FACE('',(#826),#805,.F.);
#828=CARTESIAN_POINT('',(0.E0,0.E0,-1.29E2));
#829=DIRECTION('',(0.E0,0.E0,-1.E0));
#830=DIRECTION('',(-1.E0,0.E0,0.E0));
#831=AXIS2_PLACEMENT_3D('',#828,#829,#830);
#832=PLANE('',#831);
#834=ORIENTED_EDGE('',*,*,#833,.T.);
#836=ORIENTED_EDGE('',*,*,#835,.T.);
#838=ORIENTED_EDGE('',*,*,#837,.T.);
#839=ORIENTED_EDGE('',*,*,#806,.T.);
#840=EDGE_LOOP('',(#834,#836,#838,#839));
#841=FACE_OUTER_BOUND('',#840,.F.);
#843=ORIENTED_EDGE('',*,*,#842,.T.);
#845=ORIENTED_EDGE('',*,*,#844,.T.);
#846=EDGE_LOOP('',(#843,#845));
#847=FACE_BOUND('',#846,.F.);
#849=ORIENTED_EDGE('',*,*,#848,.T.);
#851=ORIENTED_EDGE('',*,*,#850,.T.);
#852=EDGE_LOOP('',(#849,#851));
#853=FACE_BOUND('',#852,.F.);
#855=ORIENTED_EDGE('',*,*,#854,.T.);
#857=ORIENTED_EDGE('',*,*,#856,.T.);
#858=EDGE_LOOP('',(#855,#857));
#859=FACE_BOUND('',#858,.F.);
#860=ADVANCED_FACE('',(#841,#847,#853,#859),#832,.F.);
#861=CARTESIAN_POINT('',(8.5E0,0.E0,-1.32E2));
#862=DIRECTION('',(0.E0,0.E0,1.E0));
#863=DIRECTION('',(-1.E0,0.E0,0.E0));
#864=AXIS2_PLACEMENT_3D('',#861,#862,#863);
#865=CYLINDRICAL_SURFACE('',#864,1.75E0);
#867=ORIENTED_EDGE('',*,*,#866,.T.);
#869=ORIENTED_EDGE('',*,*,#868,.F.);
#870=ORIENTED_EDGE('',*,*,#854,.F.);
#872=ORIENTED_EDGE('',*,*,#871,.F.);
#873=EDGE_LOOP('',(#867,#869,#870,#872));
#874=FACE_OUTER_BOUND('',#873,.F.);
#875=ADVANCED_FACE('',(#874),#865,.F.);
#876=CARTESIAN_POINT('',(0.E0,0.E0,-1.3E2));
#877=DIRECTION('',(0.E0,0.E0,-1.E0));
#878=DIRECTION('',(-1.E0,0.E0,0.E0));
#879=AXIS2_PLACEMENT_3D('',#876,#877,#878);
#880=PLANE('',#879);
#882=ORIENTED_EDGE('',*,*,#881,.F.);
#884=ORIENTED_EDGE('',*,*,#883,.F.);
#885=EDGE_LOOP('',(#882,#884));
#886=FACE_OUTER_BOUND('',#885,.F.);
#888=ORIENTED_EDGE('',*,*,#887,.F.);
#889=ORIENTED_EDGE('',*,*,#866,.F.);
#890=EDGE_LOOP('',(#888,#889));
#891=FACE_BOUND('',#890,.F.);
#892=ADVANCED_FACE('',(#886,#891),#880,.T.);
#893=CARTESIAN_POINT('',(8.5E0,0.E0,-1.36E2));
#894=DIRECTION('',(0.E0,0.E0,-1.E0));
#895=DIRECTION('',(-1.E0,0.E0,0.E0));
#896=AXIS2_PLACEMENT_3D('',#893,#894,#895);
#897=CYLINDRICAL_SURFACE('',#896,3.E0);
#899=ORIENTED_EDGE('',*,*,#898,.F.);
#901=ORIENTED_EDGE('',*,*,#900,.T.);
#902=ORIENTED_EDGE('',*,*,#881,.T.);
#904=ORIENTED_EDGE('',*,*,#903,.F.);
#905=EDGE_LOOP('',(#899,#901,#902,#904));
#906=FACE_OUTER_BOUND('',#905,.F.);
#907=ADVANCED_FACE('',(#906),#897,.F.);
#908=CARTESIAN_POINT('',(0.E0,0.E0,-1.36E2));
#909=DIRECTION('',(0.E0,0.E0,1.E0));
#910=DIRECTION('',(1.E0,0.E0,0.E0));
#911=AXIS2_PLACEMENT_3D('',#908,#909,#910);
#912=PLANE('',#911);
#914=ORIENTED_EDGE('',*,*,#913,.T.);
#916=ORIENTED_EDGE('',*,*,#915,.T.);
#918=ORIENTED_EDGE('',*,*,#917,.F.);
#919=ORIENTED_EDGE('',*,*,#810,.T.);
#921=ORIENTED_EDGE('',*,*,#920,.F.);
#923=ORIENTED_EDGE('',*,*,#922,.F.);
#925=ORIENTED_EDGE('',*,*,#924,.F.);
#926=ORIENTED_EDGE('',*,*,#821,.T.);
#927=EDGE_LOOP('',(#914,#916,#918,#919,#921,#923,#925,#926));
#928=FACE_OUTER_BOUND('',#927,.F.);
#930=ORIENTED_EDGE('',*,*,#929,.T.);
#932=ORIENTED_EDGE('',*,*,#931,.T.);
#933=EDGE_LOOP('',(#930,#932));
#934=FACE_BOUND('',#933,.F.);
#935=ORIENTED_EDGE('',*,*,#898,.T.);
#937=ORIENTED_EDGE('',*,*,#936,.T.);
#938=EDGE_LOOP('',(#935,#937));
#939=FACE_BOUND('',#938,.F.);
#941=ORIENTED_EDGE('',*,*,#940,.T.);
#943=ORIENTED_EDGE('',*,*,#942,.T.);
#944=EDGE_LOOP('',(#941,#943));
#945=FACE_BOUND('',#944,.F.);
#946=ADVANCED_FACE('',(#928,#934,#939,#945),#912,.F.);
#947=CARTESIAN_POINT('',(0.E0,0.E0,-1.32E2));
#948=DIRECTION('',(0.E0,0.E0,1.E0));
#949=DIRECTION('',(1.E0,0.E0,0.E0));
#950=AXIS2_PLACEMENT_3D('',#947,#948,#949);
#951=CYLINDRICAL_SURFACE('',#950,4.E0);
#953=ORIENTED_EDGE('',*,*,#952,.F.);
#954=ORIENTED_EDGE('',*,*,#848,.F.);
#956=ORIENTED_EDGE('',*,*,#955,.F.);
#957=ORIENTED_EDGE('',*,*,#929,.F.);
#958=EDGE_LOOP('',(#953,#954,#956,#957));
#959=FACE_OUTER_BOUND('',#958,.F.);
#960=ADVANCED_FACE('',(#959),#951,.F.);
#961=CARTESIAN_POINT('',(0.E0,0.E0,-1.32E2));
#962=DIRECTION('',(0.E0,0.E0,1.E0));
#963=DIRECTION('',(1.E0,0.E0,0.E0));
#964=AXIS2_PLACEMENT_3D('',#961,#962,#963);
#965=CYLINDRICAL_SURFACE('',#964,4.E0);
#966=ORIENTED_EDGE('',*,*,#955,.T.);
#967=ORIENTED_EDGE('',*,*,#850,.F.);
#968=ORIENTED_EDGE('',*,*,#952,.T.);
#969=ORIENTED_EDGE('',*,*,#931,.F.);
#970=EDGE_LOOP('',(#966,#967,#968,#969));
#971=FACE_OUTER_BOUND('',#970,.F.);
#972=ADVANCED_FACE('',(#971),#965,.F.);
#973=CARTESIAN_POINT('',(-5.E1,-2.45E1,4.E0));
#974=DIRECTION('',(-1.E0,0.E0,0.E0));
#975=DIRECTION('',(0.E0,0.E0,-1.E0));
#976=AXIS2_PLACEMENT_3D('',#973,#974,#975);
#977=PLANE('',#976);
#978=ORIENTED_EDGE('',*,*,#632,.F.);
#980=ORIENTED_EDGE('',*,*,#979,.T.);
#981=ORIENTED_EDGE('',*,*,#913,.F.);
#982=ORIENTED_EDGE('',*,*,#819,.T.);
#983=EDGE_LOOP('',(#978,#980,#981,#982));
#984=FACE_OUTER_BOUND('',#983,.F.);
#985=ADVANCED_FACE('',(#984),#977,.T.);
#986=CARTESIAN_POINT('',(0.E0,-2.75E1,0.E0));
#987=DIRECTION('',(0.E0,-1.E0,0.E0));
#988=DIRECTION('',(1.E0,0.E0,0.E0));
#989=AXIS2_PLACEMENT_3D('',#986,#987,#988);
#990=PLANE('',#989);
#991=ORIENTED_EDGE('',*,*,#979,.F.);
#992=ORIENTED_EDGE('',*,*,#630,.F.);
#994=ORIENTED_EDGE('',*,*,#993,.F.);
#995=ORIENTED_EDGE('',*,*,#915,.F.);
#996=EDGE_LOOP('',(#991,#992,#994,#995));
#997=FACE_OUTER_BOUND('',#996,.F.);
#998=ADVANCED_FACE('',(#997),#990,.T.);
#999=CARTESIAN_POINT('',(5.E1,-2.45E1,-1.36E2));
#1000=DIRECTION('',(1.E0,0.E0,0.E0));
#1001=DIRECTION('',(0.E0,0.E0,1.E0));
#1002=AXIS2_PLACEMENT_3D('',#999,#1000,#1001);
#1003=PLANE('',#1002);
#1004=ORIENTED_EDGE('',*,*,#917,.T.);
#1005=ORIENTED_EDGE('',*,*,#993,.T.);
#1006=ORIENTED_EDGE('',*,*,#628,.F.);
#1007=ORIENTED_EDGE('',*,*,#812,.T.);
#1008=EDGE_LOOP('',(#1004,#1005,#1006,#1007));
#1009=FACE_OUTER_BOUND('',#1008,.F.);
#1010=ADVANCED_FACE('',(#1009),#1003,.T.);
#1011=CARTESIAN_POINT('',(1.75E1,0.E0,-1.36E2));
#1012=DIRECTION('',(1.E0,0.E0,0.E0));
#1013=DIRECTION('',(0.E0,-1.E0,0.E0));
#1014=AXIS2_PLACEMENT_3D('',#1011,#1012,#1013);
#1015=PLANE('',#1014);
#1016=ORIENTED_EDGE('',*,*,#808,.T.);
#1017=ORIENTED_EDGE('',*,*,#837,.F.);
#1019=ORIENTED_EDGE('',*,*,#1018,.F.);
#1020=ORIENTED_EDGE('',*,*,#920,.T.);
#1021=EDGE_LOOP('',(#1016,#1017,#1019,#1020));
#1022=FACE_OUTER_BOUND('',#1021,.F.);
#1023=ADVANCED_FACE('',(#1022),#1015,.T.);
#1024=CARTESIAN_POINT('',(0.E0,0.E0,-1.36E2));
#1025=DIRECTION('',(0.E0,0.E0,-1.E0));
#1026=DIRECTION('',(-1.E0,0.E0,0.E0));
#1027=AXIS2_PLACEMENT_3D('',#1024,#1025,#1026);
#1028=CYLINDRICAL_SURFACE('',#1027,1.75E1);
#1029=ORIENTED_EDGE('',*,*,#922,.T.);
#1030=ORIENTED_EDGE('',*,*,#1018,.T.);
#1031=ORIENTED_EDGE('',*,*,#835,.F.);
#1033=ORIENTED_EDGE('',*,*,#1032,.F.);
#1034=EDGE_LOOP('',(#1029,#1030,#1031,#1033));
#1035=FACE_OUTER_BOUND('',#1034,.F.);
#1036=ADVANCED_FACE('',(#1035),#1028,.T.);
#1037=CARTESIAN_POINT('',(-1.75E1,-2.05E1,-1.36E2));
#1038=DIRECTION('',(-1.E0,0.E0,0.E0));
#1039=DIRECTION('',(0.E0,1.E0,0.E0));
#1040=AXIS2_PLACEMENT_3D('',#1037,#1038,#1039);
#1041=PLANE('',#1040);
#1042=ORIENTED_EDGE('',*,*,#823,.F.);
#1043=ORIENTED_EDGE('',*,*,#924,.T.);
#1044=ORIENTED_EDGE('',*,*,#1032,.T.);
#1045=ORIENTED_EDGE('',*,*,#833,.F.);
#1046=EDGE_LOOP('',(#1042,#1043,#1044,#1045));
#1047=FACE_OUTER_BOUND('',#1046,.F.);
#1048=ADVANCED_FACE('',(#1047),#1041,.T.);
#1049=CARTESIAN_POINT('',(8.5E0,0.E0,-1.36E2));
#1050=DIRECTION('',(0.E0,0.E0,-1.E0));
#1051=DIRECTION('',(-1.E0,0.E0,0.E0));
#1052=AXIS2_PLACEMENT_3D('',#1049,#1050,#1051);
#1053=CYLINDRICAL_SURFACE('',#1052,3.E0);
#1054=ORIENTED_EDGE('',*,*,#936,.F.);
#1055=ORIENTED_EDGE('',*,*,#903,.T.);
#1056=ORIENTED_EDGE('',*,*,#883,.T.);
#1057=ORIENTED_EDGE('',*,*,#900,.F.);
#1058=EDGE_LOOP('',(#1054,#1055,#1056,#1057));
#1059=FACE_OUTER_BOUND('',#1058,.F.);
#1060=ADVANCED_FACE('',(#1059),#1053,.F.);
#1061=CARTESIAN_POINT('',(-8.5E0,0.E0,-1.36E2));
#1062=DIRECTION('',(0.E0,0.E0,-1.E0));
#1063=DIRECTION('',(-1.E0,0.E0,0.E0));
#1064=AXIS2_PLACEMENT_3D('',#1061,#1062,#1063);
#1065=CYLINDRICAL_SURFACE('',#1064,3.E0);
#1066=ORIENTED_EDGE('',*,*,#940,.F.);
#1068=ORIENTED_EDGE('',*,*,#1067,.T.);
#1070=ORIENTED_EDGE('',*,*,#1069,.T.);
#1072=ORIENTED_EDGE('',*,*,#1071,.F.);
#1073=EDGE_LOOP('',(#1066,#1068,#1070,#1072));
#1074=FACE_OUTER_BOUND('',#1073,.F.);
#1075=ADVANCED_FACE('',(#1074),#1065,.F.);
#1076=CARTESIAN_POINT('',(-8.5E0,0.E0,-1.36E2));
#1077=DIRECTION('',(0.E0,0.E0,-1.E0));
#1078=DIRECTION('',(-1.E0,0.E0,0.E0));
#1079=AXIS2_PLACEMENT_3D('',#1076,#1077,#1078);
#1080=CYLINDRICAL_SURFACE('',#1079,3.E0);
#1081=ORIENTED_EDGE('',*,*,#942,.F.);
#1082=ORIENTED_EDGE('',*,*,#1071,.T.);
#1084=ORIENTED_EDGE('',*,*,#1083,.T.);
#1085=ORIENTED_EDGE('',*,*,#1067,.F.);
#1086=EDGE_LOOP('',(#1081,#1082,#1084,#1085));
#1087=FACE_OUTER_BOUND('',#1086,.F.);
#1088=ADVANCED_FACE('',(#1087),#1080,.F.);
#1089=CARTESIAN_POINT('',(0.E0,0.E0,-1.3E2));
#1090=DIRECTION('',(0.E0,0.E0,-1.E0));
#1091=DIRECTION('',(-1.E0,0.E0,0.E0));
#1092=AXIS2_PLACEMENT_3D('',#1089,#1090,#1091);
#1093=PLANE('',#1092);
#1094=ORIENTED_EDGE('',*,*,#1069,.F.);
#1095=ORIENTED_EDGE('',*,*,#1083,.F.);
#1096=EDGE_LOOP('',(#1094,#1095));
#1097=FACE_OUTER_BOUND('',#1096,.F.);
#1099=ORIENTED_EDGE('',*,*,#1098,.F.);
#1101=ORIENTED_EDGE('',*,*,#1100,.F.);
#1102=EDGE_LOOP('',(#1099,#1101));
#1103=FACE_BOUND('',#1102,.F.);
#1104=ADVANCED_FACE('',(#1097,#1103),#1093,.T.);
#1105=CARTESIAN_POINT('',(-8.5E0,0.E0,-1.32E2));
#1106=DIRECTION('',(0.E0,0.E0,1.E0));
#1107=DIRECTION('',(-1.E0,0.E0,0.E0));
#1108=AXIS2_PLACEMENT_3D('',#1105,#1106,#1107);
#1109=CYLINDRICAL_SURFACE('',#1108,1.75E0);
#1110=ORIENTED_EDGE('',*,*,#1098,.T.);
#1112=ORIENTED_EDGE('',*,*,#1111,.T.);
#1113=ORIENTED_EDGE('',*,*,#844,.F.);
#1115=ORIENTED_EDGE('',*,*,#1114,.T.);
#1116=EDGE_LOOP('',(#1110,#1112,#1113,#1115));
#1117=FACE_OUTER_BOUND('',#1116,.F.);
#1118=ADVANCED_FACE('',(#1117),#1109,.F.);
#1119=CARTESIAN_POINT('',(-8.5E0,0.E0,-1.32E2));
#1120=DIRECTION('',(0.E0,0.E0,1.E0));
#1121=DIRECTION('',(-1.E0,0.E0,0.E0));
#1122=AXIS2_PLACEMENT_3D('',#1119,#1120,#1121);
#1123=CYLINDRICAL_SURFACE('',#1122,1.75E0);
#1124=ORIENTED_EDGE('',*,*,#1100,.T.);
#1125=ORIENTED_EDGE('',*,*,#1114,.F.);
#1126=ORIENTED_EDGE('',*,*,#842,.F.);
#1127=ORIENTED_EDGE('',*,*,#1111,.F.);
#1128=EDGE_LOOP('',(#1124,#1125,#1126,#1127));
#1129=FACE_OUTER_BOUND('',#1128,.F.);
#1130=ADVANCED_FACE('',(#1129),#1123,.F.);
#1131=CARTESIAN_POINT('',(8.5E0,0.E0,-1.32E2));
#1132=DIRECTION('',(0.E0,0.E0,1.E0));
#1133=DIRECTION('',(-1.E0,0.E0,0.E0));
#1134=AXIS2_PLACEMENT_3D('',#1131,#1132,#1133);
#1135=CYLINDRICAL_SURFACE('',#1134,1.75E0);
#1136=ORIENTED_EDGE('',*,*,#887,.T.);
#1137=ORIENTED_EDGE('',*,*,#871,.T.);
#1138=ORIENTED_EDGE('',*,*,#856,.F.);
#1139=ORIENTED_EDGE('',*,*,#868,.T.);
#1140=EDGE_LOOP('',(#1136,#1137,#1138,#1139));
#1141=FACE_OUTER_BOUND('',#1140,.F.);
#1142=ADVANCED_FACE('',(#1141),#1135,.F.);
#1143=CARTESIAN_POINT('',(-8.5E0,0.E0,4.E0));
#1144=DIRECTION('',(0.E0,0.E0,1.E0));
#1145=DIRECTION('',(1.E0,0.E0,0.E0));
#1146=AXIS2_PLACEMENT_3D('',#1143,#1144,#1145);
#1147=CYLINDRICAL_SURFACE('',#1146,3.E0);
#1148=ORIENTED_EDGE('',*,*,#653,.F.);
#1149=ORIENTED_EDGE('',*,*,#618,.T.);
#1150=ORIENTED_EDGE('',*,*,#580,.T.);
#1151=ORIENTED_EDGE('',*,*,#615,.F.);
#1152=EDGE_LOOP('',(#1148,#1149,#1150,#1151));
#1153=FACE_OUTER_BOUND('',#1152,.F.);
#1154=ADVANCED_FACE('',(#1153),#1147,.F.);
#1155=CARTESIAN_POINT('',(8.5E0,0.E0,4.E0));
#1156=DIRECTION('',(0.E0,0.E0,1.E0));
#1157=DIRECTION('',(1.E0,0.E0,0.E0));
#1158=AXIS2_PLACEMENT_3D('',#1155,#1156,#1157);
#1159=CYLINDRICAL_SURFACE('',#1158,3.E0);
#1160=ORIENTED_EDGE('',*,*,#657,.F.);
#1162=ORIENTED_EDGE('',*,*,#1161,.T.);
#1163=ORIENTED_EDGE('',*,*,#596,.T.);
#1165=ORIENTED_EDGE('',*,*,#1164,.F.);
#1166=EDGE_LOOP('',(#1160,#1162,#1163,#1165));
#1167=FACE_OUTER_BOUND('',#1166,.F.);
#1168=ADVANCED_FACE('',(#1167),#1159,.F.);
#1169=CARTESIAN_POINT('',(8.5E0,0.E0,4.E0));
#1170=DIRECTION('',(0.E0,0.E0,1.E0));
#1171=DIRECTION('',(1.E0,0.E0,0.E0));
#1172=AXIS2_PLACEMENT_3D('',#1169,#1170,#1171);
#1173=CYLINDRICAL_SURFACE('',#1172,3.E0);
#1174=ORIENTED_EDGE('',*,*,#659,.F.);
#1175=ORIENTED_EDGE('',*,*,#1164,.T.);
#1176=ORIENTED_EDGE('',*,*,#598,.T.);
#1177=ORIENTED_EDGE('',*,*,#1161,.F.);
#1178=EDGE_LOOP('',(#1174,#1175,#1176,#1177));
#1179=FACE_OUTER_BOUND('',#1178,.F.);
#1180=ADVANCED_FACE('',(#1179),#1173,.F.);
#1184=DIMENSIONAL_EXPONENTS(0.E0,0.E0,0.E0,0.E0,0.E0,0.E0,0.E0);
#1186=PLANE_ANGLE_MEASURE_WITH_UNIT(PLANE_ANGLE_MEASURE(1.745329251994E-2),
#1185);
#1187=(CONVERSION_BASED_UNIT('DEGREE',#1186)NAMED_UNIT(*)PLANE_ANGLE_UNIT());
#1189=UNCERTAINTY_MEASURE_WITH_UNIT(LENGTH_MEASURE(1.760788730927E-2),#1183,
'closure',
'Maximum model space distance between geometric entities at asserted connectivities');
#1190=(GEOMETRIC_REPRESENTATION_CONTEXT(3)GLOBAL_UNCERTAINTY_ASSIGNED_CONTEXT((
#1189))GLOBAL_UNIT_ASSIGNED_CONTEXT((#1183,#1187,#1188))REPRESENTATION_CONTEXT(
'ID1','3'));
#1192=APPLICATION_CONTEXT(
'CONFIGURATION CONTROLLED 3D DESIGNS OF MECHANICAL PARTS AND ASSEMBLIES');
#1193=APPLICATION_PROTOCOL_DEFINITION('international standard',
'config_control_design',1994,#1192);
#1194=DESIGN_CONTEXT('',#1192,'design');
#1195=MECHANICAL_CONTEXT('',#1192,'mechanical');
#1196=PRODUCT('CAR','CAR','NOT SPECIFIED',(#1195));
#1197=PRODUCT_DEFINITION_FORMATION_WITH_SPECIFIED_SOURCE('1','LAST_VERSION',
#1196,.MADE.);
#1201=PRODUCT_CATEGORY('part','');
#1202=PRODUCT_RELATED_PRODUCT_CATEGORY('detail','',(#1196));
#1203=PRODUCT_CATEGORY_RELATIONSHIP('','',#1201,#1202);
#1204=SECURITY_CLASSIFICATION_LEVEL('unclassified');
#1205=SECURITY_CLASSIFICATION('','',#1204);
#1206=CC_DESIGN_SECURITY_CLASSIFICATION(#1205,(#1197));
#1207=APPROVAL_STATUS('approved');
#1208=APPROVAL(#1207,'');
#1209=CC_DESIGN_APPROVAL(#1208,(#1205,#1197,#1198));
#1210=CALENDAR_DATE(126,27,5);
#1211=COORDINATED_UNIVERSAL_TIME_OFFSET(8,0,.AHEAD.);
#1212=LOCAL_TIME(16,58,2.5E1,#1211);
#1213=DATE_AND_TIME(#1210,#1212);
#1214=APPROVAL_DATE_TIME(#1213,#1208);
#1215=DATE_TIME_ROLE('creation_date');
#1216=CC_DESIGN_DATE_AND_TIME_ASSIGNMENT(#1213,#1215,(#1198));
#1217=DATE_TIME_ROLE('classification_date');
#1218=CC_DESIGN_DATE_AND_TIME_ASSIGNMENT(#1213,#1217,(#1205));
#1219=PERSON('UNSPECIFIED','UNSPECIFIED',$,$,$,$);
#1220=ORGANIZATION('UNSPECIFIED','UNSPECIFIED','UNSPECIFIED');
#1221=PERSON_AND_ORGANIZATION(#1219,#1220);
#1222=APPROVAL_ROLE('approver');
#1223=APPROVAL_PERSON_ORGANIZATION(#1221,#1208,#1222);
#1224=PERSON_AND_ORGANIZATION_ROLE('creator');
#1225=CC_DESIGN_PERSON_AND_ORGANIZATION_ASSIGNMENT(#1221,#1224,(#1197,#1198));
#1226=PERSON_AND_ORGANIZATION_ROLE('design_supplier');
#1227=CC_DESIGN_PERSON_AND_ORGANIZATION_ASSIGNMENT(#1221,#1226,(#1197));
#1228=PERSON_AND_ORGANIZATION_ROLE('classification_officer');
#1229=CC_DESIGN_PERSON_AND_ORGANIZATION_ASSIGNMENT(#1221,#1228,(#1205));
#1230=PERSON_AND_ORGANIZATION_ROLE('design_owner');
#1231=CC_DESIGN_PERSON_AND_ORGANIZATION_ASSIGNMENT(#1221,#1230,(#1196));
#5=CIRCLE('',#4,1.75E0);
#18=CIRCLE('',#17,3.E0);
#23=CIRCLE('',#22,3.E0);
#28=CIRCLE('',#27,3.E0);
#33=CIRCLE('',#32,3.E0);
#42=CIRCLE('',#41,4.E0);
#47=CIRCLE('',#46,4.E0);
#68=CIRCLE('',#67,1.75E1);
#81=CIRCLE('',#80,3.E0);
#86=CIRCLE('',#85,3.E0);
#91=CIRCLE('',#90,3.E0);
#96=CIRCLE('',#95,3.E0);
#109=CIRCLE('',#108,1.75E0);
#114=CIRCLE('',#113,1.75E0);
#119=CIRCLE('',#118,1.75E0);
#124=CIRCLE('',#123,1.75E0);
#129=CIRCLE('',#128,4.E0);
#134=CIRCLE('',#133,4.E0);
#143=CIRCLE('',#142,1.75E1);
#152=CIRCLE('',#151,1.75E0);
#157=CIRCLE('',#156,1.75E0);
#170=CIRCLE('',#169,1.75E0);
#207=CIRCLE('',#206,1.75E0);
#212=CIRCLE('',#211,1.75E0);
#217=CIRCLE('',#216,1.75E0);
#222=CIRCLE('',#221,1.75E0);
#227=CIRCLE('',#226,4.E0);
#232=CIRCLE('',#231,4.E0);
#241=CIRCLE('',#240,1.75E1);
#250=CIRCLE('',#249,1.75E0);
#255=CIRCLE('',#254,3.E0);
#260=CIRCLE('',#259,3.E0);
#269=CIRCLE('',#268,4.E0);
#274=CIRCLE('',#273,4.E0);
#291=CIRCLE('',#290,1.75E1);
#304=CIRCLE('',#303,3.E0);
#309=CIRCLE('',#308,3.E0);
#314=CIRCLE('',#313,3.E0);
#319=CIRCLE('',#318,3.E0);
#380=CIRCLE('',#379,3.E0);
#385=CIRCLE('',#384,3.E0);
#390=CIRCLE('',#389,1.75E0);
#403=CIRCLE('',#402,1.75E0);
#408=CIRCLE('',#407,1.75E0);
#562=EDGE_CURVE('',#543,#544,#5,.T.);
#564=EDGE_CURVE('',#544,#459,#9,.T.);
#566=EDGE_CURVE('',#460,#459,#124,.T.);
#568=EDGE_CURVE('',#460,#543,#13,.T.);
#578=EDGE_CURVE('',#535,#536,#18,.T.);
#580=EDGE_CURVE('',#536,#535,#23,.T.);
#584=EDGE_CURVE('',#547,#548,#157,.T.);
#586=EDGE_CURVE('',#548,#547,#152,.T.);
#596=EDGE_CURVE('',#539,#540,#28,.T.);
#598=EDGE_CURVE('',#540,#539,#33,.T.);
#603=EDGE_CURVE('',#544,#543,#170,.T.);
#613=EDGE_CURVE('',#551,#552,#81,.T.);
#615=EDGE_CURVE('',#551,#535,#37,.T.);
#618=EDGE_CURVE('',#552,#536,#420,.T.);
#628=EDGE_CURVE('',#435,#508,#51,.T.);
#630=EDGE_CURVE('',#508,#503,#339,.T.);
#632=EDGE_CURVE('',#503,#440,#55,.T.);
#634=EDGE_CURVE('',#440,#452,#59,.T.);
#636=EDGE_CURVE('',#452,#447,#63,.T.);
#638=EDGE_CURVE('',#447,#448,#68,.T.);
#640=EDGE_CURVE('',#448,#450,#72,.T.);
#642=EDGE_CURVE('',#450,#435,#76,.T.);
#646=EDGE_CURVE('',#431,#432,#42,.T.);
#648=EDGE_CURVE('',#432,#431,#47,.T.);
#653=EDGE_CURVE('',#552,#551,#86,.T.);
#657=EDGE_CURVE('',#555,#556,#91,.T.);
#659=EDGE_CURVE('',#556,#555,#96,.T.);
#669=EDGE_CURVE('',#464,#431,#104,.T.);
#671=EDGE_CURVE('',#463,#464,#129,.T.);
#673=EDGE_CURVE('',#432,#463,#100,.T.);
#685=EDGE_CURVE('',#464,#463,#134,.T.);
#697=EDGE_CURVE('',#472,#467,#138,.T.);
#699=EDGE_CURVE('',#467,#468,#143,.T.);
#701=EDGE_CURVE('',#468,#471,#147,.T.);
#703=EDGE_CURVE('',#471,#472,#198,.T.);
#707=EDGE_CURVE('',#459,#460,#119,.T.);
#716=EDGE_CURVE('',#455,#456,#109,.T.);
#718=EDGE_CURVE('',#456,#455,#114,.T.);
#729=EDGE_CURVE('',#456,#547,#165,.T.);
#732=EDGE_CURVE('',#548,#455,#161,.T.);
#766=EDGE_CURVE('',#467,#448,#182,.T.);
#769=EDGE_CURVE('',#472,#450,#174,.T.);
#780=EDGE_CURVE('',#447,#468,#178,.T.);
#793=EDGE_CURVE('',#452,#471,#186,.T.);
#806=EDGE_CURVE('',#495,#496,#190,.T.);
#808=EDGE_CURVE('',#498,#495,#194,.T.);
#810=EDGE_CURVE('',#436,#498,#282,.T.);
#812=EDGE_CURVE('',#435,#436,#355,.T.);
#819=EDGE_CURVE('',#439,#440,#331,.T.);
#821=EDGE_CURVE('',#500,#439,#299,.T.);
#823=EDGE_CURVE('',#500,#496,#202,.T.);
#833=EDGE_CURVE('',#496,#491,#236,.T.);
#835=EDGE_CURVE('',#491,#492,#241,.T.);
#837=EDGE_CURVE('',#492,#495,#245,.T.);
#842=EDGE_CURVE('',#483,#484,#217,.T.);
#844=EDGE_CURVE('',#484,#483,#222,.T.);
#848=EDGE_CURVE('',#487,#488,#227,.T.);
#850=EDGE_CURVE('',#488,#487,#232,.T.);
#854=EDGE_CURVE('',#479,#480,#207,.T.);
#856=EDGE_CURVE('',#480,#479,#212,.T.);
#866=EDGE_CURVE('',#516,#515,#250,.T.);
#868=EDGE_CURVE('',#480,#515,#416,.T.);
#871=EDGE_CURVE('',#516,#479,#412,.T.);
#881=EDGE_CURVE('',#511,#512,#255,.T.);
#883=EDGE_CURVE('',#512,#511,#260,.T.);
#887=EDGE_CURVE('',#515,#516,#408,.T.);
#898=EDGE_CURVE('',#519,#520,#304,.T.);
#900=EDGE_CURVE('',#519,#511,#264,.T.);
#903=EDGE_CURVE('',#520,#512,#367,.T.);
#913=EDGE_CURVE('',#439,#504,#278,.T.);
#915=EDGE_CURVE('',#504,#506,#347,.T.);
#917=EDGE_CURVE('',#436,#506,#351,.T.);
#920=EDGE_CURVE('',#476,#498,#286,.T.);
#922=EDGE_CURVE('',#475,#476,#291,.T.);
#924=EDGE_CURVE('',#500,#475,#295,.T.);
#929=EDGE_CURVE('',#443,#444,#269,.T.);
#931=EDGE_CURVE('',#444,#443,#274,.T.);
#936=EDGE_CURVE('',#520,#519,#309,.T.);
#940=EDGE_CURVE('',#531,#532,#314,.T.);
#942=EDGE_CURVE('',#532,#531,#319,.T.);
#952=EDGE_CURVE('',#488,#443,#327,.T.);
#955=EDGE_CURVE('',#444,#487,#323,.T.);
#979=EDGE_CURVE('',#503,#504,#335,.T.);
#993=EDGE_CURVE('',#506,#508,#343,.T.);
#1018=EDGE_CURVE('',#476,#492,#359,.T.);
#1032=EDGE_CURVE('',#475,#491,#363,.T.);
#1067=EDGE_CURVE('',#531,#523,#371,.T.);
#1069=EDGE_CURVE('',#523,#524,#380,.T.);
#1071=EDGE_CURVE('',#532,#524,#375,.T.);
#1083=EDGE_CURVE('',#524,#523,#385,.T.);
#1098=EDGE_CURVE('',#527,#528,#390,.T.);
#1100=EDGE_CURVE('',#528,#527,#403,.T.);
#1111=EDGE_CURVE('',#528,#483,#394,.T.);
#1114=EDGE_CURVE('',#484,#527,#398,.T.);
#1161=EDGE_CURVE('',#555,#539,#424,.T.);
#1164=EDGE_CURVE('',#556,#540,#428,.T.);
#1181=CLOSED_SHELL('',(#572,#590,#607,#622,#663,#678,#691,#722,#736,#748,#760,
#774,#787,#800,#827,#860,#875,#892,#907,#946,#960,#972,#985,#998,#1010,#1023,
#1036,#1048,#1060,#1075,#1088,#1104,#1118,#1130,#1142,#1154,#1168,#1180));
#1182=MANIFOLD_SOLID_BREP('',#1181);
#1183=(LENGTH_UNIT()NAMED_UNIT(*)SI_UNIT(.MILLI.,.METRE.));
#1185=(NAMED_UNIT(*)PLANE_ANGLE_UNIT()SI_UNIT($,.RADIAN.));
#1188=(NAMED_UNIT(*)SI_UNIT($,.STERADIAN.)SOLID_ANGLE_UNIT());
#1191=ADVANCED_BREP_SHAPE_REPRESENTATION('',(#1182),#1190);
#1198=PRODUCT_DEFINITION('design','',#1197,#1194);
#1199=PRODUCT_DEFINITION_SHAPE('','SHAPE FOR CAR.',#1198);
#1200=SHAPE_DEFINITION_REPRESENTATION(#1199,#1191);
ENDSEC;
END-ISO-10303-21;
