ISO-10303-21;
HEADER;
FILE_DESCRIPTION((''),'2;1');
FILE_NAME('CARJIACU2','2026-06-22T23:45:05',('13763'),(''),
'CREO PARAMETRIC BY PTC INC, 2025102','CREO PARAMETRIC BY PTC INC, 2025102','');
FILE_SCHEMA(('CONFIG_CONTROL_DESIGN'));
ENDSEC;
DATA;
#1=CARTESIAN_POINT('',(-8.5E0,0.E0,5.E-1));
#2=DIRECTION('',(0.E0,0.E0,1.E0));
#3=DIRECTION('',(1.E0,0.E0,0.E0));
#4=AXIS2_PLACEMENT_3D('',#1,#2,#3);
#6=DIRECTION('',(0.E0,0.E0,1.E0));
#7=VECTOR('',#6,3.5E0);
#8=CARTESIAN_POINT('',(-1.15E1,0.E0,5.E-1));
#9=LINE('',#8,#7);
#10=CARTESIAN_POINT('',(8.5E0,0.E0,5.E-1));
#11=DIRECTION('',(0.E0,0.E0,1.E0));
#12=DIRECTION('',(-1.E0,0.E0,0.E0));
#13=AXIS2_PLACEMENT_3D('',#10,#11,#12);
#15=CARTESIAN_POINT('',(8.5E0,0.E0,5.E-1));
#16=DIRECTION('',(0.E0,0.E0,1.E0));
#17=DIRECTION('',(1.E0,0.E0,0.E0));
#18=AXIS2_PLACEMENT_3D('',#15,#16,#17);
#20=CARTESIAN_POINT('',(-8.5E0,0.E0,5.E-1));
#21=DIRECTION('',(0.E0,0.E0,1.E0));
#22=DIRECTION('',(-1.E0,0.E0,0.E0));
#23=AXIS2_PLACEMENT_3D('',#20,#21,#22);
#25=CARTESIAN_POINT('',(-8.5E0,0.E0,5.E-1));
#26=DIRECTION('',(0.E0,0.E0,1.E0));
#27=DIRECTION('',(1.E0,0.E0,0.E0));
#28=AXIS2_PLACEMENT_3D('',#25,#26,#27);
#30=DIRECTION('',(0.E0,0.E0,1.E0));
#31=VECTOR('',#30,1.5E0);
#32=CARTESIAN_POINT('',(6.75E0,0.E0,-1.E0));
#33=LINE('',#32,#31);
#34=CARTESIAN_POINT('',(8.5E0,0.E0,-1.E0));
#35=DIRECTION('',(0.E0,0.E0,1.E0));
#36=DIRECTION('',(-1.E0,0.E0,0.E0));
#37=AXIS2_PLACEMENT_3D('',#34,#35,#36);
#39=CARTESIAN_POINT('',(8.5E0,0.E0,-1.E0));
#40=DIRECTION('',(0.E0,0.E0,1.E0));
#41=DIRECTION('',(1.E0,0.E0,0.E0));
#42=AXIS2_PLACEMENT_3D('',#39,#40,#41);
#44=CARTESIAN_POINT('',(-8.5E0,0.E0,-1.E0));
#45=DIRECTION('',(0.E0,0.E0,1.E0));
#46=DIRECTION('',(-1.E0,0.E0,0.E0));
#47=AXIS2_PLACEMENT_3D('',#44,#45,#46);
#49=CARTESIAN_POINT('',(-8.5E0,0.E0,-1.E0));
#50=DIRECTION('',(0.E0,0.E0,1.E0));
#51=DIRECTION('',(1.E0,0.E0,0.E0));
#52=AXIS2_PLACEMENT_3D('',#49,#50,#51);
#54=DIRECTION('',(-1.E0,0.E0,0.E0));
#55=VECTOR('',#54,3.5E1);
#56=CARTESIAN_POINT('',(1.75E1,-2.05E1,-1.E0));
#57=LINE('',#56,#55);
#58=DIRECTION('',(0.E0,0.E0,1.E0));
#59=VECTOR('',#58,1.5E0);
#60=CARTESIAN_POINT('',(1.025E1,0.E0,-1.E0));
#61=LINE('',#60,#59);
#62=DIRECTION('',(0.E0,0.E0,1.E0));
#63=VECTOR('',#62,1.5E0);
#64=CARTESIAN_POINT('',(-1.025E1,0.E0,-1.E0));
#65=LINE('',#64,#63);
#66=DIRECTION('',(0.E0,0.E0,1.E0));
#67=VECTOR('',#66,1.5E0);
#68=CARTESIAN_POINT('',(-6.75E0,0.E0,-1.E0));
#69=LINE('',#68,#67);
#70=DIRECTION('',(0.E0,0.E0,-1.E0));
#71=VECTOR('',#70,5.E0);
#72=CARTESIAN_POINT('',(-4.E0,0.E0,4.E0));
#73=LINE('',#72,#71);
#74=CARTESIAN_POINT('',(0.E0,0.E0,-1.E0));
#75=DIRECTION('',(0.E0,0.E0,1.E0));
#76=DIRECTION('',(-1.E0,0.E0,0.E0));
#77=AXIS2_PLACEMENT_3D('',#74,#75,#76);
#79=DIRECTION('',(0.E0,0.E0,1.E0));
#80=VECTOR('',#79,5.E0);
#81=CARTESIAN_POINT('',(4.E0,0.E0,-1.E0));
#82=LINE('',#81,#80);
#83=CARTESIAN_POINT('',(0.E0,0.E0,-1.E0));
#84=DIRECTION('',(0.E0,0.E0,1.E0));
#85=DIRECTION('',(1.E0,0.E0,0.E0));
#86=AXIS2_PLACEMENT_3D('',#83,#84,#85);
#88=CARTESIAN_POINT('',(0.E0,0.E0,4.E0));
#89=DIRECTION('',(0.E0,0.E0,-1.E0));
#90=DIRECTION('',(-1.E0,0.E0,0.E0));
#91=AXIS2_PLACEMENT_3D('',#88,#89,#90);
#93=CARTESIAN_POINT('',(0.E0,0.E0,4.E0));
#94=DIRECTION('',(0.E0,0.E0,1.E0));
#95=DIRECTION('',(-1.E0,0.E0,0.E0));
#96=AXIS2_PLACEMENT_3D('',#93,#94,#95);
#98=CARTESIAN_POINT('',(0.E0,0.E0,4.E0));
#99=DIRECTION('',(0.E0,0.E0,1.E0));
#100=DIRECTION('',(1.E0,0.E0,0.E0));
#101=AXIS2_PLACEMENT_3D('',#98,#99,#100);
#103=CARTESIAN_POINT('',(-8.5E0,0.E0,4.E0));
#104=DIRECTION('',(0.E0,0.E0,1.E0));
#105=DIRECTION('',(1.E0,0.E0,0.E0));
#106=AXIS2_PLACEMENT_3D('',#103,#104,#105);
#108=CARTESIAN_POINT('',(-8.5E0,0.E0,4.E0));
#109=DIRECTION('',(0.E0,0.E0,1.E0));
#110=DIRECTION('',(-1.E0,0.E0,0.E0));
#111=AXIS2_PLACEMENT_3D('',#108,#109,#110);
#113=CARTESIAN_POINT('',(8.5E0,0.E0,4.E0));
#114=DIRECTION('',(0.E0,0.E0,1.E0));
#115=DIRECTION('',(1.E0,0.E0,0.E0));
#116=AXIS2_PLACEMENT_3D('',#113,#114,#115);
#118=CARTESIAN_POINT('',(8.5E0,0.E0,4.E0));
#119=DIRECTION('',(0.E0,0.E0,1.E0));
#120=DIRECTION('',(-1.E0,0.E0,0.E0));
#121=AXIS2_PLACEMENT_3D('',#118,#119,#120);
#123=DIRECTION('',(0.E0,1.E0,0.E0));
#124=VECTOR('',#123,7.E0);
#125=CARTESIAN_POINT('',(5.E1,-2.75E1,4.E0));
#126=LINE('',#125,#124);
#127=DIRECTION('',(0.E0,1.E0,0.E0));
#128=VECTOR('',#127,7.E0);
#129=CARTESIAN_POINT('',(5.E1,-2.75E1,-1.36E2));
#130=LINE('',#129,#128);
#131=DIRECTION('',(0.E0,1.E0,0.E0));
#132=VECTOR('',#131,2.05E1);
#133=CARTESIAN_POINT('',(1.75E1,-2.05E1,-1.36E2));
#134=LINE('',#133,#132);
#135=CARTESIAN_POINT('',(0.E0,0.E0,-1.36E2));
#136=DIRECTION('',(0.E0,0.E0,1.E0));
#137=DIRECTION('',(1.E0,0.E0,0.E0));
#138=AXIS2_PLACEMENT_3D('',#135,#136,#137);
#140=DIRECTION('',(0.E0,-1.E0,0.E0));
#141=VECTOR('',#140,2.05E1);
#142=CARTESIAN_POINT('',(-1.75E1,0.E0,-1.36E2));
#143=LINE('',#142,#141);
#144=CARTESIAN_POINT('',(0.E0,0.E0,-1.36E2));
#145=DIRECTION('',(0.E0,0.E0,-1.E0));
#146=DIRECTION('',(1.E0,0.E0,0.E0));
#147=AXIS2_PLACEMENT_3D('',#144,#145,#146);
#149=CARTESIAN_POINT('',(0.E0,0.E0,-1.36E2));
#150=DIRECTION('',(0.E0,0.E0,-1.E0));
#151=DIRECTION('',(-1.E0,0.E0,0.E0));
#152=AXIS2_PLACEMENT_3D('',#149,#150,#151);
#154=CARTESIAN_POINT('',(8.5E0,0.E0,-1.36E2));
#155=DIRECTION('',(0.E0,0.E0,-1.E0));
#156=DIRECTION('',(-1.E0,0.E0,0.E0));
#157=AXIS2_PLACEMENT_3D('',#154,#155,#156);
#159=CARTESIAN_POINT('',(8.5E0,0.E0,-1.36E2));
#160=DIRECTION('',(0.E0,0.E0,-1.E0));
#161=DIRECTION('',(1.E0,0.E0,0.E0));
#162=AXIS2_PLACEMENT_3D('',#159,#160,#161);
#164=CARTESIAN_POINT('',(-8.5E0,0.E0,-1.36E2));
#165=DIRECTION('',(0.E0,0.E0,-1.E0));
#166=DIRECTION('',(-1.E0,0.E0,0.E0));
#167=AXIS2_PLACEMENT_3D('',#164,#165,#166);
#169=CARTESIAN_POINT('',(-8.5E0,0.E0,-1.36E2));
#170=DIRECTION('',(0.E0,0.E0,-1.E0));
#171=DIRECTION('',(1.E0,0.E0,0.E0));
#172=AXIS2_PLACEMENT_3D('',#169,#170,#171);
#174=DIRECTION('',(0.E0,-1.E0,0.E0));
#175=VECTOR('',#174,7.E0);
#176=CARTESIAN_POINT('',(-5.E1,-2.05E1,4.E0));
#177=LINE('',#176,#175);
#178=DIRECTION('',(0.E0,1.E0,0.E0));
#179=VECTOR('',#178,7.E0);
#180=CARTESIAN_POINT('',(-5.E1,-2.75E1,-1.36E2));
#181=LINE('',#180,#179);
#182=DIRECTION('',(0.E0,0.E0,1.E0));
#183=VECTOR('',#182,1.4E2);
#184=CARTESIAN_POINT('',(-5.E1,-2.75E1,-1.36E2));
#185=LINE('',#184,#183);
#186=DIRECTION('',(1.E0,0.E0,0.E0));
#187=VECTOR('',#186,1.E2);
#188=CARTESIAN_POINT('',(-5.E1,-2.75E1,4.E0));
#189=LINE('',#188,#187);
#190=DIRECTION('',(0.E0,0.E0,-1.E0));
#191=VECTOR('',#190,1.4E2);
#192=CARTESIAN_POINT('',(5.E1,-2.75E1,4.E0));
#193=LINE('',#192,#191);
#194=DIRECTION('',(-1.E0,0.E0,0.E0));
#195=VECTOR('',#194,1.E2);
#196=CARTESIAN_POINT('',(5.E1,-2.75E1,-1.36E2));
#197=LINE('',#196,#195);
#198=DIRECTION('',(0.E0,0.E0,-1.E0));
#199=VECTOR('',#198,5.E0);
#200=CARTESIAN_POINT('',(1.75E1,-2.05E1,-1.31E2));
#201=LINE('',#200,#199);
#202=DIRECTION('',(1.E0,0.E0,0.E0));
#203=VECTOR('',#202,3.25E1);
#204=CARTESIAN_POINT('',(1.75E1,-2.05E1,-1.36E2));
#205=LINE('',#204,#203);
#206=DIRECTION('',(0.E0,0.E0,1.E0));
#207=VECTOR('',#206,1.4E2);
#208=CARTESIAN_POINT('',(5.E1,-2.05E1,-1.36E2));
#209=LINE('',#208,#207);
#210=DIRECTION('',(-1.E0,0.E0,0.E0));
#211=VECTOR('',#210,3.25E1);
#212=CARTESIAN_POINT('',(5.E1,-2.05E1,4.E0));
#213=LINE('',#212,#211);
#214=DIRECTION('',(0.E0,0.E0,-1.E0));
#215=VECTOR('',#214,5.E0);
#216=CARTESIAN_POINT('',(1.75E1,-2.05E1,4.E0));
#217=LINE('',#216,#215);
#218=DIRECTION('',(0.E0,0.E0,1.E0));
#219=VECTOR('',#218,5.E0);
#220=CARTESIAN_POINT('',(-1.75E1,-2.05E1,-1.E0));
#221=LINE('',#220,#219);
#222=DIRECTION('',(-1.E0,0.E0,0.E0));
#223=VECTOR('',#222,3.25E1);
#224=CARTESIAN_POINT('',(-1.75E1,-2.05E1,4.E0));
#225=LINE('',#224,#223);
#226=DIRECTION('',(0.E0,0.E0,-1.E0));
#227=VECTOR('',#226,1.4E2);
#228=CARTESIAN_POINT('',(-5.E1,-2.05E1,4.E0));
#229=LINE('',#228,#227);
#230=DIRECTION('',(1.E0,0.E0,0.E0));
#231=VECTOR('',#230,3.25E1);
#232=CARTESIAN_POINT('',(-5.E1,-2.05E1,-1.36E2));
#233=LINE('',#232,#231);
#234=DIRECTION('',(0.E0,1.E0,0.E0));
#235=VECTOR('',#234,2.05E1);
#236=CARTESIAN_POINT('',(-1.75E1,-2.05E1,-1.31E2));
#237=LINE('',#236,#235);
#238=DIRECTION('',(0.E0,0.E0,-1.E0));
#239=VECTOR('',#238,5.E0);
#240=CARTESIAN_POINT('',(-1.75E1,-2.05E1,-1.31E2));
#241=LINE('',#240,#239);
#242=CARTESIAN_POINT('',(-8.5E0,0.E0,-1.31E2));
#243=DIRECTION('',(0.E0,0.E0,1.E0));
#244=DIRECTION('',(-1.E0,0.E0,0.E0));
#245=AXIS2_PLACEMENT_3D('',#242,#243,#244);
#247=CARTESIAN_POINT('',(-8.5E0,0.E0,-1.31E2));
#248=DIRECTION('',(0.E0,0.E0,1.E0));
#249=DIRECTION('',(1.E0,0.E0,0.E0));
#250=AXIS2_PLACEMENT_3D('',#247,#248,#249);
#252=CARTESIAN_POINT('',(8.5E0,0.E0,-1.31E2));
#253=DIRECTION('',(0.E0,0.E0,1.E0));
#254=DIRECTION('',(-1.E0,0.E0,0.E0));
#255=AXIS2_PLACEMENT_3D('',#252,#253,#254);
#257=CARTESIAN_POINT('',(8.5E0,0.E0,-1.31E2));
#258=DIRECTION('',(0.E0,0.E0,1.E0));
#259=DIRECTION('',(1.E0,0.E0,0.E0));
#260=AXIS2_PLACEMENT_3D('',#257,#258,#259);
#262=DIRECTION('',(-1.E0,0.E0,0.E0));
#263=VECTOR('',#262,3.5E1);
#264=CARTESIAN_POINT('',(1.75E1,-2.05E1,-1.31E2));
#265=LINE('',#264,#263);
#266=DIRECTION('',(0.E0,0.E0,-1.E0));
#267=VECTOR('',#266,1.5E0);
#268=CARTESIAN_POINT('',(-1.025E1,0.E0,-1.31E2));
#269=LINE('',#268,#267);
#270=DIRECTION('',(0.E0,0.E0,-1.E0));
#271=VECTOR('',#270,1.5E0);
#272=CARTESIAN_POINT('',(-6.75E0,0.E0,-1.31E2));
#273=LINE('',#272,#271);
#274=CARTESIAN_POINT('',(8.5E0,0.E0,-1.325E2));
#275=DIRECTION('',(0.E0,0.E0,1.E0));
#276=DIRECTION('',(-1.E0,0.E0,0.E0));
#277=AXIS2_PLACEMENT_3D('',#274,#275,#276);
#279=CARTESIAN_POINT('',(8.5E0,0.E0,-1.325E2));
#280=DIRECTION('',(0.E0,0.E0,1.E0));
#281=DIRECTION('',(1.E0,0.E0,0.E0));
#282=AXIS2_PLACEMENT_3D('',#279,#280,#281);
#284=CARTESIAN_POINT('',(-8.5E0,0.E0,-1.325E2));
#285=DIRECTION('',(0.E0,0.E0,1.E0));
#286=DIRECTION('',(-1.E0,0.E0,0.E0));
#287=AXIS2_PLACEMENT_3D('',#284,#285,#286);
#289=CARTESIAN_POINT('',(-8.5E0,0.E0,-1.325E2));
#290=DIRECTION('',(0.E0,0.E0,1.E0));
#291=DIRECTION('',(1.E0,0.E0,0.E0));
#292=AXIS2_PLACEMENT_3D('',#289,#290,#291);
#294=DIRECTION('',(0.E0,0.E0,-1.E0));
#295=VECTOR('',#294,1.5E0);
#296=CARTESIAN_POINT('',(6.75E0,0.E0,-1.31E2));
#297=LINE('',#296,#295);
#298=DIRECTION('',(0.E0,0.E0,-1.E0));
#299=VECTOR('',#298,1.5E0);
#300=CARTESIAN_POINT('',(1.025E1,0.E0,-1.31E2));
#301=LINE('',#300,#299);
#302=CARTESIAN_POINT('',(8.5E0,0.E0,-1.325E2));
#303=DIRECTION('',(0.E0,0.E0,-1.E0));
#304=DIRECTION('',(-1.E0,0.E0,0.E0));
#305=AXIS2_PLACEMENT_3D('',#302,#303,#304);
#307=DIRECTION('',(0.E0,0.E0,-1.E0));
#308=VECTOR('',#307,3.5E0);
#309=CARTESIAN_POINT('',(1.15E1,0.E0,-1.325E2));
#310=LINE('',#309,#308);
#311=CARTESIAN_POINT('',(8.5E0,0.E0,-1.325E2));
#312=DIRECTION('',(0.E0,0.E0,-1.E0));
#313=DIRECTION('',(1.E0,0.E0,0.E0));
#314=AXIS2_PLACEMENT_3D('',#311,#312,#313);
#316=DIRECTION('',(0.E0,0.E0,-1.E0));
#317=VECTOR('',#316,3.5E0);
#318=CARTESIAN_POINT('',(5.5E0,0.E0,-1.325E2));
#319=LINE('',#318,#317);
#320=CARTESIAN_POINT('',(-8.5E0,0.E0,-1.325E2));
#321=DIRECTION('',(0.E0,0.E0,-1.E0));
#322=DIRECTION('',(-1.E0,0.E0,0.E0));
#323=AXIS2_PLACEMENT_3D('',#320,#321,#322);
#325=DIRECTION('',(0.E0,0.E0,-1.E0));
#326=VECTOR('',#325,3.5E0);
#327=CARTESIAN_POINT('',(-5.5E0,0.E0,-1.325E2));
#328=LINE('',#327,#326);
#329=CARTESIAN_POINT('',(-8.5E0,0.E0,-1.325E2));
#330=DIRECTION('',(0.E0,0.E0,-1.E0));
#331=DIRECTION('',(1.E0,0.E0,0.E0));
#332=AXIS2_PLACEMENT_3D('',#329,#330,#331);
#334=DIRECTION('',(0.E0,0.E0,-1.E0));
#335=VECTOR('',#334,3.5E0);
#336=CARTESIAN_POINT('',(-1.15E1,0.E0,-1.325E2));
#337=LINE('',#336,#335);
#338=CARTESIAN_POINT('',(0.E0,0.E0,-1.31E2));
#339=DIRECTION('',(0.E0,0.E0,-1.E0));
#340=DIRECTION('',(-1.E0,0.E0,0.E0));
#341=AXIS2_PLACEMENT_3D('',#338,#339,#340);
#343=DIRECTION('',(0.E0,0.E0,-1.E0));
#344=VECTOR('',#343,5.E0);
#345=CARTESIAN_POINT('',(-1.75E1,0.E0,-1.31E2));
#346=LINE('',#345,#344);
#347=DIRECTION('',(0.E0,0.E0,1.E0));
#348=VECTOR('',#347,5.E0);
#349=CARTESIAN_POINT('',(1.75E1,0.E0,-1.36E2));
#350=LINE('',#349,#348);
#351=DIRECTION('',(0.E0,-1.E0,0.E0));
#352=VECTOR('',#351,2.05E1);
#353=CARTESIAN_POINT('',(1.75E1,0.E0,-1.31E2));
#354=LINE('',#353,#352);
#355=CARTESIAN_POINT('',(0.E0,0.E0,-1.31E2));
#356=DIRECTION('',(0.E0,0.E0,1.E0));
#357=DIRECTION('',(-1.E0,0.E0,0.E0));
#358=AXIS2_PLACEMENT_3D('',#355,#356,#357);
#360=DIRECTION('',(0.E0,0.E0,-1.E0));
#361=VECTOR('',#360,5.E0);
#362=CARTESIAN_POINT('',(-4.E0,0.E0,-1.31E2));
#363=LINE('',#362,#361);
#364=DIRECTION('',(0.E0,0.E0,1.E0));
#365=VECTOR('',#364,5.E0);
#366=CARTESIAN_POINT('',(4.E0,0.E0,-1.36E2));
#367=LINE('',#366,#365);
#368=CARTESIAN_POINT('',(0.E0,0.E0,-1.31E2));
#369=DIRECTION('',(0.E0,0.E0,1.E0));
#370=DIRECTION('',(1.E0,0.E0,0.E0));
#371=AXIS2_PLACEMENT_3D('',#368,#369,#370);
#373=DIRECTION('',(0.E0,-1.E0,0.E0));
#374=VECTOR('',#373,2.05E1);
#375=CARTESIAN_POINT('',(1.75E1,0.E0,-1.E0));
#376=LINE('',#375,#374);
#377=DIRECTION('',(0.E0,1.E0,0.E0));
#378=VECTOR('',#377,2.05E1);
#379=CARTESIAN_POINT('',(1.75E1,-2.05E1,4.E0));
#380=LINE('',#379,#378);
#381=DIRECTION('',(0.E0,0.E0,1.E0));
#382=VECTOR('',#381,5.E0);
#383=CARTESIAN_POINT('',(1.75E1,0.E0,-1.E0));
#384=LINE('',#383,#382);
#385=DIRECTION('',(0.E0,0.E0,-1.E0));
#386=VECTOR('',#385,5.E0);
#387=CARTESIAN_POINT('',(-1.75E1,0.E0,4.E0));
#388=LINE('',#387,#386);
#389=CARTESIAN_POINT('',(0.E0,0.E0,-1.E0));
#390=DIRECTION('',(0.E0,0.E0,-1.E0));
#391=DIRECTION('',(-1.E0,0.E0,0.E0));
#392=AXIS2_PLACEMENT_3D('',#389,#390,#391);
#394=DIRECTION('',(0.E0,-1.E0,0.E0));
#395=VECTOR('',#394,2.05E1);
#396=CARTESIAN_POINT('',(-1.75E1,0.E0,4.E0));
#397=LINE('',#396,#395);
#398=DIRECTION('',(0.E0,1.E0,0.E0));
#399=VECTOR('',#398,2.05E1);
#400=CARTESIAN_POINT('',(-1.75E1,-2.05E1,-1.E0));
#401=LINE('',#400,#399);
#402=CARTESIAN_POINT('',(-8.5E0,0.E0,5.E-1));
#403=DIRECTION('',(0.E0,0.E0,1.E0));
#404=DIRECTION('',(-1.E0,0.E0,0.E0));
#405=AXIS2_PLACEMENT_3D('',#402,#403,#404);
#407=DIRECTION('',(0.E0,0.E0,1.E0));
#408=VECTOR('',#407,3.5E0);
#409=CARTESIAN_POINT('',(-5.5E0,0.E0,5.E-1));
#410=LINE('',#409,#408);
#411=CARTESIAN_POINT('',(8.5E0,0.E0,5.E-1));
#412=DIRECTION('',(0.E0,0.E0,1.E0));
#413=DIRECTION('',(1.E0,0.E0,0.E0));
#414=AXIS2_PLACEMENT_3D('',#411,#412,#413);
#416=DIRECTION('',(0.E0,0.E0,1.E0));
#417=VECTOR('',#416,3.5E0);
#418=CARTESIAN_POINT('',(5.5E0,0.E0,5.E-1));
#419=LINE('',#418,#417);
#420=CARTESIAN_POINT('',(8.5E0,0.E0,5.E-1));
#421=DIRECTION('',(0.E0,0.E0,1.E0));
#422=DIRECTION('',(-1.E0,0.E0,0.E0));
#423=AXIS2_PLACEMENT_3D('',#420,#421,#422);
#425=DIRECTION('',(0.E0,0.E0,1.E0));
#426=VECTOR('',#425,3.5E0);
#427=CARTESIAN_POINT('',(1.15E1,0.E0,5.E-1));
#428=LINE('',#427,#426);
#429=CARTESIAN_POINT('',(-5.5E0,0.E0,4.E0));
#430=CARTESIAN_POINT('',(-1.15E1,0.E0,4.E0));
#431=VERTEX_POINT('',#429);
#432=VERTEX_POINT('',#430);
#433=CARTESIAN_POINT('',(5.E1,-2.75E1,4.E0));
#434=CARTESIAN_POINT('',(5.E1,-2.05E1,4.E0));
#435=VERTEX_POINT('',#433);
#436=VERTEX_POINT('',#434);
#437=CARTESIAN_POINT('',(-5.E1,-2.75E1,4.E0));
#438=VERTEX_POINT('',#437);
#439=CARTESIAN_POINT('',(-5.E1,-2.05E1,4.E0));
#440=VERTEX_POINT('',#439);
#441=CARTESIAN_POINT('',(-1.75E1,-2.05E1,4.E0));
#442=VERTEX_POINT('',#441);
#443=CARTESIAN_POINT('',(-1.75E1,0.E0,4.E0));
#444=VERTEX_POINT('',#443);
#445=CARTESIAN_POINT('',(1.75E1,0.E0,4.E0));
#446=VERTEX_POINT('',#445);
#447=CARTESIAN_POINT('',(1.75E1,-2.05E1,4.E0));
#448=VERTEX_POINT('',#447);
#449=CARTESIAN_POINT('',(-4.E0,0.E0,4.E0));
#450=CARTESIAN_POINT('',(4.E0,0.E0,4.E0));
#451=VERTEX_POINT('',#449);
#452=VERTEX_POINT('',#450);
#453=CARTESIAN_POINT('',(1.15E1,0.E0,4.E0));
#454=CARTESIAN_POINT('',(5.5E0,0.E0,4.E0));
#455=VERTEX_POINT('',#453);
#456=VERTEX_POINT('',#454);
#457=CARTESIAN_POINT('',(1.75E1,-2.05E1,-1.36E2));
#458=CARTESIAN_POINT('',(5.E1,-2.05E1,-1.36E2));
#459=VERTEX_POINT('',#457);
#460=VERTEX_POINT('',#458);
#461=CARTESIAN_POINT('',(-5.E1,-2.05E1,-1.36E2));
#462=VERTEX_POINT('',#461);
#463=CARTESIAN_POINT('',(-1.75E1,-2.05E1,-1.36E2));
#464=VERTEX_POINT('',#463);
#465=CARTESIAN_POINT('',(5.5E0,0.E0,-1.36E2));
#466=CARTESIAN_POINT('',(1.15E1,0.E0,-1.36E2));
#467=VERTEX_POINT('',#465);
#468=VERTEX_POINT('',#466);
#469=CARTESIAN_POINT('',(-5.E1,-2.75E1,-1.36E2));
#470=VERTEX_POINT('',#469);
#471=CARTESIAN_POINT('',(5.E1,-2.75E1,-1.36E2));
#472=VERTEX_POINT('',#471);
#473=CARTESIAN_POINT('',(1.75E1,0.E0,-1.36E2));
#474=VERTEX_POINT('',#473);
#475=CARTESIAN_POINT('',(-1.75E1,0.E0,-1.36E2));
#476=VERTEX_POINT('',#475);
#477=CARTESIAN_POINT('',(4.E0,0.E0,-1.36E2));
#478=CARTESIAN_POINT('',(-4.E0,0.E0,-1.36E2));
#479=VERTEX_POINT('',#477);
#480=VERTEX_POINT('',#478);
#481=CARTESIAN_POINT('',(-1.15E1,0.E0,-1.36E2));
#482=CARTESIAN_POINT('',(-5.5E0,0.E0,-1.36E2));
#483=VERTEX_POINT('',#481);
#484=VERTEX_POINT('',#482);
#485=CARTESIAN_POINT('',(-4.E0,0.E0,-1.E0));
#486=VERTEX_POINT('',#485);
#487=CARTESIAN_POINT('',(4.E0,0.E0,-1.E0));
#488=VERTEX_POINT('',#487);
#489=CARTESIAN_POINT('',(1.75E1,0.E0,-1.E0));
#490=VERTEX_POINT('',#489);
#491=CARTESIAN_POINT('',(1.75E1,-2.05E1,-1.E0));
#492=VERTEX_POINT('',#491);
#493=CARTESIAN_POINT('',(-1.75E1,0.E0,-1.E0));
#494=VERTEX_POINT('',#493);
#495=CARTESIAN_POINT('',(-1.75E1,-2.05E1,-1.E0));
#496=VERTEX_POINT('',#495);
#497=CARTESIAN_POINT('',(6.75E0,0.E0,-1.E0));
#498=CARTESIAN_POINT('',(1.025E1,0.E0,-1.E0));
#499=VERTEX_POINT('',#497);
#500=VERTEX_POINT('',#498);
#501=CARTESIAN_POINT('',(-1.025E1,0.E0,-1.E0));
#502=CARTESIAN_POINT('',(-6.75E0,0.E0,-1.E0));
#503=VERTEX_POINT('',#501);
#504=VERTEX_POINT('',#502);
#505=CARTESIAN_POINT('',(6.75E0,0.E0,5.E-1));
#506=CARTESIAN_POINT('',(1.025E1,0.E0,5.E-1));
#507=VERTEX_POINT('',#505);
#508=VERTEX_POINT('',#506);
#509=CARTESIAN_POINT('',(-1.025E1,0.E0,5.E-1));
#510=CARTESIAN_POINT('',(-6.75E0,0.E0,5.E-1));
#511=VERTEX_POINT('',#509);
#512=VERTEX_POINT('',#510);
#513=CARTESIAN_POINT('',(-5.5E0,0.E0,5.E-1));
#514=CARTESIAN_POINT('',(-1.15E1,0.E0,5.E-1));
#515=VERTEX_POINT('',#513);
#516=VERTEX_POINT('',#514);
#517=CARTESIAN_POINT('',(1.15E1,0.E0,5.E-1));
#518=CARTESIAN_POINT('',(5.5E0,0.E0,5.E-1));
#519=VERTEX_POINT('',#517);
#520=VERTEX_POINT('',#518);
#521=CARTESIAN_POINT('',(1.75E1,-2.05E1,-1.31E2));
#522=CARTESIAN_POINT('',(-1.75E1,-2.05E1,-1.31E2));
#523=VERTEX_POINT('',#521);
#524=VERTEX_POINT('',#522);
#525=CARTESIAN_POINT('',(6.75E0,0.E0,-1.31E2));
#526=CARTESIAN_POINT('',(1.025E1,0.E0,-1.31E2));
#527=VERTEX_POINT('',#525);
#528=VERTEX_POINT('',#526);
#529=CARTESIAN_POINT('',(-1.025E1,0.E0,-1.31E2));
#530=CARTESIAN_POINT('',(-6.75E0,0.E0,-1.31E2));
#531=VERTEX_POINT('',#529);
#532=VERTEX_POINT('',#530);
#533=CARTESIAN_POINT('',(6.75E0,0.E0,-1.325E2));
#534=CARTESIAN_POINT('',(1.025E1,0.E0,-1.325E2));
#535=VERTEX_POINT('',#533);
#536=VERTEX_POINT('',#534);
#537=CARTESIAN_POINT('',(-1.025E1,0.E0,-1.325E2));
#538=CARTESIAN_POINT('',(-6.75E0,0.E0,-1.325E2));
#539=VERTEX_POINT('',#537);
#540=VERTEX_POINT('',#538);
#541=CARTESIAN_POINT('',(-4.E0,0.E0,-1.31E2));
#542=CARTESIAN_POINT('',(4.E0,0.E0,-1.31E2));
#543=VERTEX_POINT('',#541);
#544=VERTEX_POINT('',#542);
#545=CARTESIAN_POINT('',(1.75E1,0.E0,-1.31E2));
#546=VERTEX_POINT('',#545);
#547=CARTESIAN_POINT('',(-1.75E1,0.E0,-1.31E2));
#548=VERTEX_POINT('',#547);
#549=CARTESIAN_POINT('',(5.5E0,0.E0,-1.325E2));
#550=CARTESIAN_POINT('',(1.15E1,0.E0,-1.325E2));
#551=VERTEX_POINT('',#549);
#552=VERTEX_POINT('',#550);
#553=CARTESIAN_POINT('',(-1.15E1,0.E0,-1.325E2));
#554=CARTESIAN_POINT('',(-5.5E0,0.E0,-1.325E2));
#555=VERTEX_POINT('',#553);
#556=VERTEX_POINT('',#554);
#557=CARTESIAN_POINT('',(-8.5E0,0.E0,4.E0));
#558=DIRECTION('',(0.E0,0.E0,1.E0));
#559=DIRECTION('',(1.E0,0.E0,0.E0));
#560=AXIS2_PLACEMENT_3D('',#557,#558,#559);
#561=CYLINDRICAL_SURFACE('',#560,3.E0);
#563=ORIENTED_EDGE('',*,*,#562,.T.);
#565=ORIENTED_EDGE('',*,*,#564,.T.);
#567=ORIENTED_EDGE('',*,*,#566,.F.);
#569=ORIENTED_EDGE('',*,*,#568,.F.);
#570=EDGE_LOOP('',(#563,#565,#567,#569));
#571=FACE_OUTER_BOUND('',#570,.F.);
#572=ADVANCED_FACE('',(#571),#561,.F.);
#573=CARTESIAN_POINT('',(0.E0,0.E0,5.E-1));
#574=DIRECTION('',(0.E0,0.E0,-1.E0));
#575=DIRECTION('',(-1.E0,0.E0,0.E0));
#576=AXIS2_PLACEMENT_3D('',#573,#574,#575);
#577=PLANE('',#576);
#578=ORIENTED_EDGE('',*,*,#562,.F.);
#580=ORIENTED_EDGE('',*,*,#579,.F.);
#581=EDGE_LOOP('',(#578,#580));
#582=FACE_OUTER_BOUND('',#581,.F.);
#584=ORIENTED_EDGE('',*,*,#583,.T.);
#586=ORIENTED_EDGE('',*,*,#585,.T.);
#587=EDGE_LOOP('',(#584,#586));
#588=FACE_BOUND('',#587,.F.);
#589=ADVANCED_FACE('',(#582,#588),#577,.F.);
#590=CARTESIAN_POINT('',(0.E0,0.E0,5.E-1));
#591=DIRECTION('',(0.E0,0.E0,-1.E0));
#592=DIRECTION('',(-1.E0,0.E0,0.E0));
#593=AXIS2_PLACEMENT_3D('',#590,#591,#592);
#594=PLANE('',#593);
#596=ORIENTED_EDGE('',*,*,#595,.F.);
#598=ORIENTED_EDGE('',*,*,#597,.F.);
#599=EDGE_LOOP('',(#596,#598));
#600=FACE_OUTER_BOUND('',#599,.F.);
#602=ORIENTED_EDGE('',*,*,#601,.T.);
#604=ORIENTED_EDGE('',*,*,#603,.T.);
#605=EDGE_LOOP('',(#602,#604));
#606=FACE_BOUND('',#605,.F.);
#607=ADVANCED_FACE('',(#600,#606),#594,.F.);
#608=CARTESIAN_POINT('',(8.5E0,0.E0,-1.E0));
#609=DIRECTION('',(0.E0,0.E0,-1.E0));
#610=DIRECTION('',(-1.E0,0.E0,0.E0));
#611=AXIS2_PLACEMENT_3D('',#608,#609,#610);
#612=CYLINDRICAL_SURFACE('',#611,1.75E0);
#614=ORIENTED_EDGE('',*,*,#613,.T.);
#616=ORIENTED_EDGE('',*,*,#615,.T.);
#617=ORIENTED_EDGE('',*,*,#601,.F.);
#619=ORIENTED_EDGE('',*,*,#618,.F.);
#620=EDGE_LOOP('',(#614,#616,#617,#619));
#621=FACE_OUTER_BOUND('',#620,.F.);
#622=ADVANCED_FACE('',(#621),#612,.F.);
#623=CARTESIAN_POINT('',(0.E0,0.E0,-1.E0));
#624=DIRECTION('',(0.E0,0.E0,-1.E0));
#625=DIRECTION('',(-1.E0,0.E0,0.E0));
#626=AXIS2_PLACEMENT_3D('',#623,#624,#625);
#627=PLANE('',#626);
#629=ORIENTED_EDGE('',*,*,#628,.F.);
#631=ORIENTED_EDGE('',*,*,#630,.F.);
#633=ORIENTED_EDGE('',*,*,#632,.F.);
#635=ORIENTED_EDGE('',*,*,#634,.F.);
#636=EDGE_LOOP('',(#629,#631,#633,#635));
#637=FACE_OUTER_BOUND('',#636,.F.);
#639=ORIENTED_EDGE('',*,*,#638,.F.);
#641=ORIENTED_EDGE('',*,*,#640,.F.);
#642=EDGE_LOOP('',(#639,#641));
#643=FACE_BOUND('',#642,.F.);
#645=ORIENTED_EDGE('',*,*,#644,.F.);
#647=ORIENTED_EDGE('',*,*,#646,.F.);
#648=EDGE_LOOP('',(#645,#647));
#649=FACE_BOUND('',#648,.F.);
#650=ORIENTED_EDGE('',*,*,#613,.F.);
#652=ORIENTED_EDGE('',*,*,#651,.F.);
#653=EDGE_LOOP('',(#650,#652));
#654=FACE_BOUND('',#653,.F.);
#655=ADVANCED_FACE('',(#637,#643,#649,#654),#627,.T.);
#656=CARTESIAN_POINT('',(8.5E0,0.E0,-1.E0));
#657=DIRECTION('',(0.E0,0.E0,-1.E0));
#658=DIRECTION('',(-1.E0,0.E0,0.E0));
#659=AXIS2_PLACEMENT_3D('',#656,#657,#658);
#660=CYLINDRICAL_SURFACE('',#659,1.75E0);
#661=ORIENTED_EDGE('',*,*,#651,.T.);
#662=ORIENTED_EDGE('',*,*,#618,.T.);
#663=ORIENTED_EDGE('',*,*,#603,.F.);
#664=ORIENTED_EDGE('',*,*,#615,.F.);
#665=EDGE_LOOP('',(#661,#662,#663,#664));
#666=FACE_OUTER_BOUND('',#665,.F.);
#667=ADVANCED_FACE('',(#666),#660,.F.);
#668=CARTESIAN_POINT('',(-8.5E0,0.E0,-1.E0));
#669=DIRECTION('',(0.E0,0.E0,-1.E0));
#670=DIRECTION('',(-1.E0,0.E0,0.E0));
#671=AXIS2_PLACEMENT_3D('',#668,#669,#670);
#672=CYLINDRICAL_SURFACE('',#671,1.75E0);
#673=ORIENTED_EDGE('',*,*,#638,.T.);
#675=ORIENTED_EDGE('',*,*,#674,.T.);
#676=ORIENTED_EDGE('',*,*,#583,.F.);
#678=ORIENTED_EDGE('',*,*,#677,.F.);
#679=EDGE_LOOP('',(#673,#675,#676,#678));
#680=FACE_OUTER_BOUND('',#679,.F.);
#681=ADVANCED_FACE('',(#680),#672,.F.);
#682=CARTESIAN_POINT('',(-8.5E0,0.E0,-1.E0));
#683=DIRECTION('',(0.E0,0.E0,-1.E0));
#684=DIRECTION('',(-1.E0,0.E0,0.E0));
#685=AXIS2_PLACEMENT_3D('',#682,#683,#684);
#686=CYLINDRICAL_SURFACE('',#685,1.75E0);
#687=ORIENTED_EDGE('',*,*,#640,.T.);
#688=ORIENTED_EDGE('',*,*,#677,.T.);
#689=ORIENTED_EDGE('',*,*,#585,.F.);
#690=ORIENTED_EDGE('',*,*,#674,.F.);
#691=EDGE_LOOP('',(#687,#688,#689,#690));
#692=FACE_OUTER_BOUND('',#691,.F.);
#693=ADVANCED_FACE('',(#692),#686,.F.);
#694=CARTESIAN_POINT('',(0.E0,0.E0,0.E0));
#695=DIRECTION('',(0.E0,0.E0,1.E0));
#696=DIRECTION('',(1.E0,0.E0,0.E0));
#697=AXIS2_PLACEMENT_3D('',#694,#695,#696);
#698=CYLINDRICAL_SURFACE('',#697,4.E0);
#700=ORIENTED_EDGE('',*,*,#699,.T.);
#701=ORIENTED_EDGE('',*,*,#644,.T.);
#703=ORIENTED_EDGE('',*,*,#702,.T.);
#705=ORIENTED_EDGE('',*,*,#704,.F.);
#706=EDGE_LOOP('',(#700,#701,#703,#705));
#707=FACE_OUTER_BOUND('',#706,.F.);
#708=ADVANCED_FACE('',(#707),#698,.F.);
#709=CARTESIAN_POINT('',(0.E0,0.E0,0.E0));
#710=DIRECTION('',(0.E0,0.E0,1.E0));
#711=DIRECTION('',(1.E0,0.E0,0.E0));
#712=AXIS2_PLACEMENT_3D('',#709,#710,#711);
#713=CYLINDRICAL_SURFACE('',#712,4.E0);
#714=ORIENTED_EDGE('',*,*,#699,.F.);
#716=ORIENTED_EDGE('',*,*,#715,.F.);
#717=ORIENTED_EDGE('',*,*,#702,.F.);
#718=ORIENTED_EDGE('',*,*,#646,.T.);
#719=EDGE_LOOP('',(#714,#716,#717,#718));
#720=FACE_OUTER_BOUND('',#719,.F.);
#721=ADVANCED_FACE('',(#720),#713,.F.);
#722=CARTESIAN_POINT('',(0.E0,0.E0,4.E0));
#723=DIRECTION('',(0.E0,0.E0,1.E0));
#724=DIRECTION('',(1.E0,0.E0,0.E0));
#725=AXIS2_PLACEMENT_3D('',#722,#723,#724);
#726=PLANE('',#725);
#728=ORIENTED_EDGE('',*,*,#727,.F.);
#730=ORIENTED_EDGE('',*,*,#729,.F.);
#732=ORIENTED_EDGE('',*,*,#731,.F.);
#734=ORIENTED_EDGE('',*,*,#733,.F.);
#736=ORIENTED_EDGE('',*,*,#735,.F.);
#738=ORIENTED_EDGE('',*,*,#737,.T.);
#740=ORIENTED_EDGE('',*,*,#739,.F.);
#742=ORIENTED_EDGE('',*,*,#741,.F.);
#743=EDGE_LOOP('',(#728,#730,#732,#734,#736,#738,#740,#742));
#744=FACE_OUTER_BOUND('',#743,.F.);
#745=ORIENTED_EDGE('',*,*,#704,.T.);
#746=ORIENTED_EDGE('',*,*,#715,.T.);
#747=EDGE_LOOP('',(#745,#746));
#748=FACE_BOUND('',#747,.F.);
#749=ORIENTED_EDGE('',*,*,#566,.T.);
#751=ORIENTED_EDGE('',*,*,#750,.T.);
#752=EDGE_LOOP('',(#749,#751));
#753=FACE_BOUND('',#752,.F.);
#755=ORIENTED_EDGE('',*,*,#754,.T.);
#757=ORIENTED_EDGE('',*,*,#756,.T.);
#758=EDGE_LOOP('',(#755,#757));
#759=FACE_BOUND('',#758,.F.);
#760=ADVANCED_FACE('',(#744,#748,#753,#759),#726,.T.);
#761=CARTESIAN_POINT('',(5.E1,-2.45E1,-1.36E2));
#762=DIRECTION('',(1.E0,0.E0,0.E0));
#763=DIRECTION('',(0.E0,0.E0,1.E0));
#764=AXIS2_PLACEMENT_3D('',#761,#762,#763);
#765=PLANE('',#764);
#767=ORIENTED_EDGE('',*,*,#766,.F.);
#769=ORIENTED_EDGE('',*,*,#768,.F.);
#770=ORIENTED_EDGE('',*,*,#727,.T.);
#772=ORIENTED_EDGE('',*,*,#771,.F.);
#773=EDGE_LOOP('',(#767,#769,#770,#772));
#774=FACE_OUTER_BOUND('',#773,.F.);
#775=ADVANCED_FACE('',(#774),#765,.T.);
#776=CARTESIAN_POINT('',(0.E0,0.E0,-1.36E2));
#777=DIRECTION('',(0.E0,0.E0,1.E0));
#778=DIRECTION('',(1.E0,0.E0,0.E0));
#779=AXIS2_PLACEMENT_3D('',#776,#777,#778);
#780=PLANE('',#779);
#782=ORIENTED_EDGE('',*,*,#781,.F.);
#784=ORIENTED_EDGE('',*,*,#783,.F.);
#785=ORIENTED_EDGE('',*,*,#766,.T.);
#787=ORIENTED_EDGE('',*,*,#786,.F.);
#789=ORIENTED_EDGE('',*,*,#788,.T.);
#791=ORIENTED_EDGE('',*,*,#790,.T.);
#793=ORIENTED_EDGE('',*,*,#792,.T.);
#795=ORIENTED_EDGE('',*,*,#794,.F.);
#796=EDGE_LOOP('',(#782,#784,#785,#787,#789,#791,#793,#795));
#797=FACE_OUTER_BOUND('',#796,.F.);
#799=ORIENTED_EDGE('',*,*,#798,.T.);
#801=ORIENTED_EDGE('',*,*,#800,.T.);
#802=EDGE_LOOP('',(#799,#801));
#803=FACE_BOUND('',#802,.F.);
#805=ORIENTED_EDGE('',*,*,#804,.T.);
#807=ORIENTED_EDGE('',*,*,#806,.T.);
#808=EDGE_LOOP('',(#805,#807));
#809=FACE_BOUND('',#808,.F.);
#811=ORIENTED_EDGE('',*,*,#810,.T.);
#813=ORIENTED_EDGE('',*,*,#812,.T.);
#814=EDGE_LOOP('',(#811,#813));
#815=FACE_BOUND('',#814,.F.);
#816=ADVANCED_FACE('',(#797,#803,#809,#815),#780,.F.);
#817=CARTESIAN_POINT('',(-5.E1,-2.45E1,4.E0));
#818=DIRECTION('',(-1.E0,0.E0,0.E0));
#819=DIRECTION('',(0.E0,0.E0,-1.E0));
#820=AXIS2_PLACEMENT_3D('',#817,#818,#819);
#821=PLANE('',#820);
#822=ORIENTED_EDGE('',*,*,#731,.T.);
#824=ORIENTED_EDGE('',*,*,#823,.F.);
#825=ORIENTED_EDGE('',*,*,#781,.T.);
#827=ORIENTED_EDGE('',*,*,#826,.F.);
#828=EDGE_LOOP('',(#822,#824,#825,#827));
#829=FACE_OUTER_BOUND('',#828,.F.);
#830=ADVANCED_FACE('',(#829),#821,.T.);
#831=CARTESIAN_POINT('',(0.E0,-2.75E1,0.E0));
#832=DIRECTION('',(0.E0,-1.E0,0.E0));
#833=DIRECTION('',(1.E0,0.E0,0.E0));
#834=AXIS2_PLACEMENT_3D('',#831,#832,#833);
#835=PLANE('',#834);
#836=ORIENTED_EDGE('',*,*,#823,.T.);
#837=ORIENTED_EDGE('',*,*,#729,.T.);
#838=ORIENTED_EDGE('',*,*,#768,.T.);
#839=ORIENTED_EDGE('',*,*,#783,.T.);
#840=EDGE_LOOP('',(#836,#837,#838,#839));
#841=FACE_OUTER_BOUND('',#840,.F.);
#842=ADVANCED_FACE('',(#841),#835,.T.);
#843=CARTESIAN_POINT('',(0.E0,-2.05E1,0.E0));
#844=DIRECTION('',(0.E0,-1.E0,0.E0));
#845=DIRECTION('',(0.E0,0.E0,1.E0));
#846=AXIS2_PLACEMENT_3D('',#843,#844,#845);
#847=PLANE('',#846);
#849=ORIENTED_EDGE('',*,*,#848,.F.);
#851=ORIENTED_EDGE('',*,*,#850,.F.);
#853=ORIENTED_EDGE('',*,*,#852,.T.);
#854=ORIENTED_EDGE('',*,*,#786,.T.);
#855=ORIENTED_EDGE('',*,*,#771,.T.);
#856=ORIENTED_EDGE('',*,*,#741,.T.);
#858=ORIENTED_EDGE('',*,*,#857,.T.);
#859=ORIENTED_EDGE('',*,*,#628,.T.);
#861=ORIENTED_EDGE('',*,*,#860,.T.);
#862=ORIENTED_EDGE('',*,*,#733,.T.);
#863=ORIENTED_EDGE('',*,*,#826,.T.);
#864=ORIENTED_EDGE('',*,*,#794,.T.);
#865=EDGE_LOOP('',(#849,#851,#853,#854,#855,#856,#858,#859,#861,#862,#863,
#864));
#866=FACE_OUTER_BOUND('',#865,.F.);
#867=ADVANCED_FACE('',(#866),#847,.F.);
#868=CARTESIAN_POINT('',(-1.75E1,-2.05E1,-1.36E2));
#869=DIRECTION('',(-1.E0,0.E0,0.E0));
#870=DIRECTION('',(0.E0,1.E0,0.E0));
#871=AXIS2_PLACEMENT_3D('',#868,#869,#870);
#872=PLANE('',#871);
#874=ORIENTED_EDGE('',*,*,#873,.F.);
#875=ORIENTED_EDGE('',*,*,#848,.T.);
#876=ORIENTED_EDGE('',*,*,#792,.F.);
#878=ORIENTED_EDGE('',*,*,#877,.F.);
#879=EDGE_LOOP('',(#874,#875,#876,#878));
#880=FACE_OUTER_BOUND('',#879,.F.);
#881=ADVANCED_FACE('',(#880),#872,.T.);
#882=CARTESIAN_POINT('',(0.E0,0.E0,-1.31E2));
#883=DIRECTION('',(0.E0,0.E0,-1.E0));
#884=DIRECTION('',(-1.E0,0.E0,0.E0));
#885=AXIS2_PLACEMENT_3D('',#882,#883,#884);
#886=PLANE('',#885);
#887=ORIENTED_EDGE('',*,*,#850,.T.);
#888=ORIENTED_EDGE('',*,*,#873,.T.);
#890=ORIENTED_EDGE('',*,*,#889,.T.);
#892=ORIENTED_EDGE('',*,*,#891,.T.);
#893=EDGE_LOOP('',(#887,#888,#890,#892));
#894=FACE_OUTER_BOUND('',#893,.F.);
#896=ORIENTED_EDGE('',*,*,#895,.T.);
#898=ORIENTED_EDGE('',*,*,#897,.T.);
#899=EDGE_LOOP('',(#896,#898));
#900=FACE_BOUND('',#899,.F.);
#902=ORIENTED_EDGE('',*,*,#901,.T.);
#904=ORIENTED_EDGE('',*,*,#903,.T.);
#905=EDGE_LOOP('',(#902,#904));
#906=FACE_BOUND('',#905,.F.);
#908=ORIENTED_EDGE('',*,*,#907,.T.);
#910=ORIENTED_EDGE('',*,*,#909,.T.);
#911=EDGE_LOOP('',(#908,#910));
#912=FACE_BOUND('',#911,.F.);
#913=ADVANCED_FACE('',(#894,#900,#906,#912),#886,.F.);
#914=CARTESIAN_POINT('',(-8.5E0,0.E0,-1.31E2));
#915=DIRECTION('',(0.E0,0.E0,-1.E0));
#916=DIRECTION('',(-1.E0,0.E0,0.E0));
#917=AXIS2_PLACEMENT_3D('',#914,#915,#916);
#918=CYLINDRICAL_SURFACE('',#917,1.75E0);
#919=ORIENTED_EDGE('',*,*,#901,.F.);
#921=ORIENTED_EDGE('',*,*,#920,.T.);
#923=ORIENTED_EDGE('',*,*,#922,.T.);
#925=ORIENTED_EDGE('',*,*,#924,.F.);
#926=EDGE_LOOP('',(#919,#921,#923,#925));
#927=FACE_OUTER_BOUND('',#926,.F.);
#928=ADVANCED_FACE('',(#927),#918,.F.);
#929=CARTESIAN_POINT('',(-8.5E0,0.E0,-1.31E2));
#930=DIRECTION('',(0.E0,0.E0,-1.E0));
#931=DIRECTION('',(-1.E0,0.E0,0.E0));
#932=AXIS2_PLACEMENT_3D('',#929,#930,#931);
#933=CYLINDRICAL_SURFACE('',#932,1.75E0);
#934=ORIENTED_EDGE('',*,*,#903,.F.);
#935=ORIENTED_EDGE('',*,*,#924,.T.);
#937=ORIENTED_EDGE('',*,*,#936,.T.);
#938=ORIENTED_EDGE('',*,*,#920,.F.);
#939=EDGE_LOOP('',(#934,#935,#937,#938));
#940=FACE_OUTER_BOUND('',#939,.F.);
#941=ADVANCED_FACE('',(#940),#933,.F.);
#942=CARTESIAN_POINT('',(0.E0,0.E0,-1.325E2));
#943=DIRECTION('',(0.E0,0.E0,-1.E0));
#944=DIRECTION('',(-1.E0,0.E0,0.E0));
#945=AXIS2_PLACEMENT_3D('',#942,#943,#944);
#946=PLANE('',#945);
#948=ORIENTED_EDGE('',*,*,#947,.F.);
#950=ORIENTED_EDGE('',*,*,#949,.F.);
#951=EDGE_LOOP('',(#948,#950));
#952=FACE_OUTER_BOUND('',#951,.F.);
#954=ORIENTED_EDGE('',*,*,#953,.F.);
#956=ORIENTED_EDGE('',*,*,#955,.F.);
#957=EDGE_LOOP('',(#954,#956));
#958=FACE_BOUND('',#957,.F.);
#959=ADVANCED_FACE('',(#952,#958),#946,.T.);
#960=CARTESIAN_POINT('',(0.E0,0.E0,-1.325E2));
#961=DIRECTION('',(0.E0,0.E0,-1.E0));
#962=DIRECTION('',(-1.E0,0.E0,0.E0));
#963=AXIS2_PLACEMENT_3D('',#960,#961,#962);
#964=PLANE('',#963);
#966=ORIENTED_EDGE('',*,*,#965,.F.);
#968=ORIENTED_EDGE('',*,*,#967,.F.);
#969=EDGE_LOOP('',(#966,#968));
#970=FACE_OUTER_BOUND('',#969,.F.);
#971=ORIENTED_EDGE('',*,*,#922,.F.);
#972=ORIENTED_EDGE('',*,*,#936,.F.);
#973=EDGE_LOOP('',(#971,#972));
#974=FACE_BOUND('',#973,.F.);
#975=ADVANCED_FACE('',(#970,#974),#964,.T.);
#976=CARTESIAN_POINT('',(8.5E0,0.E0,-1.31E2));
#977=DIRECTION('',(0.E0,0.E0,-1.E0));
#978=DIRECTION('',(-1.E0,0.E0,0.E0));
#979=AXIS2_PLACEMENT_3D('',#976,#977,#978);
#980=CYLINDRICAL_SURFACE('',#979,1.75E0);
#981=ORIENTED_EDGE('',*,*,#895,.F.);
#983=ORIENTED_EDGE('',*,*,#982,.T.);
#984=ORIENTED_EDGE('',*,*,#953,.T.);
#986=ORIENTED_EDGE('',*,*,#985,.F.);
#987=EDGE_LOOP('',(#981,#983,#984,#986));
#988=FACE_OUTER_BOUND('',#987,.F.);
#989=ADVANCED_FACE('',(#988),#980,.F.);
#990=CARTESIAN_POINT('',(8.5E0,0.E0,-1.31E2));
#991=DIRECTION('',(0.E0,0.E0,-1.E0));
#992=DIRECTION('',(-1.E0,0.E0,0.E0));
#993=AXIS2_PLACEMENT_3D('',#990,#991,#992);
#994=CYLINDRICAL_SURFACE('',#993,1.75E0);
#995=ORIENTED_EDGE('',*,*,#897,.F.);
#996=ORIENTED_EDGE('',*,*,#985,.T.);
#997=ORIENTED_EDGE('',*,*,#955,.T.);
#998=ORIENTED_EDGE('',*,*,#982,.F.);
#999=EDGE_LOOP('',(#995,#996,#997,#998));
#1000=FACE_OUTER_BOUND('',#999,.F.);
#1001=ADVANCED_FACE('',(#1000),#994,.F.);
#1002=CARTESIAN_POINT('',(8.5E0,0.E0,-1.36E2));
#1003=DIRECTION('',(0.E0,0.E0,-1.E0));
#1004=DIRECTION('',(-1.E0,0.E0,0.E0));
#1005=AXIS2_PLACEMENT_3D('',#1002,#1003,#1004);
#1006=CYLINDRICAL_SURFACE('',#1005,3.E0);
#1007=ORIENTED_EDGE('',*,*,#947,.T.);
#1009=ORIENTED_EDGE('',*,*,#1008,.T.);
#1010=ORIENTED_EDGE('',*,*,#804,.F.);
#1012=ORIENTED_EDGE('',*,*,#1011,.F.);
#1013=EDGE_LOOP('',(#1007,#1009,#1010,#1012));
#1014=FACE_OUTER_BOUND('',#1013,.F.);
#1015=ADVANCED_FACE('',(#1014),#1006,.F.);
#1016=CARTESIAN_POINT('',(8.5E0,0.E0,-1.36E2));
#1017=DIRECTION('',(0.E0,0.E0,-1.E0));
#1018=DIRECTION('',(-1.E0,0.E0,0.E0));
#1019=AXIS2_PLACEMENT_3D('',#1016,#1017,#1018);
#1020=CYLINDRICAL_SURFACE('',#1019,3.E0);
#1021=ORIENTED_EDGE('',*,*,#949,.T.);
#1022=ORIENTED_EDGE('',*,*,#1011,.T.);
#1023=ORIENTED_EDGE('',*,*,#806,.F.);
#1024=ORIENTED_EDGE('',*,*,#1008,.F.);
#1025=EDGE_LOOP('',(#1021,#1022,#1023,#1024));
#1026=FACE_OUTER_BOUND('',#1025,.F.);
#1027=ADVANCED_FACE('',(#1026),#1020,.F.);
#1028=CARTESIAN_POINT('',(-8.5E0,0.E0,-1.36E2));
#1029=DIRECTION('',(0.E0,0.E0,-1.E0));
#1030=DIRECTION('',(-1.E0,0.E0,0.E0));
#1031=AXIS2_PLACEMENT_3D('',#1028,#1029,#1030);
#1032=CYLINDRICAL_SURFACE('',#1031,3.E0);
#1033=ORIENTED_EDGE('',*,*,#965,.T.);
#1035=ORIENTED_EDGE('',*,*,#1034,.T.);
#1036=ORIENTED_EDGE('',*,*,#810,.F.);
#1038=ORIENTED_EDGE('',*,*,#1037,.F.);
#1039=EDGE_LOOP('',(#1033,#1035,#1036,#1038));
#1040=FACE_OUTER_BOUND('',#1039,.F.);
#1041=ADVANCED_FACE('',(#1040),#1032,.F.);
#1042=CARTESIAN_POINT('',(-8.5E0,0.E0,-1.36E2));
#1043=DIRECTION('',(0.E0,0.E0,-1.E0));
#1044=DIRECTION('',(-1.E0,0.E0,0.E0));
#1045=AXIS2_PLACEMENT_3D('',#1042,#1043,#1044);
#1046=CYLINDRICAL_SURFACE('',#1045,3.E0);
#1047=ORIENTED_EDGE('',*,*,#967,.T.);
#1048=ORIENTED_EDGE('',*,*,#1037,.T.);
#1049=ORIENTED_EDGE('',*,*,#812,.F.);
#1050=ORIENTED_EDGE('',*,*,#1034,.F.);
#1051=EDGE_LOOP('',(#1047,#1048,#1049,#1050));
#1052=FACE_OUTER_BOUND('',#1051,.F.);
#1053=ADVANCED_FACE('',(#1052),#1046,.F.);
#1054=CARTESIAN_POINT('',(0.E0,0.E0,-1.36E2));
#1055=DIRECTION('',(0.E0,0.E0,-1.E0));
#1056=DIRECTION('',(-1.E0,0.E0,0.E0));
#1057=AXIS2_PLACEMENT_3D('',#1054,#1055,#1056);
#1058=CYLINDRICAL_SURFACE('',#1057,1.75E1);
#1059=ORIENTED_EDGE('',*,*,#889,.F.);
#1060=ORIENTED_EDGE('',*,*,#877,.T.);
#1061=ORIENTED_EDGE('',*,*,#790,.F.);
#1063=ORIENTED_EDGE('',*,*,#1062,.T.);
#1064=EDGE_LOOP('',(#1059,#1060,#1061,#1063));
#1065=FACE_OUTER_BOUND('',#1064,.F.);
#1066=ADVANCED_FACE('',(#1065),#1058,.T.);
#1067=CARTESIAN_POINT('',(1.75E1,0.E0,-1.36E2));
#1068=DIRECTION('',(1.E0,0.E0,0.E0));
#1069=DIRECTION('',(0.E0,-1.E0,0.E0));
#1070=AXIS2_PLACEMENT_3D('',#1067,#1068,#1069);
#1071=PLANE('',#1070);
#1072=ORIENTED_EDGE('',*,*,#891,.F.);
#1073=ORIENTED_EDGE('',*,*,#1062,.F.);
#1074=ORIENTED_EDGE('',*,*,#788,.F.);
#1075=ORIENTED_EDGE('',*,*,#852,.F.);
#1076=EDGE_LOOP('',(#1072,#1073,#1074,#1075));
#1077=FACE_OUTER_BOUND('',#1076,.F.);
#1078=ADVANCED_FACE('',(#1077),#1071,.T.);
#1079=CARTESIAN_POINT('',(0.E0,0.E0,-1.32E2));
#1080=DIRECTION('',(0.E0,0.E0,1.E0));
#1081=DIRECTION('',(1.E0,0.E0,0.E0));
#1082=AXIS2_PLACEMENT_3D('',#1079,#1080,#1081);
#1083=CYLINDRICAL_SURFACE('',#1082,4.E0);
#1084=ORIENTED_EDGE('',*,*,#907,.F.);
#1086=ORIENTED_EDGE('',*,*,#1085,.T.);
#1087=ORIENTED_EDGE('',*,*,#798,.F.);
#1089=ORIENTED_EDGE('',*,*,#1088,.T.);
#1090=EDGE_LOOP('',(#1084,#1086,#1087,#1089));
#1091=FACE_OUTER_BOUND('',#1090,.F.);
#1092=ADVANCED_FACE('',(#1091),#1083,.F.);
#1093=CARTESIAN_POINT('',(0.E0,0.E0,-1.32E2));
#1094=DIRECTION('',(0.E0,0.E0,1.E0));
#1095=DIRECTION('',(1.E0,0.E0,0.E0));
#1096=AXIS2_PLACEMENT_3D('',#1093,#1094,#1095);
#1097=CYLINDRICAL_SURFACE('',#1096,4.E0);
#1098=ORIENTED_EDGE('',*,*,#909,.F.);
#1099=ORIENTED_EDGE('',*,*,#1088,.F.);
#1100=ORIENTED_EDGE('',*,*,#800,.F.);
#1101=ORIENTED_EDGE('',*,*,#1085,.F.);
#1102=EDGE_LOOP('',(#1098,#1099,#1100,#1101));
#1103=FACE_OUTER_BOUND('',#1102,.F.);
#1104=ADVANCED_FACE('',(#1103),#1097,.F.);
#1105=CARTESIAN_POINT('',(1.75E1,0.E0,0.E0));
#1106=DIRECTION('',(1.E0,0.E0,0.E0));
#1107=DIRECTION('',(0.E0,-1.E0,0.E0));
#1108=AXIS2_PLACEMENT_3D('',#1105,#1106,#1107);
#1109=PLANE('',#1108);
#1111=ORIENTED_EDGE('',*,*,#1110,.F.);
#1112=ORIENTED_EDGE('',*,*,#630,.T.);
#1113=ORIENTED_EDGE('',*,*,#857,.F.);
#1114=ORIENTED_EDGE('',*,*,#739,.T.);
#1115=EDGE_LOOP('',(#1111,#1112,#1113,#1114));
#1116=FACE_OUTER_BOUND('',#1115,.F.);
#1117=ADVANCED_FACE('',(#1116),#1109,.T.);
#1118=CARTESIAN_POINT('',(0.E0,0.E0,0.E0));
#1119=DIRECTION('',(0.E0,0.E0,-1.E0));
#1120=DIRECTION('',(-1.E0,0.E0,0.E0));
#1121=AXIS2_PLACEMENT_3D('',#1118,#1119,#1120);
#1122=CYLINDRICAL_SURFACE('',#1121,1.75E1);
#1123=ORIENTED_EDGE('',*,*,#1110,.T.);
#1124=ORIENTED_EDGE('',*,*,#737,.F.);
#1126=ORIENTED_EDGE('',*,*,#1125,.T.);
#1127=ORIENTED_EDGE('',*,*,#632,.T.);
#1128=EDGE_LOOP('',(#1123,#1124,#1126,#1127));
#1129=FACE_OUTER_BOUND('',#1128,.F.);
#1130=ADVANCED_FACE('',(#1129),#1122,.T.);
#1131=CARTESIAN_POINT('',(-1.75E1,-2.05E1,0.E0));
#1132=DIRECTION('',(-1.E0,0.E0,0.E0));
#1133=DIRECTION('',(0.E0,1.E0,0.E0));
#1134=AXIS2_PLACEMENT_3D('',#1131,#1132,#1133);
#1135=PLANE('',#1134);
#1136=ORIENTED_EDGE('',*,*,#1125,.F.);
#1137=ORIENTED_EDGE('',*,*,#735,.T.);
#1138=ORIENTED_EDGE('',*,*,#860,.F.);
#1139=ORIENTED_EDGE('',*,*,#634,.T.);
#1140=EDGE_LOOP('',(#1136,#1137,#1138,#1139));
#1141=FACE_OUTER_BOUND('',#1140,.F.);
#1142=ADVANCED_FACE('',(#1141),#1135,.T.);
#1143=CARTESIAN_POINT('',(-8.5E0,0.E0,4.E0));
#1144=DIRECTION('',(0.E0,0.E0,1.E0));
#1145=DIRECTION('',(1.E0,0.E0,0.E0));
#1146=AXIS2_PLACEMENT_3D('',#1143,#1144,#1145);
#1147=CYLINDRICAL_SURFACE('',#1146,3.E0);
#1148=ORIENTED_EDGE('',*,*,#579,.T.);
#1149=ORIENTED_EDGE('',*,*,#568,.T.);
#1150=ORIENTED_EDGE('',*,*,#750,.F.);
#1151=ORIENTED_EDGE('',*,*,#564,.F.);
#1152=EDGE_LOOP('',(#1148,#1149,#1150,#1151));
#1153=FACE_OUTER_BOUND('',#1152,.F.);
#1154=ADVANCED_FACE('',(#1153),#1147,.F.);
#1155=CARTESIAN_POINT('',(8.5E0,0.E0,4.E0));
#1156=DIRECTION('',(0.E0,0.E0,1.E0));
#1157=DIRECTION('',(1.E0,0.E0,0.E0));
#1158=AXIS2_PLACEMENT_3D('',#1155,#1156,#1157);
#1159=CYLINDRICAL_SURFACE('',#1158,3.E0);
#1160=ORIENTED_EDGE('',*,*,#595,.T.);
#1162=ORIENTED_EDGE('',*,*,#1161,.T.);
#1163=ORIENTED_EDGE('',*,*,#754,.F.);
#1165=ORIENTED_EDGE('',*,*,#1164,.F.);
#1166=EDGE_LOOP('',(#1160,#1162,#1163,#1165));
#1167=FACE_OUTER_BOUND('',#1166,.F.);
#1168=ADVANCED_FACE('',(#1167),#1159,.F.);
#1169=CARTESIAN_POINT('',(8.5E0,0.E0,4.E0));
#1170=DIRECTION('',(0.E0,0.E0,1.E0));
#1171=DIRECTION('',(1.E0,0.E0,0.E0));
#1172=AXIS2_PLACEMENT_3D('',#1169,#1170,#1171);
#1173=CYLINDRICAL_SURFACE('',#1172,3.E0);
#1174=ORIENTED_EDGE('',*,*,#597,.T.);
#1175=ORIENTED_EDGE('',*,*,#1164,.T.);
#1176=ORIENTED_EDGE('',*,*,#756,.F.);
#1177=ORIENTED_EDGE('',*,*,#1161,.F.);
#1178=EDGE_LOOP('',(#1174,#1175,#1176,#1177));
#1179=FACE_OUTER_BOUND('',#1178,.F.);
#1180=ADVANCED_FACE('',(#1179),#1173,.F.);
#1184=DIMENSIONAL_EXPONENTS(0.E0,0.E0,0.E0,0.E0,0.E0,0.E0,0.E0);
#1186=PLANE_ANGLE_MEASURE_WITH_UNIT(PLANE_ANGLE_MEASURE(1.745329251994E-2),
#1185);
#1187=(CONVERSION_BASED_UNIT('DEGREE',#1186)NAMED_UNIT(*)PLANE_ANGLE_UNIT());
#1189=UNCERTAINTY_MEASURE_WITH_UNIT(LENGTH_MEASURE(1.778325179277E-2),#1183,
'closure',
'Maximum model space distance between geometric entities at asserted connectivities');
#1190=(GEOMETRIC_REPRESENTATION_CONTEXT(3)GLOBAL_UNCERTAINTY_ASSIGNED_CONTEXT((
#1189))GLOBAL_UNIT_ASSIGNED_CONTEXT((#1183,#1187,#1188))REPRESENTATION_CONTEXT(
'ID1','3'));
#1192=APPLICATION_CONTEXT(
'CONFIGURATION CONTROLLED 3D DESIGNS OF MECHANICAL PARTS AND ASSEMBLIES');
#1193=APPLICATION_PROTOCOL_DEFINITION('international standard',
'config_control_design',1994,#1192);
#1194=DESIGN_CONTEXT('',#1192,'design');
#1195=MECHANICAL_CONTEXT('',#1192,'mechanical');
#1196=PRODUCT('CARJIACU2','CARJIACU2','NOT SPECIFIED',(#1195));
#1197=PRODUCT_DEFINITION_FORMATION_WITH_SPECIFIED_SOURCE('1','LAST_VERSION',
#1196,.MADE.);
#1201=PRODUCT_CATEGORY('part','');
#1202=PRODUCT_RELATED_PRODUCT_CATEGORY('detail','',(#1196));
#1203=PRODUCT_CATEGORY_RELATIONSHIP('','',#1201,#1202);
#1204=SECURITY_CLASSIFICATION_LEVEL('unclassified');
#1205=SECURITY_CLASSIFICATION('','',#1204);
#1206=CC_DESIGN_SECURITY_CLASSIFICATION(#1205,(#1197));
#1207=APPROVAL_STATUS('approved');
#1208=APPROVAL(#1207,'');
#1209=CC_DESIGN_APPROVAL(#1208,(#1205,#1197,#1198));
#1210=CALENDAR_DATE(126,22,6);
#1211=COORDINATED_UNIVERSAL_TIME_OFFSET(8,0,.AHEAD.);
#1212=LOCAL_TIME(23,45,5.E0,#1211);
#1213=DATE_AND_TIME(#1210,#1212);
#1214=APPROVAL_DATE_TIME(#1213,#1208);
#1215=DATE_TIME_ROLE('creation_date');
#1216=CC_DESIGN_DATE_AND_TIME_ASSIGNMENT(#1213,#1215,(#1198));
#1217=DATE_TIME_ROLE('classification_date');
#1218=CC_DESIGN_DATE_AND_TIME_ASSIGNMENT(#1213,#1217,(#1205));
#1219=PERSON('UNSPECIFIED','UNSPECIFIED',$,$,$,$);
#1220=ORGANIZATION('UNSPECIFIED','UNSPECIFIED','UNSPECIFIED');
#1221=PERSON_AND_ORGANIZATION(#1219,#1220);
#1222=APPROVAL_ROLE('approver');
#1223=APPROVAL_PERSON_ORGANIZATION(#1221,#1208,#1222);
#1224=PERSON_AND_ORGANIZATION_ROLE('creator');
#1225=CC_DESIGN_PERSON_AND_ORGANIZATION_ASSIGNMENT(#1221,#1224,(#1197,#1198));
#1226=PERSON_AND_ORGANIZATION_ROLE('design_supplier');
#1227=CC_DESIGN_PERSON_AND_ORGANIZATION_ASSIGNMENT(#1221,#1226,(#1197));
#1228=PERSON_AND_ORGANIZATION_ROLE('classification_officer');
#1229=CC_DESIGN_PERSON_AND_ORGANIZATION_ASSIGNMENT(#1221,#1228,(#1205));
#1230=PERSON_AND_ORGANIZATION_ROLE('design_owner');
#1231=CC_DESIGN_PERSON_AND_ORGANIZATION_ASSIGNMENT(#1221,#1230,(#1196));
#5=CIRCLE('',#4,3.E0);
#14=CIRCLE('',#13,1.75E0);
#19=CIRCLE('',#18,1.75E0);
#24=CIRCLE('',#23,1.75E0);
#29=CIRCLE('',#28,1.75E0);
#38=CIRCLE('',#37,1.75E0);
#43=CIRCLE('',#42,1.75E0);
#48=CIRCLE('',#47,1.75E0);
#53=CIRCLE('',#52,1.75E0);
#78=CIRCLE('',#77,4.E0);
#87=CIRCLE('',#86,4.E0);
#92=CIRCLE('',#91,1.75E1);
#97=CIRCLE('',#96,4.E0);
#102=CIRCLE('',#101,4.E0);
#107=CIRCLE('',#106,3.E0);
#112=CIRCLE('',#111,3.E0);
#117=CIRCLE('',#116,3.E0);
#122=CIRCLE('',#121,3.E0);
#139=CIRCLE('',#138,1.75E1);
#148=CIRCLE('',#147,4.E0);
#153=CIRCLE('',#152,4.E0);
#158=CIRCLE('',#157,3.E0);
#163=CIRCLE('',#162,3.E0);
#168=CIRCLE('',#167,3.E0);
#173=CIRCLE('',#172,3.E0);
#246=CIRCLE('',#245,1.75E0);
#251=CIRCLE('',#250,1.75E0);
#256=CIRCLE('',#255,1.75E0);
#261=CIRCLE('',#260,1.75E0);
#278=CIRCLE('',#277,1.75E0);
#283=CIRCLE('',#282,1.75E0);
#288=CIRCLE('',#287,1.75E0);
#293=CIRCLE('',#292,1.75E0);
#306=CIRCLE('',#305,3.E0);
#315=CIRCLE('',#314,3.E0);
#324=CIRCLE('',#323,3.E0);
#333=CIRCLE('',#332,3.E0);
#342=CIRCLE('',#341,1.75E1);
#359=CIRCLE('',#358,4.E0);
#372=CIRCLE('',#371,4.E0);
#393=CIRCLE('',#392,1.75E1);
#406=CIRCLE('',#405,3.E0);
#415=CIRCLE('',#414,3.E0);
#424=CIRCLE('',#423,3.E0);
#562=EDGE_CURVE('',#515,#516,#5,.T.);
#564=EDGE_CURVE('',#516,#432,#9,.T.);
#566=EDGE_CURVE('',#431,#432,#107,.T.);
#568=EDGE_CURVE('',#515,#431,#410,.T.);
#579=EDGE_CURVE('',#516,#515,#406,.T.);
#583=EDGE_CURVE('',#511,#512,#24,.T.);
#585=EDGE_CURVE('',#512,#511,#29,.T.);
#595=EDGE_CURVE('',#519,#520,#415,.T.);
#597=EDGE_CURVE('',#520,#519,#424,.T.);
#601=EDGE_CURVE('',#507,#508,#14,.T.);
#603=EDGE_CURVE('',#508,#507,#19,.T.);
#613=EDGE_CURVE('',#499,#500,#38,.T.);
#615=EDGE_CURVE('',#500,#508,#61,.T.);
#618=EDGE_CURVE('',#499,#507,#33,.T.);
#628=EDGE_CURVE('',#492,#496,#57,.T.);
#630=EDGE_CURVE('',#490,#492,#376,.T.);
#632=EDGE_CURVE('',#494,#490,#393,.T.);
#634=EDGE_CURVE('',#496,#494,#401,.T.);
#638=EDGE_CURVE('',#503,#504,#48,.T.);
#640=EDGE_CURVE('',#504,#503,#53,.T.);
#644=EDGE_CURVE('',#486,#488,#78,.T.);
#646=EDGE_CURVE('',#488,#486,#87,.T.);
#651=EDGE_CURVE('',#500,#499,#43,.T.);
#674=EDGE_CURVE('',#504,#512,#69,.T.);
#677=EDGE_CURVE('',#503,#511,#65,.T.);
#699=EDGE_CURVE('',#451,#486,#73,.T.);
#702=EDGE_CURVE('',#488,#452,#82,.T.);
#704=EDGE_CURVE('',#451,#452,#97,.T.);
#715=EDGE_CURVE('',#452,#451,#102,.T.);
#727=EDGE_CURVE('',#435,#436,#126,.T.);
#729=EDGE_CURVE('',#438,#435,#189,.T.);
#731=EDGE_CURVE('',#440,#438,#177,.T.);
#733=EDGE_CURVE('',#442,#440,#225,.T.);
#735=EDGE_CURVE('',#444,#442,#397,.T.);
#737=EDGE_CURVE('',#444,#446,#92,.T.);
#739=EDGE_CURVE('',#448,#446,#380,.T.);
#741=EDGE_CURVE('',#436,#448,#213,.T.);
#750=EDGE_CURVE('',#432,#431,#112,.T.);
#754=EDGE_CURVE('',#455,#456,#117,.T.);
#756=EDGE_CURVE('',#456,#455,#122,.T.);
#766=EDGE_CURVE('',#472,#460,#130,.T.);
#768=EDGE_CURVE('',#435,#472,#193,.T.);
#771=EDGE_CURVE('',#460,#436,#209,.T.);
#781=EDGE_CURVE('',#470,#462,#181,.T.);
#783=EDGE_CURVE('',#472,#470,#197,.T.);
#786=EDGE_CURVE('',#459,#460,#205,.T.);
#788=EDGE_CURVE('',#459,#474,#134,.T.);
#790=EDGE_CURVE('',#474,#476,#139,.T.);
#792=EDGE_CURVE('',#476,#464,#143,.T.);
#794=EDGE_CURVE('',#462,#464,#233,.T.);
#798=EDGE_CURVE('',#479,#480,#148,.T.);
#800=EDGE_CURVE('',#480,#479,#153,.T.);
#804=EDGE_CURVE('',#467,#468,#158,.T.);
#806=EDGE_CURVE('',#468,#467,#163,.T.);
#810=EDGE_CURVE('',#483,#484,#168,.T.);
#812=EDGE_CURVE('',#484,#483,#173,.T.);
#823=EDGE_CURVE('',#470,#438,#185,.T.);
#826=EDGE_CURVE('',#440,#462,#229,.T.);
#848=EDGE_CURVE('',#524,#464,#241,.T.);
#850=EDGE_CURVE('',#523,#524,#265,.T.);
#852=EDGE_CURVE('',#523,#459,#201,.T.);
#857=EDGE_CURVE('',#448,#492,#217,.T.);
#860=EDGE_CURVE('',#496,#442,#221,.T.);
#873=EDGE_CURVE('',#524,#548,#237,.T.);
#877=EDGE_CURVE('',#548,#476,#346,.T.);
#889=EDGE_CURVE('',#548,#546,#342,.T.);
#891=EDGE_CURVE('',#546,#523,#354,.T.);
#895=EDGE_CURVE('',#527,#528,#256,.T.);
#897=EDGE_CURVE('',#528,#527,#261,.T.);
#901=EDGE_CURVE('',#531,#532,#246,.T.);
#903=EDGE_CURVE('',#532,#531,#251,.T.);
#907=EDGE_CURVE('',#543,#544,#359,.T.);
#909=EDGE_CURVE('',#544,#543,#372,.T.);
#920=EDGE_CURVE('',#531,#539,#269,.T.);
#922=EDGE_CURVE('',#539,#540,#288,.T.);
#924=EDGE_CURVE('',#532,#540,#273,.T.);
#936=EDGE_CURVE('',#540,#539,#293,.T.);
#947=EDGE_CURVE('',#551,#552,#306,.T.);
#949=EDGE_CURVE('',#552,#551,#315,.T.);
#953=EDGE_CURVE('',#535,#536,#278,.T.);
#955=EDGE_CURVE('',#536,#535,#283,.T.);
#965=EDGE_CURVE('',#555,#556,#324,.T.);
#967=EDGE_CURVE('',#556,#555,#333,.T.);
#982=EDGE_CURVE('',#527,#535,#297,.T.);
#985=EDGE_CURVE('',#528,#536,#301,.T.);
#1008=EDGE_CURVE('',#552,#468,#310,.T.);
#1011=EDGE_CURVE('',#551,#467,#319,.T.);
#1034=EDGE_CURVE('',#556,#484,#328,.T.);
#1037=EDGE_CURVE('',#555,#483,#337,.T.);
#1062=EDGE_CURVE('',#474,#546,#350,.T.);
#1085=EDGE_CURVE('',#543,#480,#363,.T.);
#1088=EDGE_CURVE('',#479,#544,#367,.T.);
#1110=EDGE_CURVE('',#490,#446,#384,.T.);
#1125=EDGE_CURVE('',#444,#494,#388,.T.);
#1161=EDGE_CURVE('',#520,#456,#419,.T.);
#1164=EDGE_CURVE('',#519,#455,#428,.T.);
#1181=CLOSED_SHELL('',(#572,#589,#607,#622,#655,#667,#681,#693,#708,#721,#760,
#775,#816,#830,#842,#867,#881,#913,#928,#941,#959,#975,#989,#1001,#1015,#1027,
#1041,#1053,#1066,#1078,#1092,#1104,#1117,#1130,#1142,#1154,#1168,#1180));
#1182=MANIFOLD_SOLID_BREP('',#1181);
#1183=(LENGTH_UNIT()NAMED_UNIT(*)SI_UNIT(.MILLI.,.METRE.));
#1185=(NAMED_UNIT(*)PLANE_ANGLE_UNIT()SI_UNIT($,.RADIAN.));
#1188=(NAMED_UNIT(*)SI_UNIT($,.STERADIAN.)SOLID_ANGLE_UNIT());
#1191=ADVANCED_BREP_SHAPE_REPRESENTATION('',(#1182),#1190);
#1198=PRODUCT_DEFINITION('design','',#1197,#1194);
#1199=PRODUCT_DEFINITION_SHAPE('','SHAPE FOR CARJIACU2.',#1198);
#1200=SHAPE_DEFINITION_REPRESENTATION(#1199,#1191);
ENDSEC;
END-ISO-10303-21;
