ISO-10303-21;
HEADER;
FILE_DESCRIPTION((''),'2;1');
FILE_NAME('CAR','2026-05-27T09:10:29',('13763'),(''),
'CREO PARAMETRIC BY PTC INC, 2025102','CREO PARAMETRIC BY PTC INC, 2025102','');
FILE_SCHEMA(('CONFIG_CONTROL_DESIGN'));
ENDSEC;
DATA;
#1=DIRECTION('',(0.E0,0.E0,-1.E0));
#2=VECTOR('',#1,1.E1);
#3=CARTESIAN_POINT('',(1.025E1,0.E0,4.E0));
#4=LINE('',#3,#2);
#5=DIRECTION('',(0.E0,0.E0,1.E0));
#6=VECTOR('',#5,1.E1);
#7=CARTESIAN_POINT('',(6.75E0,0.E0,-6.E0));
#8=LINE('',#7,#6);
#9=CARTESIAN_POINT('',(-8.5E0,0.E0,-6.E0));
#10=DIRECTION('',(0.E0,0.E0,-1.E0));
#11=DIRECTION('',(1.E0,0.E0,0.E0));
#12=AXIS2_PLACEMENT_3D('',#9,#10,#11);
#14=CARTESIAN_POINT('',(-8.5E0,0.E0,-6.E0));
#15=DIRECTION('',(0.E0,0.E0,-1.E0));
#16=DIRECTION('',(-1.E0,0.E0,0.E0));
#17=AXIS2_PLACEMENT_3D('',#14,#15,#16);
#19=CARTESIAN_POINT('',(8.5E0,0.E0,-6.E0));
#20=DIRECTION('',(0.E0,0.E0,-1.E0));
#21=DIRECTION('',(1.E0,0.E0,0.E0));
#22=AXIS2_PLACEMENT_3D('',#19,#20,#21);
#24=CARTESIAN_POINT('',(8.5E0,0.E0,-6.E0));
#25=DIRECTION('',(0.E0,0.E0,-1.E0));
#26=DIRECTION('',(-1.E0,0.E0,0.E0));
#27=AXIS2_PLACEMENT_3D('',#24,#25,#26);
#29=CARTESIAN_POINT('',(0.E0,0.E0,-6.E0));
#30=DIRECTION('',(0.E0,0.E0,-1.E0));
#31=DIRECTION('',(1.E0,0.E0,0.E0));
#32=AXIS2_PLACEMENT_3D('',#29,#30,#31);
#34=CARTESIAN_POINT('',(0.E0,0.E0,-6.E0));
#35=DIRECTION('',(0.E0,0.E0,-1.E0));
#36=DIRECTION('',(-1.E0,0.E0,0.E0));
#37=AXIS2_PLACEMENT_3D('',#34,#35,#36);
#39=DIRECTION('',(0.E0,1.E0,0.E0));
#40=VECTOR('',#39,2.05E1);
#41=CARTESIAN_POINT('',(1.75E1,-2.05E1,-6.E0));
#42=LINE('',#41,#40);
#43=CARTESIAN_POINT('',(0.E0,0.E0,-6.E0));
#44=DIRECTION('',(0.E0,0.E0,1.E0));
#45=DIRECTION('',(1.E0,0.E0,0.E0));
#46=AXIS2_PLACEMENT_3D('',#43,#44,#45);
#48=DIRECTION('',(0.E0,-1.E0,0.E0));
#49=VECTOR('',#48,2.05E1);
#50=CARTESIAN_POINT('',(-1.75E1,0.E0,-6.E0));
#51=LINE('',#50,#49);
#52=DIRECTION('',(0.E0,0.E0,-1.E0));
#53=VECTOR('',#52,1.E1);
#54=CARTESIAN_POINT('',(-6.75E0,0.E0,4.E0));
#55=LINE('',#54,#53);
#56=DIRECTION('',(0.E0,0.E0,1.E0));
#57=VECTOR('',#56,1.E1);
#58=CARTESIAN_POINT('',(-1.025E1,0.E0,-6.E0));
#59=LINE('',#58,#57);
#60=CARTESIAN_POINT('',(8.5E0,0.E0,4.E0));
#61=DIRECTION('',(0.E0,0.E0,1.E0));
#62=DIRECTION('',(-1.E0,0.E0,0.E0));
#63=AXIS2_PLACEMENT_3D('',#60,#61,#62);
#65=CARTESIAN_POINT('',(8.5E0,0.E0,4.E0));
#66=DIRECTION('',(0.E0,0.E0,1.E0));
#67=DIRECTION('',(1.E0,0.E0,0.E0));
#68=AXIS2_PLACEMENT_3D('',#65,#66,#67);
#70=CARTESIAN_POINT('',(-8.5E0,0.E0,4.E0));
#71=DIRECTION('',(0.E0,0.E0,1.E0));
#72=DIRECTION('',(-1.E0,0.E0,0.E0));
#73=AXIS2_PLACEMENT_3D('',#70,#71,#72);
#75=CARTESIAN_POINT('',(-8.5E0,0.E0,4.E0));
#76=DIRECTION('',(0.E0,0.E0,1.E0));
#77=DIRECTION('',(1.E0,0.E0,0.E0));
#78=AXIS2_PLACEMENT_3D('',#75,#76,#77);
#80=CARTESIAN_POINT('',(0.E0,0.E0,4.E0));
#81=DIRECTION('',(0.E0,0.E0,1.E0));
#82=DIRECTION('',(-1.E0,0.E0,0.E0));
#83=AXIS2_PLACEMENT_3D('',#80,#81,#82);
#85=CARTESIAN_POINT('',(0.E0,0.E0,4.E0));
#86=DIRECTION('',(0.E0,0.E0,1.E0));
#87=DIRECTION('',(1.E0,0.E0,0.E0));
#88=AXIS2_PLACEMENT_3D('',#85,#86,#87);
#90=DIRECTION('',(0.E0,-1.E0,0.E0));
#91=VECTOR('',#90,1.4E1);
#92=CARTESIAN_POINT('',(5.E1,-2.05E1,4.E0));
#93=LINE('',#92,#91);
#94=DIRECTION('',(0.E0,1.E0,0.E0));
#95=VECTOR('',#94,1.4E1);
#96=CARTESIAN_POINT('',(-5.E1,-3.45E1,4.E0));
#97=LINE('',#96,#95);
#98=DIRECTION('',(1.E0,0.E0,0.E0));
#99=VECTOR('',#98,3.25E1);
#100=CARTESIAN_POINT('',(-5.E1,-2.05E1,4.E0));
#101=LINE('',#100,#99);
#102=DIRECTION('',(0.E0,1.E0,0.E0));
#103=VECTOR('',#102,2.05E1);
#104=CARTESIAN_POINT('',(-1.75E1,-2.05E1,4.E0));
#105=LINE('',#104,#103);
#106=CARTESIAN_POINT('',(0.E0,0.E0,4.E0));
#107=DIRECTION('',(0.E0,0.E0,-1.E0));
#108=DIRECTION('',(-1.E0,0.E0,0.E0));
#109=AXIS2_PLACEMENT_3D('',#106,#107,#108);
#111=DIRECTION('',(0.E0,-1.E0,0.E0));
#112=VECTOR('',#111,2.05E1);
#113=CARTESIAN_POINT('',(1.75E1,0.E0,4.E0));
#114=LINE('',#113,#112);
#115=DIRECTION('',(1.E0,0.E0,0.E0));
#116=VECTOR('',#115,3.25E1);
#117=CARTESIAN_POINT('',(1.75E1,-2.05E1,4.E0));
#118=LINE('',#117,#116);
#119=DIRECTION('',(0.E0,0.E0,-1.E0));
#120=VECTOR('',#119,1.E1);
#121=CARTESIAN_POINT('',(4.E0,0.E0,4.E0));
#122=LINE('',#121,#120);
#123=DIRECTION('',(0.E0,0.E0,1.E0));
#124=VECTOR('',#123,1.E1);
#125=CARTESIAN_POINT('',(-4.E0,0.E0,-6.E0));
#126=LINE('',#125,#124);
#127=DIRECTION('',(0.E0,-1.E0,0.E0));
#128=VECTOR('',#127,1.4E1);
#129=CARTESIAN_POINT('',(5.E1,-2.05E1,-1.36E2));
#130=LINE('',#129,#128);
#131=DIRECTION('',(0.E0,0.E0,-1.E0));
#132=VECTOR('',#131,1.4E2);
#133=CARTESIAN_POINT('',(5.E1,-2.05E1,4.E0));
#134=LINE('',#133,#132);
#135=CARTESIAN_POINT('',(8.5E0,0.E0,-1.36E2));
#136=DIRECTION('',(0.E0,0.E0,1.E0));
#137=DIRECTION('',(-1.E0,0.E0,0.E0));
#138=AXIS2_PLACEMENT_3D('',#135,#136,#137);
#140=CARTESIAN_POINT('',(8.5E0,0.E0,-1.36E2));
#141=DIRECTION('',(0.E0,0.E0,1.E0));
#142=DIRECTION('',(1.E0,0.E0,0.E0));
#143=AXIS2_PLACEMENT_3D('',#140,#141,#142);
#145=CARTESIAN_POINT('',(-8.5E0,0.E0,-1.36E2));
#146=DIRECTION('',(0.E0,0.E0,1.E0));
#147=DIRECTION('',(-1.E0,0.E0,0.E0));
#148=AXIS2_PLACEMENT_3D('',#145,#146,#147);
#150=CARTESIAN_POINT('',(-8.5E0,0.E0,-1.36E2));
#151=DIRECTION('',(0.E0,0.E0,1.E0));
#152=DIRECTION('',(1.E0,0.E0,0.E0));
#153=AXIS2_PLACEMENT_3D('',#150,#151,#152);
#155=CARTESIAN_POINT('',(0.E0,0.E0,-1.36E2));
#156=DIRECTION('',(0.E0,0.E0,-1.E0));
#157=DIRECTION('',(1.E0,0.E0,0.E0));
#158=AXIS2_PLACEMENT_3D('',#155,#156,#157);
#160=CARTESIAN_POINT('',(0.E0,0.E0,-1.36E2));
#161=DIRECTION('',(0.E0,0.E0,-1.E0));
#162=DIRECTION('',(-1.E0,0.E0,0.E0));
#163=AXIS2_PLACEMENT_3D('',#160,#161,#162);
#165=DIRECTION('',(0.E0,-1.E0,0.E0));
#166=VECTOR('',#165,1.4E1);
#167=CARTESIAN_POINT('',(-5.E1,-2.05E1,-1.36E2));
#168=LINE('',#167,#166);
#169=DIRECTION('',(-1.E0,0.E0,0.E0));
#170=VECTOR('',#169,3.25E1);
#171=CARTESIAN_POINT('',(5.E1,-2.05E1,-1.36E2));
#172=LINE('',#171,#170);
#173=DIRECTION('',(0.E0,-1.E0,0.E0));
#174=VECTOR('',#173,2.05E1);
#175=CARTESIAN_POINT('',(1.75E1,0.E0,-1.36E2));
#176=LINE('',#175,#174);
#177=CARTESIAN_POINT('',(0.E0,0.E0,-1.36E2));
#178=DIRECTION('',(0.E0,0.E0,-1.E0));
#179=DIRECTION('',(-1.E0,0.E0,0.E0));
#180=AXIS2_PLACEMENT_3D('',#177,#178,#179);
#182=DIRECTION('',(0.E0,1.E0,0.E0));
#183=VECTOR('',#182,2.05E1);
#184=CARTESIAN_POINT('',(-1.75E1,-2.05E1,-1.36E2));
#185=LINE('',#184,#183);
#186=DIRECTION('',(-1.E0,0.E0,0.E0));
#187=VECTOR('',#186,3.25E1);
#188=CARTESIAN_POINT('',(-1.75E1,-2.05E1,-1.36E2));
#189=LINE('',#188,#187);
#190=DIRECTION('',(0.E0,0.E0,-1.E0));
#191=VECTOR('',#190,1.E1);
#192=CARTESIAN_POINT('',(1.025E1,0.E0,-1.26E2));
#193=LINE('',#192,#191);
#194=DIRECTION('',(0.E0,0.E0,1.E0));
#195=VECTOR('',#194,1.E1);
#196=CARTESIAN_POINT('',(6.75E0,0.E0,-1.36E2));
#197=LINE('',#196,#195);
#198=CARTESIAN_POINT('',(8.5E0,0.E0,-1.26E2));
#199=DIRECTION('',(0.E0,0.E0,1.E0));
#200=DIRECTION('',(-1.E0,0.E0,0.E0));
#201=AXIS2_PLACEMENT_3D('',#198,#199,#200);
#203=CARTESIAN_POINT('',(8.5E0,0.E0,-1.26E2));
#204=DIRECTION('',(0.E0,0.E0,1.E0));
#205=DIRECTION('',(1.E0,0.E0,0.E0));
#206=AXIS2_PLACEMENT_3D('',#203,#204,#205);
#208=CARTESIAN_POINT('',(-8.5E0,0.E0,-1.26E2));
#209=DIRECTION('',(0.E0,0.E0,1.E0));
#210=DIRECTION('',(-1.E0,0.E0,0.E0));
#211=AXIS2_PLACEMENT_3D('',#208,#209,#210);
#213=CARTESIAN_POINT('',(-8.5E0,0.E0,-1.26E2));
#214=DIRECTION('',(0.E0,0.E0,1.E0));
#215=DIRECTION('',(1.E0,0.E0,0.E0));
#216=AXIS2_PLACEMENT_3D('',#213,#214,#215);
#218=CARTESIAN_POINT('',(0.E0,0.E0,-1.26E2));
#219=DIRECTION('',(0.E0,0.E0,1.E0));
#220=DIRECTION('',(-1.E0,0.E0,0.E0));
#221=AXIS2_PLACEMENT_3D('',#218,#219,#220);
#223=CARTESIAN_POINT('',(0.E0,0.E0,-1.26E2));
#224=DIRECTION('',(0.E0,0.E0,1.E0));
#225=DIRECTION('',(1.E0,0.E0,0.E0));
#226=AXIS2_PLACEMENT_3D('',#223,#224,#225);
#228=DIRECTION('',(0.E0,1.E0,0.E0));
#229=VECTOR('',#228,2.05E1);
#230=CARTESIAN_POINT('',(-1.75E1,-2.05E1,-1.26E2));
#231=LINE('',#230,#229);
#232=CARTESIAN_POINT('',(0.E0,0.E0,-1.26E2));
#233=DIRECTION('',(0.E0,0.E0,-1.E0));
#234=DIRECTION('',(-1.E0,0.E0,0.E0));
#235=AXIS2_PLACEMENT_3D('',#232,#233,#234);
#237=DIRECTION('',(0.E0,-1.E0,0.E0));
#238=VECTOR('',#237,2.05E1);
#239=CARTESIAN_POINT('',(1.75E1,0.E0,-1.26E2));
#240=LINE('',#239,#238);
#241=DIRECTION('',(0.E0,0.E0,-1.E0));
#242=VECTOR('',#241,1.E1);
#243=CARTESIAN_POINT('',(-6.75E0,0.E0,-1.26E2));
#244=LINE('',#243,#242);
#245=DIRECTION('',(0.E0,0.E0,1.E0));
#246=VECTOR('',#245,1.E1);
#247=CARTESIAN_POINT('',(-1.025E1,0.E0,-1.36E2));
#248=LINE('',#247,#246);
#249=DIRECTION('',(0.E0,0.E0,1.E0));
#250=VECTOR('',#249,1.E1);
#251=CARTESIAN_POINT('',(-4.E0,0.E0,-1.36E2));
#252=LINE('',#251,#250);
#253=DIRECTION('',(0.E0,0.E0,-1.E0));
#254=VECTOR('',#253,1.E1);
#255=CARTESIAN_POINT('',(4.E0,0.E0,-1.26E2));
#256=LINE('',#255,#254);
#257=DIRECTION('',(-1.E0,0.E0,0.E0));
#258=VECTOR('',#257,3.5E1);
#259=CARTESIAN_POINT('',(1.75E1,-2.05E1,-1.26E2));
#260=LINE('',#259,#258);
#261=DIRECTION('',(0.E0,0.E0,1.E0));
#262=VECTOR('',#261,1.E1);
#263=CARTESIAN_POINT('',(1.75E1,-2.05E1,-1.36E2));
#264=LINE('',#263,#262);
#265=DIRECTION('',(1.E0,0.E0,0.E0));
#266=VECTOR('',#265,3.5E1);
#267=CARTESIAN_POINT('',(-1.75E1,-2.05E1,-6.E0));
#268=LINE('',#267,#266);
#269=DIRECTION('',(0.E0,0.E0,1.E0));
#270=VECTOR('',#269,1.E1);
#271=CARTESIAN_POINT('',(-1.75E1,-2.05E1,-1.36E2));
#272=LINE('',#271,#270);
#273=DIRECTION('',(0.E0,0.E0,1.E0));
#274=VECTOR('',#273,1.E1);
#275=CARTESIAN_POINT('',(1.75E1,0.E0,-1.36E2));
#276=LINE('',#275,#274);
#277=DIRECTION('',(0.E0,0.E0,1.E0));
#278=VECTOR('',#277,1.E1);
#279=CARTESIAN_POINT('',(-1.75E1,0.E0,-1.36E2));
#280=LINE('',#279,#278);
#281=DIRECTION('',(0.E0,0.E0,1.E0));
#282=VECTOR('',#281,1.E1);
#283=CARTESIAN_POINT('',(1.75E1,-2.05E1,-6.E0));
#284=LINE('',#283,#282);
#285=DIRECTION('',(0.E0,0.E0,-1.E0));
#286=VECTOR('',#285,1.E1);
#287=CARTESIAN_POINT('',(-1.75E1,0.E0,4.E0));
#288=LINE('',#287,#286);
#289=DIRECTION('',(0.E0,0.E0,1.E0));
#290=VECTOR('',#289,1.E1);
#291=CARTESIAN_POINT('',(1.75E1,0.E0,-6.E0));
#292=LINE('',#291,#290);
#293=DIRECTION('',(0.E0,0.E0,-1.E0));
#294=VECTOR('',#293,1.E1);
#295=CARTESIAN_POINT('',(-1.75E1,-2.05E1,4.E0));
#296=LINE('',#295,#294);
#297=DIRECTION('',(0.E0,0.E0,1.E0));
#298=VECTOR('',#297,1.4E2);
#299=CARTESIAN_POINT('',(-5.E1,-2.05E1,-1.36E2));
#300=LINE('',#299,#298);
#301=DIRECTION('',(0.E0,0.E0,-1.E0));
#302=VECTOR('',#301,1.4E2);
#303=CARTESIAN_POINT('',(-5.E1,-3.45E1,4.E0));
#304=LINE('',#303,#302);
#305=DIRECTION('',(-1.E0,0.E0,0.E0));
#306=VECTOR('',#305,1.E2);
#307=CARTESIAN_POINT('',(5.E1,-3.45E1,4.E0));
#308=LINE('',#307,#306);
#309=DIRECTION('',(0.E0,0.E0,1.E0));
#310=VECTOR('',#309,1.4E2);
#311=CARTESIAN_POINT('',(5.E1,-3.45E1,-1.36E2));
#312=LINE('',#311,#310);
#313=DIRECTION('',(1.E0,0.E0,0.E0));
#314=VECTOR('',#313,1.E2);
#315=CARTESIAN_POINT('',(-5.E1,-3.45E1,-1.36E2));
#316=LINE('',#315,#314);
#317=CARTESIAN_POINT('',(-4.E0,0.E0,4.E0));
#318=CARTESIAN_POINT('',(4.E0,0.E0,4.E0));
#319=VERTEX_POINT('',#317);
#320=VERTEX_POINT('',#318);
#321=CARTESIAN_POINT('',(5.E1,-2.05E1,4.E0));
#322=CARTESIAN_POINT('',(5.E1,-2.05E1,-1.36E2));
#323=VERTEX_POINT('',#321);
#324=VERTEX_POINT('',#322);
#325=CARTESIAN_POINT('',(-5.E1,-2.05E1,-1.36E2));
#326=CARTESIAN_POINT('',(-5.E1,-2.05E1,4.E0));
#327=VERTEX_POINT('',#325);
#328=VERTEX_POINT('',#326);
#329=CARTESIAN_POINT('',(4.E0,0.E0,-1.36E2));
#330=CARTESIAN_POINT('',(-4.E0,0.E0,-1.36E2));
#331=VERTEX_POINT('',#329);
#332=VERTEX_POINT('',#330);
#333=CARTESIAN_POINT('',(6.75E0,0.E0,4.E0));
#334=CARTESIAN_POINT('',(1.025E1,0.E0,4.E0));
#335=VERTEX_POINT('',#333);
#336=VERTEX_POINT('',#334);
#337=CARTESIAN_POINT('',(-1.025E1,0.E0,4.E0));
#338=CARTESIAN_POINT('',(-6.75E0,0.E0,4.E0));
#339=VERTEX_POINT('',#337);
#340=VERTEX_POINT('',#338);
#341=CARTESIAN_POINT('',(-1.75E1,0.E0,4.E0));
#342=CARTESIAN_POINT('',(1.75E1,0.E0,4.E0));
#343=VERTEX_POINT('',#341);
#344=VERTEX_POINT('',#342);
#345=CARTESIAN_POINT('',(1.75E1,-2.05E1,4.E0));
#346=VERTEX_POINT('',#345);
#347=CARTESIAN_POINT('',(-1.75E1,-2.05E1,4.E0));
#348=VERTEX_POINT('',#347);
#349=CARTESIAN_POINT('',(-6.75E0,0.E0,-6.E0));
#350=CARTESIAN_POINT('',(-1.025E1,0.E0,-6.E0));
#351=VERTEX_POINT('',#349);
#352=VERTEX_POINT('',#350);
#353=CARTESIAN_POINT('',(1.025E1,0.E0,-6.E0));
#354=CARTESIAN_POINT('',(6.75E0,0.E0,-6.E0));
#355=VERTEX_POINT('',#353);
#356=VERTEX_POINT('',#354);
#357=CARTESIAN_POINT('',(4.E0,0.E0,-6.E0));
#358=CARTESIAN_POINT('',(-4.E0,0.E0,-6.E0));
#359=VERTEX_POINT('',#357);
#360=VERTEX_POINT('',#358);
#361=CARTESIAN_POINT('',(1.75E1,0.E0,-6.E0));
#362=CARTESIAN_POINT('',(-1.75E1,0.E0,-6.E0));
#363=VERTEX_POINT('',#361);
#364=VERTEX_POINT('',#362);
#365=CARTESIAN_POINT('',(-1.75E1,-2.05E1,-6.E0));
#366=CARTESIAN_POINT('',(1.75E1,-2.05E1,-6.E0));
#367=VERTEX_POINT('',#365);
#368=VERTEX_POINT('',#366);
#369=CARTESIAN_POINT('',(6.75E0,0.E0,-1.36E2));
#370=CARTESIAN_POINT('',(1.025E1,0.E0,-1.36E2));
#371=VERTEX_POINT('',#369);
#372=VERTEX_POINT('',#370);
#373=CARTESIAN_POINT('',(-1.025E1,0.E0,-1.36E2));
#374=CARTESIAN_POINT('',(-6.75E0,0.E0,-1.36E2));
#375=VERTEX_POINT('',#373);
#376=VERTEX_POINT('',#374);
#377=CARTESIAN_POINT('',(-1.75E1,0.E0,-1.36E2));
#378=CARTESIAN_POINT('',(1.75E1,0.E0,-1.36E2));
#379=VERTEX_POINT('',#377);
#380=VERTEX_POINT('',#378);
#381=CARTESIAN_POINT('',(6.75E0,0.E0,-1.26E2));
#382=CARTESIAN_POINT('',(1.025E1,0.E0,-1.26E2));
#383=VERTEX_POINT('',#381);
#384=VERTEX_POINT('',#382);
#385=CARTESIAN_POINT('',(-1.025E1,0.E0,-1.26E2));
#386=CARTESIAN_POINT('',(-6.75E0,0.E0,-1.26E2));
#387=VERTEX_POINT('',#385);
#388=VERTEX_POINT('',#386);
#389=CARTESIAN_POINT('',(-4.E0,0.E0,-1.26E2));
#390=CARTESIAN_POINT('',(4.E0,0.E0,-1.26E2));
#391=VERTEX_POINT('',#389);
#392=VERTEX_POINT('',#390);
#393=CARTESIAN_POINT('',(-1.75E1,0.E0,-1.26E2));
#394=CARTESIAN_POINT('',(1.75E1,0.E0,-1.26E2));
#395=VERTEX_POINT('',#393);
#396=VERTEX_POINT('',#394);
#397=CARTESIAN_POINT('',(1.75E1,-2.05E1,-1.26E2));
#398=CARTESIAN_POINT('',(-1.75E1,-2.05E1,-1.26E2));
#399=VERTEX_POINT('',#397);
#400=VERTEX_POINT('',#398);
#401=CARTESIAN_POINT('',(1.75E1,-2.05E1,-1.36E2));
#402=VERTEX_POINT('',#401);
#403=CARTESIAN_POINT('',(-1.75E1,-2.05E1,-1.36E2));
#404=VERTEX_POINT('',#403);
#405=CARTESIAN_POINT('',(-5.E1,-3.45E1,4.E0));
#406=CARTESIAN_POINT('',(-5.E1,-3.45E1,-1.36E2));
#407=VERTEX_POINT('',#405);
#408=VERTEX_POINT('',#406);
#409=CARTESIAN_POINT('',(5.E1,-3.45E1,-1.36E2));
#410=VERTEX_POINT('',#409);
#411=CARTESIAN_POINT('',(5.E1,-3.45E1,4.E0));
#412=VERTEX_POINT('',#411);
#413=CARTESIAN_POINT('',(8.5E0,0.E0,0.E0));
#414=DIRECTION('',(0.E0,0.E0,-1.E0));
#415=DIRECTION('',(1.E0,0.E0,0.E0));
#416=AXIS2_PLACEMENT_3D('',#413,#414,#415);
#417=CYLINDRICAL_SURFACE('',#416,1.75E0);
#419=ORIENTED_EDGE('',*,*,#418,.T.);
#421=ORIENTED_EDGE('',*,*,#420,.F.);
#423=ORIENTED_EDGE('',*,*,#422,.T.);
#425=ORIENTED_EDGE('',*,*,#424,.F.);
#426=EDGE_LOOP('',(#419,#421,#423,#425));
#427=FACE_OUTER_BOUND('',#426,.F.);
#428=ADVANCED_FACE('',(#427),#417,.F.);
#429=CARTESIAN_POINT('',(8.5E0,0.E0,0.E0));
#430=DIRECTION('',(0.E0,0.E0,-1.E0));
#431=DIRECTION('',(1.E0,0.E0,0.E0));
#432=AXIS2_PLACEMENT_3D('',#429,#430,#431);
#433=CYLINDRICAL_SURFACE('',#432,1.75E0);
#434=ORIENTED_EDGE('',*,*,#422,.F.);
#436=ORIENTED_EDGE('',*,*,#435,.F.);
#437=ORIENTED_EDGE('',*,*,#418,.F.);
#439=ORIENTED_EDGE('',*,*,#438,.F.);
#440=EDGE_LOOP('',(#434,#436,#437,#439));
#441=FACE_OUTER_BOUND('',#440,.F.);
#442=ADVANCED_FACE('',(#441),#433,.F.);
#443=CARTESIAN_POINT('',(0.E0,0.E0,-6.E0));
#444=DIRECTION('',(0.E0,0.E0,1.E0));
#445=DIRECTION('',(1.E0,0.E0,0.E0));
#446=AXIS2_PLACEMENT_3D('',#443,#444,#445);
#447=PLANE('',#446);
#449=ORIENTED_EDGE('',*,*,#448,.T.);
#451=ORIENTED_EDGE('',*,*,#450,.T.);
#453=ORIENTED_EDGE('',*,*,#452,.T.);
#455=ORIENTED_EDGE('',*,*,#454,.T.);
#456=EDGE_LOOP('',(#449,#451,#453,#455));
#457=FACE_OUTER_BOUND('',#456,.F.);
#458=ORIENTED_EDGE('',*,*,#435,.T.);
#459=ORIENTED_EDGE('',*,*,#420,.T.);
#460=EDGE_LOOP('',(#458,#459));
#461=FACE_BOUND('',#460,.F.);
#463=ORIENTED_EDGE('',*,*,#462,.T.);
#465=ORIENTED_EDGE('',*,*,#464,.T.);
#466=EDGE_LOOP('',(#463,#465));
#467=FACE_BOUND('',#466,.F.);
#469=ORIENTED_EDGE('',*,*,#468,.T.);
#471=ORIENTED_EDGE('',*,*,#470,.T.);
#472=EDGE_LOOP('',(#469,#471));
#473=FACE_BOUND('',#472,.F.);
#474=ADVANCED_FACE('',(#457,#461,#467,#473),#447,.F.);
#475=CARTESIAN_POINT('',(-8.5E0,0.E0,0.E0));
#476=DIRECTION('',(0.E0,0.E0,-1.E0));
#477=DIRECTION('',(1.E0,0.E0,0.E0));
#478=AXIS2_PLACEMENT_3D('',#475,#476,#477);
#479=CYLINDRICAL_SURFACE('',#478,1.75E0);
#481=ORIENTED_EDGE('',*,*,#480,.F.);
#482=ORIENTED_EDGE('',*,*,#468,.F.);
#484=ORIENTED_EDGE('',*,*,#483,.F.);
#486=ORIENTED_EDGE('',*,*,#485,.F.);
#487=EDGE_LOOP('',(#481,#482,#484,#486));
#488=FACE_OUTER_BOUND('',#487,.F.);
#489=ADVANCED_FACE('',(#488),#479,.F.);
#490=CARTESIAN_POINT('',(-8.5E0,0.E0,0.E0));
#491=DIRECTION('',(0.E0,0.E0,-1.E0));
#492=DIRECTION('',(1.E0,0.E0,0.E0));
#493=AXIS2_PLACEMENT_3D('',#490,#491,#492);
#494=CYLINDRICAL_SURFACE('',#493,1.75E0);
#495=ORIENTED_EDGE('',*,*,#483,.T.);
#496=ORIENTED_EDGE('',*,*,#470,.F.);
#497=ORIENTED_EDGE('',*,*,#480,.T.);
#499=ORIENTED_EDGE('',*,*,#498,.F.);
#500=EDGE_LOOP('',(#495,#496,#497,#499));
#501=FACE_OUTER_BOUND('',#500,.F.);
#502=ADVANCED_FACE('',(#501),#494,.F.);
#503=CARTESIAN_POINT('',(0.E0,0.E0,4.E0));
#504=DIRECTION('',(0.E0,0.E0,1.E0));
#505=DIRECTION('',(1.E0,0.E0,0.E0));
#506=AXIS2_PLACEMENT_3D('',#503,#504,#505);
#507=PLANE('',#506);
#509=ORIENTED_EDGE('',*,*,#508,.T.);
#511=ORIENTED_EDGE('',*,*,#510,.T.);
#513=ORIENTED_EDGE('',*,*,#512,.T.);
#515=ORIENTED_EDGE('',*,*,#514,.T.);
#517=ORIENTED_EDGE('',*,*,#516,.T.);
#519=ORIENTED_EDGE('',*,*,#518,.T.);
#521=ORIENTED_EDGE('',*,*,#520,.T.);
#523=ORIENTED_EDGE('',*,*,#522,.T.);
#524=EDGE_LOOP('',(#509,#511,#513,#515,#517,#519,#521,#523));
#525=FACE_OUTER_BOUND('',#524,.F.);
#526=ORIENTED_EDGE('',*,*,#485,.T.);
#527=ORIENTED_EDGE('',*,*,#498,.T.);
#528=EDGE_LOOP('',(#526,#527));
#529=FACE_BOUND('',#528,.F.);
#531=ORIENTED_EDGE('',*,*,#530,.T.);
#533=ORIENTED_EDGE('',*,*,#532,.T.);
#534=EDGE_LOOP('',(#531,#533));
#535=FACE_BOUND('',#534,.F.);
#536=ORIENTED_EDGE('',*,*,#438,.T.);
#537=ORIENTED_EDGE('',*,*,#424,.T.);
#538=EDGE_LOOP('',(#536,#537));
#539=FACE_BOUND('',#538,.F.);
#540=ADVANCED_FACE('',(#525,#529,#535,#539),#507,.T.);
#541=CARTESIAN_POINT('',(0.E0,0.E0,0.E0));
#542=DIRECTION('',(0.E0,0.E0,1.E0));
#543=DIRECTION('',(1.E0,0.E0,0.E0));
#544=AXIS2_PLACEMENT_3D('',#541,#542,#543);
#545=CYLINDRICAL_SURFACE('',#544,4.E0);
#547=ORIENTED_EDGE('',*,*,#546,.F.);
#548=ORIENTED_EDGE('',*,*,#462,.F.);
#550=ORIENTED_EDGE('',*,*,#549,.F.);
#551=ORIENTED_EDGE('',*,*,#530,.F.);
#552=EDGE_LOOP('',(#547,#548,#550,#551));
#553=FACE_OUTER_BOUND('',#552,.F.);
#554=ADVANCED_FACE('',(#553),#545,.F.);
#555=CARTESIAN_POINT('',(0.E0,0.E0,0.E0));
#556=DIRECTION('',(0.E0,0.E0,1.E0));
#557=DIRECTION('',(1.E0,0.E0,0.E0));
#558=AXIS2_PLACEMENT_3D('',#555,#556,#557);
#559=CYLINDRICAL_SURFACE('',#558,4.E0);
#560=ORIENTED_EDGE('',*,*,#549,.T.);
#561=ORIENTED_EDGE('',*,*,#464,.F.);
#562=ORIENTED_EDGE('',*,*,#546,.T.);
#563=ORIENTED_EDGE('',*,*,#532,.F.);
#564=EDGE_LOOP('',(#560,#561,#562,#563));
#565=FACE_OUTER_BOUND('',#564,.F.);
#566=ADVANCED_FACE('',(#565),#559,.F.);
#567=CARTESIAN_POINT('',(5.E1,-2.45E1,-1.36E2));
#568=DIRECTION('',(1.E0,0.E0,0.E0));
#569=DIRECTION('',(0.E0,0.E0,1.E0));
#570=AXIS2_PLACEMENT_3D('',#567,#568,#569);
#571=PLANE('',#570);
#573=ORIENTED_EDGE('',*,*,#572,.T.);
#575=ORIENTED_EDGE('',*,*,#574,.T.);
#576=ORIENTED_EDGE('',*,*,#508,.F.);
#578=ORIENTED_EDGE('',*,*,#577,.T.);
#579=EDGE_LOOP('',(#573,#575,#576,#578));
#580=FACE_OUTER_BOUND('',#579,.F.);
#581=ADVANCED_FACE('',(#580),#571,.T.);
#582=CARTESIAN_POINT('',(0.E0,0.E0,-1.36E2));
#583=DIRECTION('',(0.E0,0.E0,1.E0));
#584=DIRECTION('',(1.E0,0.E0,0.E0));
#585=AXIS2_PLACEMENT_3D('',#582,#583,#584);
#586=PLANE('',#585);
#588=ORIENTED_EDGE('',*,*,#587,.T.);
#590=ORIENTED_EDGE('',*,*,#589,.T.);
#591=ORIENTED_EDGE('',*,*,#572,.F.);
#593=ORIENTED_EDGE('',*,*,#592,.T.);
#595=ORIENTED_EDGE('',*,*,#594,.F.);
#597=ORIENTED_EDGE('',*,*,#596,.F.);
#599=ORIENTED_EDGE('',*,*,#598,.F.);
#601=ORIENTED_EDGE('',*,*,#600,.T.);
#602=EDGE_LOOP('',(#588,#590,#591,#593,#595,#597,#599,#601));
#603=FACE_OUTER_BOUND('',#602,.F.);
#605=ORIENTED_EDGE('',*,*,#604,.F.);
#607=ORIENTED_EDGE('',*,*,#606,.F.);
#608=EDGE_LOOP('',(#605,#607));
#609=FACE_BOUND('',#608,.F.);
#611=ORIENTED_EDGE('',*,*,#610,.T.);
#613=ORIENTED_EDGE('',*,*,#612,.T.);
#614=EDGE_LOOP('',(#611,#613));
#615=FACE_BOUND('',#614,.F.);
#617=ORIENTED_EDGE('',*,*,#616,.F.);
#619=ORIENTED_EDGE('',*,*,#618,.F.);
#620=EDGE_LOOP('',(#617,#619));
#621=FACE_BOUND('',#620,.F.);
#622=ADVANCED_FACE('',(#603,#609,#615,#621),#586,.F.);
#623=CARTESIAN_POINT('',(8.5E0,0.E0,-1.32E2));
#624=DIRECTION('',(0.E0,0.E0,1.E0));
#625=DIRECTION('',(-1.E0,0.E0,0.E0));
#626=AXIS2_PLACEMENT_3D('',#623,#624,#625);
#627=CYLINDRICAL_SURFACE('',#626,1.75E0);
#629=ORIENTED_EDGE('',*,*,#628,.F.);
#630=ORIENTED_EDGE('',*,*,#616,.T.);
#632=ORIENTED_EDGE('',*,*,#631,.F.);
#634=ORIENTED_EDGE('',*,*,#633,.F.);
#635=EDGE_LOOP('',(#629,#630,#632,#634));
#636=FACE_OUTER_BOUND('',#635,.F.);
#637=ADVANCED_FACE('',(#636),#627,.F.);
#638=CARTESIAN_POINT('',(8.5E0,0.E0,-1.32E2));
#639=DIRECTION('',(0.E0,0.E0,1.E0));
#640=DIRECTION('',(-1.E0,0.E0,0.E0));
#641=AXIS2_PLACEMENT_3D('',#638,#639,#640);
#642=CYLINDRICAL_SURFACE('',#641,1.75E0);
#643=ORIENTED_EDGE('',*,*,#631,.T.);
#644=ORIENTED_EDGE('',*,*,#618,.T.);
#645=ORIENTED_EDGE('',*,*,#628,.T.);
#647=ORIENTED_EDGE('',*,*,#646,.F.);
#648=EDGE_LOOP('',(#643,#644,#645,#647));
#649=FACE_OUTER_BOUND('',#648,.F.);
#650=ADVANCED_FACE('',(#649),#642,.F.);
#651=CARTESIAN_POINT('',(0.E0,0.E0,-1.26E2));
#652=DIRECTION('',(0.E0,0.E0,-1.E0));
#653=DIRECTION('',(-1.E0,0.E0,0.E0));
#654=AXIS2_PLACEMENT_3D('',#651,#652,#653);
#655=PLANE('',#654);
#657=ORIENTED_EDGE('',*,*,#656,.T.);
#659=ORIENTED_EDGE('',*,*,#658,.T.);
#661=ORIENTED_EDGE('',*,*,#660,.T.);
#663=ORIENTED_EDGE('',*,*,#662,.T.);
#664=EDGE_LOOP('',(#657,#659,#661,#663));
#665=FACE_OUTER_BOUND('',#664,.F.);
#667=ORIENTED_EDGE('',*,*,#666,.T.);
#669=ORIENTED_EDGE('',*,*,#668,.T.);
#670=EDGE_LOOP('',(#667,#669));
#671=FACE_BOUND('',#670,.F.);
#673=ORIENTED_EDGE('',*,*,#672,.T.);
#675=ORIENTED_EDGE('',*,*,#674,.T.);
#676=EDGE_LOOP('',(#673,#675));
#677=FACE_BOUND('',#676,.F.);
#678=ORIENTED_EDGE('',*,*,#633,.T.);
#679=ORIENTED_EDGE('',*,*,#646,.T.);
#680=EDGE_LOOP('',(#678,#679));
#681=FACE_BOUND('',#680,.F.);
#682=ADVANCED_FACE('',(#665,#671,#677,#681),#655,.F.);
#683=CARTESIAN_POINT('',(-8.5E0,0.E0,-1.32E2));
#684=DIRECTION('',(0.E0,0.E0,1.E0));
#685=DIRECTION('',(-1.E0,0.E0,0.E0));
#686=AXIS2_PLACEMENT_3D('',#683,#684,#685);
#687=CYLINDRICAL_SURFACE('',#686,1.75E0);
#689=ORIENTED_EDGE('',*,*,#688,.F.);
#690=ORIENTED_EDGE('',*,*,#604,.T.);
#692=ORIENTED_EDGE('',*,*,#691,.F.);
#693=ORIENTED_EDGE('',*,*,#666,.F.);
#694=EDGE_LOOP('',(#689,#690,#692,#693));
#695=FACE_OUTER_BOUND('',#694,.F.);
#696=ADVANCED_FACE('',(#695),#687,.F.);
#697=CARTESIAN_POINT('',(-8.5E0,0.E0,-1.32E2));
#698=DIRECTION('',(0.E0,0.E0,1.E0));
#699=DIRECTION('',(-1.E0,0.E0,0.E0));
#700=AXIS2_PLACEMENT_3D('',#697,#698,#699);
#701=CYLINDRICAL_SURFACE('',#700,1.75E0);
#702=ORIENTED_EDGE('',*,*,#691,.T.);
#703=ORIENTED_EDGE('',*,*,#606,.T.);
#704=ORIENTED_EDGE('',*,*,#688,.T.);
#705=ORIENTED_EDGE('',*,*,#668,.F.);
#706=EDGE_LOOP('',(#702,#703,#704,#705));
#707=FACE_OUTER_BOUND('',#706,.F.);
#708=ADVANCED_FACE('',(#707),#701,.F.);
#709=CARTESIAN_POINT('',(0.E0,0.E0,-1.32E2));
#710=DIRECTION('',(0.E0,0.E0,1.E0));
#711=DIRECTION('',(1.E0,0.E0,0.E0));
#712=AXIS2_PLACEMENT_3D('',#709,#710,#711);
#713=CYLINDRICAL_SURFACE('',#712,4.E0);
#715=ORIENTED_EDGE('',*,*,#714,.F.);
#716=ORIENTED_EDGE('',*,*,#672,.F.);
#718=ORIENTED_EDGE('',*,*,#717,.F.);
#719=ORIENTED_EDGE('',*,*,#610,.F.);
#720=EDGE_LOOP('',(#715,#716,#718,#719));
#721=FACE_OUTER_BOUND('',#720,.F.);
#722=ADVANCED_FACE('',(#721),#713,.F.);
#723=CARTESIAN_POINT('',(0.E0,0.E0,-1.32E2));
#724=DIRECTION('',(0.E0,0.E0,1.E0));
#725=DIRECTION('',(1.E0,0.E0,0.E0));
#726=AXIS2_PLACEMENT_3D('',#723,#724,#725);
#727=CYLINDRICAL_SURFACE('',#726,4.E0);
#728=ORIENTED_EDGE('',*,*,#717,.T.);
#729=ORIENTED_EDGE('',*,*,#674,.F.);
#730=ORIENTED_EDGE('',*,*,#714,.T.);
#731=ORIENTED_EDGE('',*,*,#612,.F.);
#732=EDGE_LOOP('',(#728,#729,#730,#731));
#733=FACE_OUTER_BOUND('',#732,.F.);
#734=ADVANCED_FACE('',(#733),#727,.F.);
#735=CARTESIAN_POINT('',(-1.75E1,-2.05E1,-1.36E2));
#736=DIRECTION('',(-1.E0,0.E0,0.E0));
#737=DIRECTION('',(0.E0,1.E0,0.E0));
#738=AXIS2_PLACEMENT_3D('',#735,#736,#737);
#739=PLANE('',#738);
#741=ORIENTED_EDGE('',*,*,#740,.F.);
#742=ORIENTED_EDGE('',*,*,#598,.T.);
#744=ORIENTED_EDGE('',*,*,#743,.T.);
#745=ORIENTED_EDGE('',*,*,#656,.F.);
#746=EDGE_LOOP('',(#741,#742,#744,#745));
#747=FACE_OUTER_BOUND('',#746,.F.);
#748=ADVANCED_FACE('',(#747),#739,.T.);
#749=CARTESIAN_POINT('',(0.E0,-2.05E1,0.E0));
#750=DIRECTION('',(0.E0,-1.E0,0.E0));
#751=DIRECTION('',(0.E0,0.E0,1.E0));
#752=AXIS2_PLACEMENT_3D('',#749,#750,#751);
#753=PLANE('',#752);
#754=ORIENTED_EDGE('',*,*,#662,.F.);
#756=ORIENTED_EDGE('',*,*,#755,.F.);
#757=ORIENTED_EDGE('',*,*,#592,.F.);
#758=ORIENTED_EDGE('',*,*,#577,.F.);
#759=ORIENTED_EDGE('',*,*,#522,.F.);
#761=ORIENTED_EDGE('',*,*,#760,.F.);
#762=ORIENTED_EDGE('',*,*,#454,.F.);
#764=ORIENTED_EDGE('',*,*,#763,.F.);
#765=ORIENTED_EDGE('',*,*,#514,.F.);
#767=ORIENTED_EDGE('',*,*,#766,.F.);
#768=ORIENTED_EDGE('',*,*,#600,.F.);
#769=ORIENTED_EDGE('',*,*,#740,.T.);
#770=EDGE_LOOP('',(#754,#756,#757,#758,#759,#761,#762,#764,#765,#767,#768,
#769));
#771=FACE_OUTER_BOUND('',#770,.F.);
#772=ADVANCED_FACE('',(#771),#753,.F.);
#773=CARTESIAN_POINT('',(1.75E1,0.E0,-1.36E2));
#774=DIRECTION('',(1.E0,0.E0,0.E0));
#775=DIRECTION('',(0.E0,-1.E0,0.E0));
#776=AXIS2_PLACEMENT_3D('',#773,#774,#775);
#777=PLANE('',#776);
#778=ORIENTED_EDGE('',*,*,#755,.T.);
#779=ORIENTED_EDGE('',*,*,#660,.F.);
#781=ORIENTED_EDGE('',*,*,#780,.F.);
#782=ORIENTED_EDGE('',*,*,#594,.T.);
#783=EDGE_LOOP('',(#778,#779,#781,#782));
#784=FACE_OUTER_BOUND('',#783,.F.);
#785=ADVANCED_FACE('',(#784),#777,.T.);
#786=CARTESIAN_POINT('',(0.E0,0.E0,-1.36E2));
#787=DIRECTION('',(0.E0,0.E0,-1.E0));
#788=DIRECTION('',(-1.E0,0.E0,0.E0));
#789=AXIS2_PLACEMENT_3D('',#786,#787,#788);
#790=CYLINDRICAL_SURFACE('',#789,1.75E1);
#791=ORIENTED_EDGE('',*,*,#596,.T.);
#792=ORIENTED_EDGE('',*,*,#780,.T.);
#793=ORIENTED_EDGE('',*,*,#658,.F.);
#794=ORIENTED_EDGE('',*,*,#743,.F.);
#795=EDGE_LOOP('',(#791,#792,#793,#794));
#796=FACE_OUTER_BOUND('',#795,.F.);
#797=ADVANCED_FACE('',(#796),#790,.T.);
#798=CARTESIAN_POINT('',(1.75E1,0.E0,0.E0));
#799=DIRECTION('',(1.E0,0.E0,0.E0));
#800=DIRECTION('',(0.E0,-1.E0,0.E0));
#801=AXIS2_PLACEMENT_3D('',#798,#799,#800);
#802=PLANE('',#801);
#804=ORIENTED_EDGE('',*,*,#803,.F.);
#805=ORIENTED_EDGE('',*,*,#448,.F.);
#806=ORIENTED_EDGE('',*,*,#760,.T.);
#807=ORIENTED_EDGE('',*,*,#520,.F.);
#808=EDGE_LOOP('',(#804,#805,#806,#807));
#809=FACE_OUTER_BOUND('',#808,.F.);
#810=ADVANCED_FACE('',(#809),#802,.T.);
#811=CARTESIAN_POINT('',(0.E0,0.E0,0.E0));
#812=DIRECTION('',(0.E0,0.E0,-1.E0));
#813=DIRECTION('',(-1.E0,0.E0,0.E0));
#814=AXIS2_PLACEMENT_3D('',#811,#812,#813);
#815=CYLINDRICAL_SURFACE('',#814,1.75E1);
#817=ORIENTED_EDGE('',*,*,#816,.T.);
#818=ORIENTED_EDGE('',*,*,#450,.F.);
#819=ORIENTED_EDGE('',*,*,#803,.T.);
#820=ORIENTED_EDGE('',*,*,#518,.F.);
#821=EDGE_LOOP('',(#817,#818,#819,#820));
#822=FACE_OUTER_BOUND('',#821,.F.);
#823=ADVANCED_FACE('',(#822),#815,.T.);
#824=CARTESIAN_POINT('',(-1.75E1,-2.05E1,0.E0));
#825=DIRECTION('',(-1.E0,0.E0,0.E0));
#826=DIRECTION('',(0.E0,1.E0,0.E0));
#827=AXIS2_PLACEMENT_3D('',#824,#825,#826);
#828=PLANE('',#827);
#829=ORIENTED_EDGE('',*,*,#763,.T.);
#830=ORIENTED_EDGE('',*,*,#452,.F.);
#831=ORIENTED_EDGE('',*,*,#816,.F.);
#832=ORIENTED_EDGE('',*,*,#516,.F.);
#833=EDGE_LOOP('',(#829,#830,#831,#832));
#834=FACE_OUTER_BOUND('',#833,.F.);
#835=ADVANCED_FACE('',(#834),#828,.T.);
#836=CARTESIAN_POINT('',(-5.E1,-2.45E1,4.E0));
#837=DIRECTION('',(-1.E0,0.E0,0.E0));
#838=DIRECTION('',(0.E0,0.E0,-1.E0));
#839=AXIS2_PLACEMENT_3D('',#836,#837,#838);
#840=PLANE('',#839);
#841=ORIENTED_EDGE('',*,*,#512,.F.);
#843=ORIENTED_EDGE('',*,*,#842,.T.);
#844=ORIENTED_EDGE('',*,*,#587,.F.);
#845=ORIENTED_EDGE('',*,*,#766,.T.);
#846=EDGE_LOOP('',(#841,#843,#844,#845));
#847=FACE_OUTER_BOUND('',#846,.F.);
#848=ADVANCED_FACE('',(#847),#840,.T.);
#849=CARTESIAN_POINT('',(0.E0,-3.45E1,0.E0));
#850=DIRECTION('',(0.E0,-1.E0,0.E0));
#851=DIRECTION('',(1.E0,0.E0,0.E0));
#852=AXIS2_PLACEMENT_3D('',#849,#850,#851);
#853=PLANE('',#852);
#854=ORIENTED_EDGE('',*,*,#842,.F.);
#855=ORIENTED_EDGE('',*,*,#510,.F.);
#856=ORIENTED_EDGE('',*,*,#574,.F.);
#857=ORIENTED_EDGE('',*,*,#589,.F.);
#858=EDGE_LOOP('',(#854,#855,#856,#857));
#859=FACE_OUTER_BOUND('',#858,.F.);
#860=ADVANCED_FACE('',(#859),#853,.T.);
#864=DIMENSIONAL_EXPONENTS(0.E0,0.E0,0.E0,0.E0,0.E0,0.E0,0.E0);
#866=PLANE_ANGLE_MEASURE_WITH_UNIT(PLANE_ANGLE_MEASURE(1.745329251994E-2),#865);
#867=(CONVERSION_BASED_UNIT('DEGREE',#866)NAMED_UNIT(*)PLANE_ANGLE_UNIT());
#869=UNCERTAINTY_MEASURE_WITH_UNIT(LENGTH_MEASURE(1.760788730927E-2),#863,
'closure',
'Maximum model space distance between geometric entities at asserted connectivities');
#870=(GEOMETRIC_REPRESENTATION_CONTEXT(3)GLOBAL_UNCERTAINTY_ASSIGNED_CONTEXT((
#869))GLOBAL_UNIT_ASSIGNED_CONTEXT((#863,#867,#868))REPRESENTATION_CONTEXT
('ID1','3'));
#872=APPLICATION_CONTEXT(
'CONFIGURATION CONTROLLED 3D DESIGNS OF MECHANICAL PARTS AND ASSEMBLIES');
#873=APPLICATION_PROTOCOL_DEFINITION('international standard',
'config_control_design',1994,#872);
#874=DESIGN_CONTEXT('',#872,'design');
#875=MECHANICAL_CONTEXT('',#872,'mechanical');
#876=PRODUCT('CAR','CAR','NOT SPECIFIED',(#875));
#877=PRODUCT_DEFINITION_FORMATION_WITH_SPECIFIED_SOURCE('1','LAST_VERSION',#876,
.MADE.);
#881=PRODUCT_CATEGORY('part','');
#882=PRODUCT_RELATED_PRODUCT_CATEGORY('detail','',(#876));
#883=PRODUCT_CATEGORY_RELATIONSHIP('','',#881,#882);
#884=SECURITY_CLASSIFICATION_LEVEL('unclassified');
#885=SECURITY_CLASSIFICATION('','',#884);
#886=CC_DESIGN_SECURITY_CLASSIFICATION(#885,(#877));
#887=APPROVAL_STATUS('approved');
#888=APPROVAL(#887,'');
#889=CC_DESIGN_APPROVAL(#888,(#885,#877,#878));
#890=CALENDAR_DATE(126,27,5);
#891=COORDINATED_UNIVERSAL_TIME_OFFSET(8,0,.AHEAD.);
#892=LOCAL_TIME(9,10,2.9E1,#891);
#893=DATE_AND_TIME(#890,#892);
#894=APPROVAL_DATE_TIME(#893,#888);
#895=DATE_TIME_ROLE('creation_date');
#896=CC_DESIGN_DATE_AND_TIME_ASSIGNMENT(#893,#895,(#878));
#897=DATE_TIME_ROLE('classification_date');
#898=CC_DESIGN_DATE_AND_TIME_ASSIGNMENT(#893,#897,(#885));
#899=PERSON('UNSPECIFIED','UNSPECIFIED',$,$,$,$);
#900=ORGANIZATION('UNSPECIFIED','UNSPECIFIED','UNSPECIFIED');
#901=PERSON_AND_ORGANIZATION(#899,#900);
#902=APPROVAL_ROLE('approver');
#903=APPROVAL_PERSON_ORGANIZATION(#901,#888,#902);
#904=PERSON_AND_ORGANIZATION_ROLE('creator');
#905=CC_DESIGN_PERSON_AND_ORGANIZATION_ASSIGNMENT(#901,#904,(#877,#878));
#906=PERSON_AND_ORGANIZATION_ROLE('design_supplier');
#907=CC_DESIGN_PERSON_AND_ORGANIZATION_ASSIGNMENT(#901,#906,(#877));
#908=PERSON_AND_ORGANIZATION_ROLE('classification_officer');
#909=CC_DESIGN_PERSON_AND_ORGANIZATION_ASSIGNMENT(#901,#908,(#885));
#910=PERSON_AND_ORGANIZATION_ROLE('design_owner');
#911=CC_DESIGN_PERSON_AND_ORGANIZATION_ASSIGNMENT(#901,#910,(#876));
#13=CIRCLE('',#12,1.75E0);
#18=CIRCLE('',#17,1.75E0);
#23=CIRCLE('',#22,1.75E0);
#28=CIRCLE('',#27,1.75E0);
#33=CIRCLE('',#32,4.E0);
#38=CIRCLE('',#37,4.E0);
#47=CIRCLE('',#46,1.75E1);
#64=CIRCLE('',#63,1.75E0);
#69=CIRCLE('',#68,1.75E0);
#74=CIRCLE('',#73,1.75E0);
#79=CIRCLE('',#78,1.75E0);
#84=CIRCLE('',#83,4.E0);
#89=CIRCLE('',#88,4.E0);
#110=CIRCLE('',#109,1.75E1);
#139=CIRCLE('',#138,1.75E0);
#144=CIRCLE('',#143,1.75E0);
#149=CIRCLE('',#148,1.75E0);
#154=CIRCLE('',#153,1.75E0);
#159=CIRCLE('',#158,4.E0);
#164=CIRCLE('',#163,4.E0);
#181=CIRCLE('',#180,1.75E1);
#202=CIRCLE('',#201,1.75E0);
#207=CIRCLE('',#206,1.75E0);
#212=CIRCLE('',#211,1.75E0);
#217=CIRCLE('',#216,1.75E0);
#222=CIRCLE('',#221,4.E0);
#227=CIRCLE('',#226,4.E0);
#236=CIRCLE('',#235,1.75E1);
#418=EDGE_CURVE('',#336,#355,#4,.T.);
#420=EDGE_CURVE('',#356,#355,#28,.T.);
#422=EDGE_CURVE('',#356,#335,#8,.T.);
#424=EDGE_CURVE('',#336,#335,#69,.T.);
#435=EDGE_CURVE('',#355,#356,#23,.T.);
#438=EDGE_CURVE('',#335,#336,#64,.T.);
#448=EDGE_CURVE('',#368,#363,#42,.T.);
#450=EDGE_CURVE('',#363,#364,#47,.T.);
#452=EDGE_CURVE('',#364,#367,#51,.T.);
#454=EDGE_CURVE('',#367,#368,#268,.T.);
#462=EDGE_CURVE('',#359,#360,#33,.T.);
#464=EDGE_CURVE('',#360,#359,#38,.T.);
#468=EDGE_CURVE('',#351,#352,#13,.T.);
#470=EDGE_CURVE('',#352,#351,#18,.T.);
#480=EDGE_CURVE('',#352,#339,#59,.T.);
#483=EDGE_CURVE('',#340,#351,#55,.T.);
#485=EDGE_CURVE('',#339,#340,#74,.T.);
#498=EDGE_CURVE('',#340,#339,#79,.T.);
#508=EDGE_CURVE('',#323,#412,#93,.T.);
#510=EDGE_CURVE('',#412,#407,#308,.T.);
#512=EDGE_CURVE('',#407,#328,#97,.T.);
#514=EDGE_CURVE('',#328,#348,#101,.T.);
#516=EDGE_CURVE('',#348,#343,#105,.T.);
#518=EDGE_CURVE('',#343,#344,#110,.T.);
#520=EDGE_CURVE('',#344,#346,#114,.T.);
#522=EDGE_CURVE('',#346,#323,#118,.T.);
#530=EDGE_CURVE('',#319,#320,#84,.T.);
#532=EDGE_CURVE('',#320,#319,#89,.T.);
#546=EDGE_CURVE('',#360,#319,#126,.T.);
#549=EDGE_CURVE('',#320,#359,#122,.T.);
#572=EDGE_CURVE('',#324,#410,#130,.T.);
#574=EDGE_CURVE('',#410,#412,#312,.T.);
#577=EDGE_CURVE('',#323,#324,#134,.T.);
#587=EDGE_CURVE('',#327,#408,#168,.T.);
#589=EDGE_CURVE('',#408,#410,#316,.T.);
#592=EDGE_CURVE('',#324,#402,#172,.T.);
#594=EDGE_CURVE('',#380,#402,#176,.T.);
#596=EDGE_CURVE('',#379,#380,#181,.T.);
#598=EDGE_CURVE('',#404,#379,#185,.T.);
#600=EDGE_CURVE('',#404,#327,#189,.T.);
#604=EDGE_CURVE('',#375,#376,#149,.T.);
#606=EDGE_CURVE('',#376,#375,#154,.T.);
#610=EDGE_CURVE('',#331,#332,#159,.T.);
#612=EDGE_CURVE('',#332,#331,#164,.T.);
#616=EDGE_CURVE('',#371,#372,#139,.T.);
#618=EDGE_CURVE('',#372,#371,#144,.T.);
#628=EDGE_CURVE('',#371,#383,#197,.T.);
#631=EDGE_CURVE('',#384,#372,#193,.T.);
#633=EDGE_CURVE('',#383,#384,#202,.T.);
#646=EDGE_CURVE('',#384,#383,#207,.T.);
#656=EDGE_CURVE('',#400,#395,#231,.T.);
#658=EDGE_CURVE('',#395,#396,#236,.T.);
#660=EDGE_CURVE('',#396,#399,#240,.T.);
#662=EDGE_CURVE('',#399,#400,#260,.T.);
#666=EDGE_CURVE('',#387,#388,#212,.T.);
#668=EDGE_CURVE('',#388,#387,#217,.T.);
#672=EDGE_CURVE('',#391,#392,#222,.T.);
#674=EDGE_CURVE('',#392,#391,#227,.T.);
#688=EDGE_CURVE('',#375,#387,#248,.T.);
#691=EDGE_CURVE('',#388,#376,#244,.T.);
#714=EDGE_CURVE('',#392,#331,#256,.T.);
#717=EDGE_CURVE('',#332,#391,#252,.T.);
#740=EDGE_CURVE('',#404,#400,#272,.T.);
#743=EDGE_CURVE('',#379,#395,#280,.T.);
#755=EDGE_CURVE('',#402,#399,#264,.T.);
#760=EDGE_CURVE('',#368,#346,#284,.T.);
#763=EDGE_CURVE('',#348,#367,#296,.T.);
#766=EDGE_CURVE('',#327,#328,#300,.T.);
#780=EDGE_CURVE('',#380,#396,#276,.T.);
#803=EDGE_CURVE('',#363,#344,#292,.T.);
#816=EDGE_CURVE('',#343,#364,#288,.T.);
#842=EDGE_CURVE('',#407,#408,#304,.T.);
#861=CLOSED_SHELL('',(#428,#442,#474,#489,#502,#540,#554,#566,#581,#622,#637,
#650,#682,#696,#708,#722,#734,#748,#772,#785,#797,#810,#823,#835,#848,#860));
#862=MANIFOLD_SOLID_BREP('',#861);
#863=(LENGTH_UNIT()NAMED_UNIT(*)SI_UNIT(.MILLI.,.METRE.));
#865=(NAMED_UNIT(*)PLANE_ANGLE_UNIT()SI_UNIT($,.RADIAN.));
#868=(NAMED_UNIT(*)SI_UNIT($,.STERADIAN.)SOLID_ANGLE_UNIT());
#871=ADVANCED_BREP_SHAPE_REPRESENTATION('',(#862),#870);
#878=PRODUCT_DEFINITION('design','',#877,#874);
#879=PRODUCT_DEFINITION_SHAPE('','SHAPE FOR CAR.',#878);
#880=SHAPE_DEFINITION_REPRESENTATION(#879,#871);
ENDSEC;
END-ISO-10303-21;
