ISO-10303-21;
HEADER;
FILE_DESCRIPTION((''),'2;1');
FILE_NAME('CARJIACU3','2026-06-25T23:41:49',('13763'),(''),
'CREO PARAMETRIC BY PTC INC, 2025102','CREO PARAMETRIC BY PTC INC, 2025102','');
FILE_SCHEMA(('CONFIG_CONTROL_DESIGN'));
ENDSEC;
DATA;
#1=DIRECTION('',(0.E0,0.E0,-1.E0));
#2=VECTOR('',#1,3.5E0);
#3=CARTESIAN_POINT('',(-5.5E0,0.E0,4.E0));
#4=LINE('',#3,#2);
#5=CARTESIAN_POINT('',(-8.5E0,0.E0,5.E-1));
#6=DIRECTION('',(0.E0,0.E0,-1.E0));
#7=DIRECTION('',(-1.E0,0.E0,0.E0));
#8=AXIS2_PLACEMENT_3D('',#5,#6,#7);
#10=CARTESIAN_POINT('',(-8.5E0,0.E0,5.E-1));
#11=DIRECTION('',(0.E0,0.E0,-1.E0));
#12=DIRECTION('',(1.E0,0.E0,0.E0));
#13=AXIS2_PLACEMENT_3D('',#10,#11,#12);
#15=CARTESIAN_POINT('',(-8.5E0,0.E0,5.E-1));
#16=DIRECTION('',(0.E0,0.E0,1.E0));
#17=DIRECTION('',(-1.E0,0.E0,0.E0));
#18=AXIS2_PLACEMENT_3D('',#15,#16,#17);
#20=CARTESIAN_POINT('',(-8.5E0,0.E0,5.E-1));
#21=DIRECTION('',(0.E0,0.E0,1.E0));
#22=DIRECTION('',(1.E0,0.E0,0.E0));
#23=AXIS2_PLACEMENT_3D('',#20,#21,#22);
#25=DIRECTION('',(0.E0,0.E0,-1.E0));
#26=VECTOR('',#25,3.5E0);
#27=CARTESIAN_POINT('',(-1.15E1,0.E0,4.E0));
#28=LINE('',#27,#26);
#29=CARTESIAN_POINT('',(0.E0,0.E0,4.E0));
#30=DIRECTION('',(0.E0,0.E0,1.E0));
#31=DIRECTION('',(-1.E0,0.E0,0.E0));
#32=AXIS2_PLACEMENT_3D('',#29,#30,#31);
#34=CARTESIAN_POINT('',(0.E0,0.E0,4.E0));
#35=DIRECTION('',(0.E0,0.E0,1.E0));
#36=DIRECTION('',(1.E0,0.E0,0.E0));
#37=AXIS2_PLACEMENT_3D('',#34,#35,#36);
#39=CARTESIAN_POINT('',(-8.5E0,0.E0,4.E0));
#40=DIRECTION('',(0.E0,0.E0,1.E0));
#41=DIRECTION('',(1.E0,0.E0,0.E0));
#42=AXIS2_PLACEMENT_3D('',#39,#40,#41);
#44=CARTESIAN_POINT('',(-8.5E0,0.E0,4.E0));
#45=DIRECTION('',(0.E0,0.E0,1.E0));
#46=DIRECTION('',(-1.E0,0.E0,0.E0));
#47=AXIS2_PLACEMENT_3D('',#44,#45,#46);
#49=CARTESIAN_POINT('',(8.5E0,0.E0,4.E0));
#50=DIRECTION('',(0.E0,0.E0,1.E0));
#51=DIRECTION('',(1.E0,0.E0,0.E0));
#52=AXIS2_PLACEMENT_3D('',#49,#50,#51);
#54=CARTESIAN_POINT('',(8.5E0,0.E0,4.E0));
#55=DIRECTION('',(0.E0,0.E0,1.E0));
#56=DIRECTION('',(-1.E0,0.E0,0.E0));
#57=AXIS2_PLACEMENT_3D('',#54,#55,#56);
#59=DIRECTION('',(1.E0,0.E0,0.E0));
#60=VECTOR('',#59,1.190013123382E1);
#61=CARTESIAN_POINT('',(-5.E1,-2.05E1,4.E0));
#62=LINE('',#61,#60);
#63=CARTESIAN_POINT('',(-3.809986876618E1,1.E-1,4.E0));
#64=DIRECTION('',(0.E0,0.E0,1.E0));
#65=DIRECTION('',(0.E0,-1.E0,0.E0));
#66=AXIS2_PLACEMENT_3D('',#63,#64,#65);
#68=CARTESIAN_POINT('',(0.E0,0.E0,4.E0));
#69=DIRECTION('',(0.E0,0.E0,-1.E0));
#70=DIRECTION('',(-9.999965555427E-1,2.624671916093E-3,0.E0));
#71=AXIS2_PLACEMENT_3D('',#68,#69,#70);
#73=CARTESIAN_POINT('',(3.809986876618E1,1.E-1,4.E0));
#74=DIRECTION('',(0.E0,0.E0,1.E0));
#75=DIRECTION('',(-9.999965555427E-1,-2.624671916010E-3,0.E0));
#76=AXIS2_PLACEMENT_3D('',#73,#74,#75);
#78=DIRECTION('',(1.E0,0.E0,0.E0));
#79=VECTOR('',#78,1.190013123382E1);
#80=CARTESIAN_POINT('',(3.809986876618E1,-2.05E1,4.E0));
#81=LINE('',#80,#79);
#82=DIRECTION('',(0.E0,-1.E0,0.E0));
#83=VECTOR('',#82,7.E0);
#84=CARTESIAN_POINT('',(5.E1,-2.05E1,4.E0));
#85=LINE('',#84,#83);
#86=DIRECTION('',(-1.E0,0.E0,0.E0));
#87=VECTOR('',#86,1.E2);
#88=CARTESIAN_POINT('',(5.E1,-2.75E1,4.E0));
#89=LINE('',#88,#87);
#90=DIRECTION('',(0.E0,1.E0,0.E0));
#91=VECTOR('',#90,7.E0);
#92=CARTESIAN_POINT('',(-5.E1,-2.75E1,4.E0));
#93=LINE('',#92,#91);
#94=DIRECTION('',(0.E0,0.E0,1.E0));
#95=VECTOR('',#94,5.E0);
#96=CARTESIAN_POINT('',(-4.E0,0.E0,-1.E0));
#97=LINE('',#96,#95);
#98=DIRECTION('',(0.E0,0.E0,-1.E0));
#99=VECTOR('',#98,5.E0);
#100=CARTESIAN_POINT('',(4.E0,0.E0,4.E0));
#101=LINE('',#100,#99);
#102=CARTESIAN_POINT('',(-8.5E0,0.E0,-1.E0));
#103=DIRECTION('',(0.E0,0.E0,-1.E0));
#104=DIRECTION('',(1.E0,0.E0,0.E0));
#105=AXIS2_PLACEMENT_3D('',#102,#103,#104);
#107=CARTESIAN_POINT('',(-8.5E0,0.E0,-1.E0));
#108=DIRECTION('',(0.E0,0.E0,-1.E0));
#109=DIRECTION('',(-1.E0,0.E0,0.E0));
#110=AXIS2_PLACEMENT_3D('',#107,#108,#109);
#112=CARTESIAN_POINT('',(0.E0,0.E0,-1.E0));
#113=DIRECTION('',(0.E0,0.E0,-1.E0));
#114=DIRECTION('',(1.E0,0.E0,0.E0));
#115=AXIS2_PLACEMENT_3D('',#112,#113,#114);
#117=CARTESIAN_POINT('',(0.E0,0.E0,-1.E0));
#118=DIRECTION('',(0.E0,0.E0,-1.E0));
#119=DIRECTION('',(-1.E0,0.E0,0.E0));
#120=AXIS2_PLACEMENT_3D('',#117,#118,#119);
#122=CARTESIAN_POINT('',(8.5E0,0.E0,-1.E0));
#123=DIRECTION('',(0.E0,0.E0,-1.E0));
#124=DIRECTION('',(1.E0,0.E0,0.E0));
#125=AXIS2_PLACEMENT_3D('',#122,#123,#124);
#127=CARTESIAN_POINT('',(8.5E0,0.E0,-1.E0));
#128=DIRECTION('',(0.E0,0.E0,-1.E0));
#129=DIRECTION('',(-1.E0,0.E0,0.E0));
#130=AXIS2_PLACEMENT_3D('',#127,#128,#129);
#132=DIRECTION('',(1.E0,-1.279315946860E-14,0.E0));
#133=VECTOR('',#132,4.929248943821E1);
#134=CARTESIAN_POINT('',(-2.464624471910E1,-1.55E1,-1.E0));
#135=LINE('',#134,#133);
#136=CARTESIAN_POINT('',(3.809986876618E1,1.E-1,-1.E0));
#137=DIRECTION('',(0.E0,0.E0,-1.E0));
#138=DIRECTION('',(-6.530885459745E-1,-7.572815533981E-1,0.E0));
#139=AXIS2_PLACEMENT_3D('',#136,#137,#138);
#141=CARTESIAN_POINT('',(0.E0,0.E0,-1.E0));
#142=DIRECTION('',(0.E0,0.E0,1.E0));
#143=DIRECTION('',(9.999965555427E-1,2.624671916011E-3,0.E0));
#144=AXIS2_PLACEMENT_3D('',#141,#142,#143);
#146=CARTESIAN_POINT('',(-3.809986876618E1,1.E-1,-1.E0));
#147=DIRECTION('',(0.E0,0.E0,-1.E0));
#148=DIRECTION('',(9.999965555427E-1,-2.624671915947E-3,0.E0));
#149=AXIS2_PLACEMENT_3D('',#146,#147,#148);
#151=DIRECTION('',(0.E0,0.E0,-1.E0));
#152=VECTOR('',#151,1.5E0);
#153=CARTESIAN_POINT('',(-1.025E1,0.E0,5.E-1));
#154=LINE('',#153,#152);
#155=DIRECTION('',(0.E0,0.E0,-1.E0));
#156=VECTOR('',#155,1.5E0);
#157=CARTESIAN_POINT('',(-6.75E0,0.E0,5.E-1));
#158=LINE('',#157,#156);
#159=DIRECTION('',(0.E0,0.E0,-1.E0));
#160=VECTOR('',#159,1.5E0);
#161=CARTESIAN_POINT('',(6.75E0,0.E0,5.E-1));
#162=LINE('',#161,#160);
#163=DIRECTION('',(0.E0,0.E0,-1.E0));
#164=VECTOR('',#163,1.5E0);
#165=CARTESIAN_POINT('',(1.025E1,0.E0,5.E-1));
#166=LINE('',#165,#164);
#167=CARTESIAN_POINT('',(8.5E0,0.E0,5.E-1));
#168=DIRECTION('',(0.E0,0.E0,-1.E0));
#169=DIRECTION('',(-1.E0,0.E0,0.E0));
#170=AXIS2_PLACEMENT_3D('',#167,#168,#169);
#172=CARTESIAN_POINT('',(8.5E0,0.E0,5.E-1));
#173=DIRECTION('',(0.E0,0.E0,-1.E0));
#174=DIRECTION('',(1.E0,0.E0,0.E0));
#175=AXIS2_PLACEMENT_3D('',#172,#173,#174);
#177=CARTESIAN_POINT('',(8.5E0,0.E0,5.E-1));
#178=DIRECTION('',(0.E0,0.E0,1.E0));
#179=DIRECTION('',(-1.E0,0.E0,0.E0));
#180=AXIS2_PLACEMENT_3D('',#177,#178,#179);
#182=CARTESIAN_POINT('',(8.5E0,0.E0,5.E-1));
#183=DIRECTION('',(0.E0,0.E0,1.E0));
#184=DIRECTION('',(1.E0,0.E0,0.E0));
#185=AXIS2_PLACEMENT_3D('',#182,#183,#184);
#187=DIRECTION('',(0.E0,0.E0,-1.E0));
#188=VECTOR('',#187,3.5E0);
#189=CARTESIAN_POINT('',(1.15E1,0.E0,4.E0));
#190=LINE('',#189,#188);
#191=DIRECTION('',(0.E0,0.E0,-1.E0));
#192=VECTOR('',#191,3.5E0);
#193=CARTESIAN_POINT('',(5.5E0,0.E0,4.E0));
#194=LINE('',#193,#192);
#195=CARTESIAN_POINT('',(-2.464624471910E1,-1.55E1,-1.E0));
#196=CARTESIAN_POINT('',(-2.504447351464E1,-1.584343721153E1,-1.E0));
#197=CARTESIAN_POINT('',(-2.588066814626E1,-1.651288202160E1,
-1.068992966883E0));
#198=CARTESIAN_POINT('',(-2.729747912516E1,-1.746728705206E1,
-1.370280660840E0));
#199=CARTESIAN_POINT('',(-2.871024357696E1,-1.825834722695E1,
-1.800262101857E0));
#200=CARTESIAN_POINT('',(-3.013371359796E1,-1.891852208208E1,
-2.320705349890E0));
#201=CARTESIAN_POINT('',(-3.158025491279E1,-1.946150431824E1,
-2.914934396152E0));
#202=CARTESIAN_POINT('',(-3.307900710930E1,-1.989947421593E1,
-3.580076006823E0));
#203=CARTESIAN_POINT('',(-3.464373476703E1,-2.022973438591E1,
-4.312033422527E0));
#204=CARTESIAN_POINT('',(-3.630181149602E1,-2.044547858049E1,
-5.114330243757E0));
#205=CARTESIAN_POINT('',(-3.748858865509E1,-2.05E1,-5.698843904691E0));
#206=CARTESIAN_POINT('',(-3.809986876618E1,-2.05E1,-6.E0));
#208=CARTESIAN_POINT('',(3.809986876618E1,-2.05E1,-6.E0));
#209=CARTESIAN_POINT('',(3.744261700366E1,-2.05E1,-5.676195297631E0));
#210=CARTESIAN_POINT('',(3.616291203565E1,-2.043680082238E1,-5.045945962890E0));
#211=CARTESIAN_POINT('',(3.437128799040E1,-2.018562090526E1,-4.181516779161E0));
#212=CARTESIAN_POINT('',(3.265674969884E1,-1.979340894471E1,-3.386934175749E0));
#213=CARTESIAN_POINT('',(3.099204835893E1,-1.926163540824E1,-2.664020775652E0));
#214=CARTESIAN_POINT('',(2.934183328127E1,-1.857485617239E1,-2.017663817595E0));
#215=CARTESIAN_POINT('',(2.771374571814E1,-1.772267577604E1,-1.480770090258E0));
#216=CARTESIAN_POINT('',(2.612745140662E1,-1.669956246592E1,-1.102261005445E0));
#217=CARTESIAN_POINT('',(2.512771124194E1,-1.591522240958E1,-1.E0));
#218=CARTESIAN_POINT('',(2.464624471910E1,-1.55E1,-1.E0));
#220=DIRECTION('',(0.E0,0.E0,-1.E0));
#221=VECTOR('',#220,1.E1);
#222=CARTESIAN_POINT('',(-3.809986876618E1,-2.05E1,4.E0));
#223=LINE('',#222,#221);
#224=DIRECTION('',(-1.E0,0.E0,0.E0));
#225=VECTOR('',#224,7.619973753236E1);
#226=CARTESIAN_POINT('',(3.809986876618E1,-2.05E1,-1.26E2));
#227=LINE('',#226,#225);
#228=DIRECTION('',(1.E0,0.E0,0.E0));
#229=VECTOR('',#228,7.619973753236E1);
#230=CARTESIAN_POINT('',(-3.809986876618E1,-2.05E1,-6.E0));
#231=LINE('',#230,#229);
#232=CARTESIAN_POINT('',(2.464624471910E1,-1.55E1,-1.31E2));
#233=CARTESIAN_POINT('',(2.504447351464E1,-1.584343721153E1,-1.31E2));
#234=CARTESIAN_POINT('',(2.588066814626E1,-1.651288202160E1,-1.309310070331E2));
#235=CARTESIAN_POINT('',(2.729747912516E1,-1.746728705206E1,-1.306297193392E2));
#236=CARTESIAN_POINT('',(2.871024357696E1,-1.825834722695E1,-1.301997378981E2));
#237=CARTESIAN_POINT('',(3.013371359796E1,-1.891852208208E1,-1.296792946501E2));
#238=CARTESIAN_POINT('',(3.158025491279E1,-1.946150431824E1,-1.290850656038E2));
#239=CARTESIAN_POINT('',(3.307900710930E1,-1.989947421593E1,-1.284199239932E2));
#240=CARTESIAN_POINT('',(3.464373476703E1,-2.022973438591E1,-1.276879665775E2));
#241=CARTESIAN_POINT('',(3.630181149602E1,-2.044547858049E1,-1.268856697562E2));
#242=CARTESIAN_POINT('',(3.748858865509E1,-2.05E1,-1.263011560953E2));
#243=CARTESIAN_POINT('',(3.809986876618E1,-2.05E1,-1.26E2));
#245=CARTESIAN_POINT('',(-3.809986876618E1,-2.05E1,-1.26E2));
#246=CARTESIAN_POINT('',(-3.763987638617E1,-2.05E1,-1.262266219799E2));
#247=CARTESIAN_POINT('',(-3.671261472266E1,-2.046938922919E1,
-1.266834897110E2));
#248=CARTESIAN_POINT('',(-3.529075332787E1,-2.032446188236E1,
-1.273764590475E2));
#249=CARTESIAN_POINT('',(-3.387482298163E1,-2.007899320854E1,
-1.280505173425E2));
#250=CARTESIAN_POINT('',(-3.251006454443E1,-1.974268558380E1,
-1.286756432239E2));
#251=CARTESIAN_POINT('',(-3.118665518526E1,-1.932454354513E1,
-1.292514703845E2));
#252=CARTESIAN_POINT('',(-2.963255788785E1,-1.870877904333E1,
-1.298749047212E2));
#253=CARTESIAN_POINT('',(-2.788977577371E1,-1.783128057275E1,
-1.304726956690E2));
#254=CARTESIAN_POINT('',(-2.613196368770E1,-1.670790004910E1,
-1.309019501949E2));
#255=CARTESIAN_POINT('',(-2.512196293760E1,-1.591026500410E1,-1.31E2));
#256=CARTESIAN_POINT('',(-2.464624471910E1,-1.55E1,-1.31E2));
#258=CARTESIAN_POINT('',(8.5E0,0.E0,-1.31E2));
#259=DIRECTION('',(0.E0,0.E0,1.E0));
#260=DIRECTION('',(-1.E0,0.E0,0.E0));
#261=AXIS2_PLACEMENT_3D('',#258,#259,#260);
#263=CARTESIAN_POINT('',(8.5E0,0.E0,-1.31E2));
#264=DIRECTION('',(0.E0,0.E0,1.E0));
#265=DIRECTION('',(1.E0,0.E0,0.E0));
#266=AXIS2_PLACEMENT_3D('',#263,#264,#265);
#268=CARTESIAN_POINT('',(-8.5E0,0.E0,-1.31E2));
#269=DIRECTION('',(0.E0,0.E0,1.E0));
#270=DIRECTION('',(-1.E0,0.E0,0.E0));
#271=AXIS2_PLACEMENT_3D('',#268,#269,#270);
#273=CARTESIAN_POINT('',(-8.5E0,0.E0,-1.31E2));
#274=DIRECTION('',(0.E0,0.E0,1.E0));
#275=DIRECTION('',(1.E0,0.E0,0.E0));
#276=AXIS2_PLACEMENT_3D('',#273,#274,#275);
#278=CARTESIAN_POINT('',(0.E0,0.E0,-1.31E2));
#279=DIRECTION('',(0.E0,0.E0,1.E0));
#280=DIRECTION('',(-1.E0,0.E0,0.E0));
#281=AXIS2_PLACEMENT_3D('',#278,#279,#280);
#283=CARTESIAN_POINT('',(0.E0,0.E0,-1.31E2));
#284=DIRECTION('',(0.E0,0.E0,1.E0));
#285=DIRECTION('',(1.E0,0.E0,0.E0));
#286=AXIS2_PLACEMENT_3D('',#283,#284,#285);
#288=DIRECTION('',(-1.E0,0.E0,0.E0));
#289=VECTOR('',#288,4.929248943821E1);
#290=CARTESIAN_POINT('',(2.464624471910E1,-1.55E1,-1.31E2));
#291=LINE('',#290,#289);
#292=CARTESIAN_POINT('',(-3.809986876618E1,1.E-1,-1.31E2));
#293=DIRECTION('',(0.E0,0.E0,1.E0));
#294=DIRECTION('',(6.530885459745E-1,-7.572815533981E-1,0.E0));
#295=AXIS2_PLACEMENT_3D('',#292,#293,#294);
#297=CARTESIAN_POINT('',(0.E0,0.E0,-1.31E2));
#298=DIRECTION('',(0.E0,0.E0,-1.E0));
#299=DIRECTION('',(-9.999965555427E-1,2.624671916051E-3,0.E0));
#300=AXIS2_PLACEMENT_3D('',#297,#298,#299);
#302=CARTESIAN_POINT('',(3.809986876618E1,1.E-1,-1.31E2));
#303=DIRECTION('',(0.E0,0.E0,1.E0));
#304=DIRECTION('',(-9.999965555427E-1,-2.624671916010E-3,0.E0));
#305=AXIS2_PLACEMENT_3D('',#302,#303,#304);
#307=DIRECTION('',(0.E0,0.E0,1.E0));
#308=VECTOR('',#307,1.5E0);
#309=CARTESIAN_POINT('',(1.025E1,0.E0,-1.325E2));
#310=LINE('',#309,#308);
#311=DIRECTION('',(0.E0,0.E0,1.E0));
#312=VECTOR('',#311,1.5E0);
#313=CARTESIAN_POINT('',(6.75E0,0.E0,-1.325E2));
#314=LINE('',#313,#312);
#315=CARTESIAN_POINT('',(8.5E0,0.E0,-1.325E2));
#316=DIRECTION('',(0.E0,0.E0,1.E0));
#317=DIRECTION('',(1.E0,0.E0,0.E0));
#318=AXIS2_PLACEMENT_3D('',#315,#316,#317);
#320=CARTESIAN_POINT('',(8.5E0,0.E0,-1.325E2));
#321=DIRECTION('',(0.E0,0.E0,1.E0));
#322=DIRECTION('',(-1.E0,0.E0,0.E0));
#323=AXIS2_PLACEMENT_3D('',#320,#321,#322);
#325=CARTESIAN_POINT('',(8.5E0,0.E0,-1.325E2));
#326=DIRECTION('',(0.E0,0.E0,-1.E0));
#327=DIRECTION('',(1.E0,0.E0,0.E0));
#328=AXIS2_PLACEMENT_3D('',#325,#326,#327);
#330=CARTESIAN_POINT('',(8.5E0,0.E0,-1.325E2));
#331=DIRECTION('',(0.E0,0.E0,-1.E0));
#332=DIRECTION('',(-1.E0,0.E0,0.E0));
#333=AXIS2_PLACEMENT_3D('',#330,#331,#332);
#335=DIRECTION('',(0.E0,0.E0,1.E0));
#336=VECTOR('',#335,3.5E0);
#337=CARTESIAN_POINT('',(5.5E0,0.E0,-1.36E2));
#338=LINE('',#337,#336);
#339=DIRECTION('',(0.E0,0.E0,1.E0));
#340=VECTOR('',#339,3.5E0);
#341=CARTESIAN_POINT('',(1.15E1,0.E0,-1.36E2));
#342=LINE('',#341,#340);
#343=CARTESIAN_POINT('',(0.E0,0.E0,-1.36E2));
#344=DIRECTION('',(0.E0,0.E0,-1.E0));
#345=DIRECTION('',(1.E0,0.E0,0.E0));
#346=AXIS2_PLACEMENT_3D('',#343,#344,#345);
#348=CARTESIAN_POINT('',(0.E0,0.E0,-1.36E2));
#349=DIRECTION('',(0.E0,0.E0,-1.E0));
#350=DIRECTION('',(-1.E0,0.E0,0.E0));
#351=AXIS2_PLACEMENT_3D('',#348,#349,#350);
#353=CARTESIAN_POINT('',(8.5E0,0.E0,-1.36E2));
#354=DIRECTION('',(0.E0,0.E0,-1.E0));
#355=DIRECTION('',(-1.E0,0.E0,0.E0));
#356=AXIS2_PLACEMENT_3D('',#353,#354,#355);
#358=CARTESIAN_POINT('',(8.5E0,0.E0,-1.36E2));
#359=DIRECTION('',(0.E0,0.E0,-1.E0));
#360=DIRECTION('',(1.E0,0.E0,0.E0));
#361=AXIS2_PLACEMENT_3D('',#358,#359,#360);
#363=CARTESIAN_POINT('',(-8.5E0,0.E0,-1.36E2));
#364=DIRECTION('',(0.E0,0.E0,-1.E0));
#365=DIRECTION('',(-1.E0,0.E0,0.E0));
#366=AXIS2_PLACEMENT_3D('',#363,#364,#365);
#368=CARTESIAN_POINT('',(-8.5E0,0.E0,-1.36E2));
#369=DIRECTION('',(0.E0,0.E0,-1.E0));
#370=DIRECTION('',(1.E0,0.E0,0.E0));
#371=AXIS2_PLACEMENT_3D('',#368,#369,#370);
#373=DIRECTION('',(-1.E0,0.E0,0.E0));
#374=VECTOR('',#373,1.190013123382E1);
#375=CARTESIAN_POINT('',(5.E1,-2.05E1,-1.36E2));
#376=LINE('',#375,#374);
#377=CARTESIAN_POINT('',(3.809986876618E1,1.E-1,-1.36E2));
#378=DIRECTION('',(0.E0,0.E0,-1.E0));
#379=DIRECTION('',(0.E0,-1.E0,0.E0));
#380=AXIS2_PLACEMENT_3D('',#377,#378,#379);
#382=CARTESIAN_POINT('',(0.E0,0.E0,-1.36E2));
#383=DIRECTION('',(0.E0,0.E0,1.E0));
#384=DIRECTION('',(9.999965555427E-1,2.624671916011E-3,0.E0));
#385=AXIS2_PLACEMENT_3D('',#382,#383,#384);
#387=CARTESIAN_POINT('',(-3.809986876618E1,1.E-1,-1.36E2));
#388=DIRECTION('',(0.E0,0.E0,-1.E0));
#389=DIRECTION('',(9.999965555427E-1,-2.624671915979E-3,0.E0));
#390=AXIS2_PLACEMENT_3D('',#387,#388,#389);
#392=DIRECTION('',(-1.E0,0.E0,0.E0));
#393=VECTOR('',#392,1.190013123382E1);
#394=CARTESIAN_POINT('',(-3.809986876618E1,-2.05E1,-1.36E2));
#395=LINE('',#394,#393);
#396=DIRECTION('',(0.E0,-1.E0,0.E0));
#397=VECTOR('',#396,7.E0);
#398=CARTESIAN_POINT('',(-5.E1,-2.05E1,-1.36E2));
#399=LINE('',#398,#397);
#400=DIRECTION('',(1.E0,0.E0,0.E0));
#401=VECTOR('',#400,1.E2);
#402=CARTESIAN_POINT('',(-5.E1,-2.75E1,-1.36E2));
#403=LINE('',#402,#401);
#404=DIRECTION('',(0.E0,0.E0,-1.E0));
#405=VECTOR('',#404,5.E0);
#406=CARTESIAN_POINT('',(4.E0,0.E0,-1.31E2));
#407=LINE('',#406,#405);
#408=DIRECTION('',(0.E0,0.E0,1.E0));
#409=VECTOR('',#408,5.E0);
#410=CARTESIAN_POINT('',(-4.E0,0.E0,-1.36E2));
#411=LINE('',#410,#409);
#412=DIRECTION('',(0.E0,0.E0,1.E0));
#413=VECTOR('',#412,3.5E0);
#414=CARTESIAN_POINT('',(-1.15E1,0.E0,-1.36E2));
#415=LINE('',#414,#413);
#416=CARTESIAN_POINT('',(-8.5E0,0.E0,-1.325E2));
#417=DIRECTION('',(0.E0,0.E0,1.E0));
#418=DIRECTION('',(1.E0,0.E0,0.E0));
#419=AXIS2_PLACEMENT_3D('',#416,#417,#418);
#421=CARTESIAN_POINT('',(-8.5E0,0.E0,-1.325E2));
#422=DIRECTION('',(0.E0,0.E0,1.E0));
#423=DIRECTION('',(-1.E0,0.E0,0.E0));
#424=AXIS2_PLACEMENT_3D('',#421,#422,#423);
#426=CARTESIAN_POINT('',(-8.5E0,0.E0,-1.325E2));
#427=DIRECTION('',(0.E0,0.E0,-1.E0));
#428=DIRECTION('',(1.E0,0.E0,0.E0));
#429=AXIS2_PLACEMENT_3D('',#426,#427,#428);
#431=CARTESIAN_POINT('',(-8.5E0,0.E0,-1.325E2));
#432=DIRECTION('',(0.E0,0.E0,-1.E0));
#433=DIRECTION('',(-1.E0,0.E0,0.E0));
#434=AXIS2_PLACEMENT_3D('',#431,#432,#433);
#436=DIRECTION('',(0.E0,0.E0,1.E0));
#437=VECTOR('',#436,3.5E0);
#438=CARTESIAN_POINT('',(-5.5E0,0.E0,-1.36E2));
#439=LINE('',#438,#437);
#440=DIRECTION('',(0.E0,0.E0,1.E0));
#441=VECTOR('',#440,1.5E0);
#442=CARTESIAN_POINT('',(-6.75E0,0.E0,-1.325E2));
#443=LINE('',#442,#441);
#444=DIRECTION('',(0.E0,0.E0,1.E0));
#445=VECTOR('',#444,1.5E0);
#446=CARTESIAN_POINT('',(-1.025E1,0.E0,-1.325E2));
#447=LINE('',#446,#445);
#448=DIRECTION('',(0.E0,0.E0,1.E0));
#449=VECTOR('',#448,1.E1);
#450=CARTESIAN_POINT('',(3.809986876618E1,-2.05E1,-1.36E2));
#451=LINE('',#450,#449);
#452=DIRECTION('',(0.E0,0.E0,1.E0));
#453=VECTOR('',#452,5.E0);
#454=CARTESIAN_POINT('',(-1.749993972200E1,4.593175853040E-2,-1.36E2));
#455=LINE('',#454,#453);
#456=DIRECTION('',(0.E0,0.E0,1.E0));
#457=VECTOR('',#456,5.E0);
#458=CARTESIAN_POINT('',(1.749993972200E1,4.593175853019E-2,-1.36E2));
#459=LINE('',#458,#457);
#460=DIRECTION('',(0.E0,0.E0,-1.E0));
#461=VECTOR('',#460,1.E1);
#462=CARTESIAN_POINT('',(-3.809986876618E1,-2.05E1,-1.26E2));
#463=LINE('',#462,#461);
#464=DIRECTION('',(0.E0,0.E0,-1.E0));
#465=VECTOR('',#464,1.4E2);
#466=CARTESIAN_POINT('',(-5.E1,-2.75E1,4.E0));
#467=LINE('',#466,#465);
#468=DIRECTION('',(0.E0,0.E0,1.E0));
#469=VECTOR('',#468,1.4E2);
#470=CARTESIAN_POINT('',(-5.E1,-2.05E1,-1.36E2));
#471=LINE('',#470,#469);
#472=DIRECTION('',(0.E0,-1.E0,0.E0));
#473=VECTOR('',#472,7.E0);
#474=CARTESIAN_POINT('',(5.E1,-2.05E1,-1.36E2));
#475=LINE('',#474,#473);
#476=DIRECTION('',(0.E0,0.E0,1.E0));
#477=VECTOR('',#476,1.4E2);
#478=CARTESIAN_POINT('',(5.E1,-2.75E1,-1.36E2));
#479=LINE('',#478,#477);
#480=DIRECTION('',(0.E0,0.E0,-1.E0));
#481=VECTOR('',#480,1.4E2);
#482=CARTESIAN_POINT('',(5.E1,-2.05E1,4.E0));
#483=LINE('',#482,#481);
#484=DIRECTION('',(0.E0,0.E0,1.E0));
#485=VECTOR('',#484,1.E1);
#486=CARTESIAN_POINT('',(3.809986876618E1,-2.05E1,-6.E0));
#487=LINE('',#486,#485);
#488=DIRECTION('',(0.E0,0.E0,1.E0));
#489=VECTOR('',#488,5.E0);
#490=CARTESIAN_POINT('',(1.749993972200E1,4.593175853018E-2,-1.E0));
#491=LINE('',#490,#489);
#492=DIRECTION('',(0.E0,0.E0,-1.E0));
#493=VECTOR('',#492,5.E0);
#494=CARTESIAN_POINT('',(-1.749993972200E1,4.593175853066E-2,4.E0));
#495=LINE('',#494,#493);
#496=CARTESIAN_POINT('',(-1.15E1,0.E0,5.E-1));
#497=CARTESIAN_POINT('',(-5.5E0,0.E0,5.E-1));
#498=VERTEX_POINT('',#496);
#499=VERTEX_POINT('',#497);
#500=CARTESIAN_POINT('',(-1.15E1,0.E0,4.E0));
#501=VERTEX_POINT('',#500);
#502=CARTESIAN_POINT('',(-5.5E0,0.E0,4.E0));
#503=VERTEX_POINT('',#502);
#504=CARTESIAN_POINT('',(-1.025E1,0.E0,5.E-1));
#505=CARTESIAN_POINT('',(-6.75E0,0.E0,5.E-1));
#506=VERTEX_POINT('',#504);
#507=VERTEX_POINT('',#505);
#508=CARTESIAN_POINT('',(5.5E0,0.E0,5.E-1));
#509=CARTESIAN_POINT('',(1.15E1,0.E0,5.E-1));
#510=VERTEX_POINT('',#508);
#511=VERTEX_POINT('',#509);
#512=CARTESIAN_POINT('',(6.75E0,0.E0,5.E-1));
#513=CARTESIAN_POINT('',(1.025E1,0.E0,5.E-1));
#514=VERTEX_POINT('',#512);
#515=VERTEX_POINT('',#513);
#516=CARTESIAN_POINT('',(1.025E1,0.E0,-1.E0));
#517=CARTESIAN_POINT('',(6.75E0,0.E0,-1.E0));
#518=VERTEX_POINT('',#516);
#519=VERTEX_POINT('',#517);
#520=CARTESIAN_POINT('',(-6.75E0,0.E0,-1.E0));
#521=CARTESIAN_POINT('',(-1.025E1,0.E0,-1.E0));
#522=VERTEX_POINT('',#520);
#523=VERTEX_POINT('',#521);
#524=CARTESIAN_POINT('',(4.E0,0.E0,-1.E0));
#525=CARTESIAN_POINT('',(-4.E0,0.E0,-1.E0));
#526=VERTEX_POINT('',#524);
#527=VERTEX_POINT('',#525);
#528=CARTESIAN_POINT('',(-4.E0,0.E0,4.E0));
#529=VERTEX_POINT('',#528);
#530=CARTESIAN_POINT('',(4.E0,0.E0,4.E0));
#531=VERTEX_POINT('',#530);
#532=CARTESIAN_POINT('',(5.E1,-2.05E1,4.E0));
#533=CARTESIAN_POINT('',(5.E1,-2.75E1,4.E0));
#534=VERTEX_POINT('',#532);
#535=VERTEX_POINT('',#533);
#536=CARTESIAN_POINT('',(-5.E1,-2.75E1,4.E0));
#537=VERTEX_POINT('',#536);
#538=CARTESIAN_POINT('',(-5.E1,-2.05E1,4.E0));
#539=VERTEX_POINT('',#538);
#540=CARTESIAN_POINT('',(1.15E1,0.E0,4.E0));
#541=CARTESIAN_POINT('',(5.5E0,0.E0,4.E0));
#542=VERTEX_POINT('',#540);
#543=VERTEX_POINT('',#541);
#544=CARTESIAN_POINT('',(5.E1,-2.05E1,-1.36E2));
#545=CARTESIAN_POINT('',(5.E1,-2.75E1,-1.36E2));
#546=VERTEX_POINT('',#544);
#547=VERTEX_POINT('',#545);
#548=CARTESIAN_POINT('',(-5.E1,-2.05E1,-1.36E2));
#549=CARTESIAN_POINT('',(-5.E1,-2.75E1,-1.36E2));
#550=VERTEX_POINT('',#548);
#551=VERTEX_POINT('',#549);
#552=CARTESIAN_POINT('',(4.E0,0.E0,-1.36E2));
#553=CARTESIAN_POINT('',(-4.E0,0.E0,-1.36E2));
#554=VERTEX_POINT('',#552);
#555=VERTEX_POINT('',#553);
#556=CARTESIAN_POINT('',(5.5E0,0.E0,-1.36E2));
#557=CARTESIAN_POINT('',(1.15E1,0.E0,-1.36E2));
#558=VERTEX_POINT('',#556);
#559=VERTEX_POINT('',#557);
#560=CARTESIAN_POINT('',(-1.15E1,0.E0,-1.36E2));
#561=CARTESIAN_POINT('',(-5.5E0,0.E0,-1.36E2));
#562=VERTEX_POINT('',#560);
#563=VERTEX_POINT('',#561);
#564=CARTESIAN_POINT('',(6.75E0,0.E0,-1.31E2));
#565=CARTESIAN_POINT('',(1.025E1,0.E0,-1.31E2));
#566=VERTEX_POINT('',#564);
#567=VERTEX_POINT('',#565);
#568=CARTESIAN_POINT('',(-1.025E1,0.E0,-1.31E2));
#569=CARTESIAN_POINT('',(-6.75E0,0.E0,-1.31E2));
#570=VERTEX_POINT('',#568);
#571=VERTEX_POINT('',#569);
#572=CARTESIAN_POINT('',(-4.E0,0.E0,-1.31E2));
#573=CARTESIAN_POINT('',(4.E0,0.E0,-1.31E2));
#574=VERTEX_POINT('',#572);
#575=VERTEX_POINT('',#573);
#576=CARTESIAN_POINT('',(-1.025E1,0.E0,-1.325E2));
#577=VERTEX_POINT('',#576);
#578=CARTESIAN_POINT('',(-6.75E0,0.E0,-1.325E2));
#579=VERTEX_POINT('',#578);
#580=CARTESIAN_POINT('',(1.15E1,0.E0,-1.325E2));
#581=CARTESIAN_POINT('',(5.5E0,0.E0,-1.325E2));
#582=VERTEX_POINT('',#580);
#583=VERTEX_POINT('',#581);
#584=CARTESIAN_POINT('',(1.025E1,0.E0,-1.325E2));
#585=CARTESIAN_POINT('',(6.75E0,0.E0,-1.325E2));
#586=VERTEX_POINT('',#584);
#587=VERTEX_POINT('',#585);
#588=CARTESIAN_POINT('',(-5.5E0,0.E0,-1.325E2));
#589=CARTESIAN_POINT('',(-1.15E1,0.E0,-1.325E2));
#590=VERTEX_POINT('',#588);
#591=VERTEX_POINT('',#589);
#592=CARTESIAN_POINT('',(-1.749993972200E1,4.593175853040E-2,-1.36E2));
#593=CARTESIAN_POINT('',(-1.749993972200E1,4.593175853042E-2,-1.31E2));
#594=VERTEX_POINT('',#592);
#595=VERTEX_POINT('',#593);
#596=CARTESIAN_POINT('',(1.749993972200E1,4.593175853019E-2,-1.36E2));
#597=CARTESIAN_POINT('',(1.749993972200E1,4.593175853019E-2,-1.31E2));
#598=VERTEX_POINT('',#596);
#599=VERTEX_POINT('',#597);
#600=CARTESIAN_POINT('',(1.749993972200E1,4.593175853018E-2,-1.E0));
#601=CARTESIAN_POINT('',(1.749993972200E1,4.593175853018E-2,4.E0));
#602=VERTEX_POINT('',#600);
#603=VERTEX_POINT('',#601);
#604=CARTESIAN_POINT('',(-1.749993972200E1,4.593175853066E-2,4.E0));
#605=CARTESIAN_POINT('',(-1.749993972200E1,4.593175853062E-2,-1.E0));
#606=VERTEX_POINT('',#604);
#607=VERTEX_POINT('',#605);
#608=CARTESIAN_POINT('',(-3.809986876618E1,-2.05E1,4.E0));
#609=VERTEX_POINT('',#608);
#610=CARTESIAN_POINT('',(3.809986876618E1,-2.05E1,4.E0));
#611=VERTEX_POINT('',#610);
#612=CARTESIAN_POINT('',(3.809986876618E1,-2.05E1,-1.36E2));
#613=VERTEX_POINT('',#612);
#614=CARTESIAN_POINT('',(-3.809986876618E1,-2.05E1,-1.36E2));
#615=VERTEX_POINT('',#614);
#616=CARTESIAN_POINT('',(2.464624471910E1,-1.55E1,-1.31E2));
#617=CARTESIAN_POINT('',(-2.464624471910E1,-1.55E1,-1.31E2));
#618=VERTEX_POINT('',#616);
#619=VERTEX_POINT('',#617);
#620=CARTESIAN_POINT('',(3.809986876618E1,-2.05E1,-1.26E2));
#621=CARTESIAN_POINT('',(-3.809986876618E1,-2.05E1,-1.26E2));
#622=VERTEX_POINT('',#620);
#623=VERTEX_POINT('',#621);
#624=CARTESIAN_POINT('',(-2.464624471910E1,-1.55E1,-1.E0));
#625=CARTESIAN_POINT('',(2.464624471910E1,-1.55E1,-1.E0));
#626=VERTEX_POINT('',#624);
#627=VERTEX_POINT('',#625);
#628=CARTESIAN_POINT('',(-3.809986876618E1,-2.05E1,-6.E0));
#629=CARTESIAN_POINT('',(3.809986876618E1,-2.05E1,-6.E0));
#630=VERTEX_POINT('',#628);
#631=VERTEX_POINT('',#629);
#632=CARTESIAN_POINT('',(-8.5E0,0.E0,4.E0));
#633=DIRECTION('',(0.E0,0.E0,1.E0));
#634=DIRECTION('',(1.E0,0.E0,0.E0));
#635=AXIS2_PLACEMENT_3D('',#632,#633,#634);
#636=CYLINDRICAL_SURFACE('',#635,3.E0);
#638=ORIENTED_EDGE('',*,*,#637,.F.);
#640=ORIENTED_EDGE('',*,*,#639,.F.);
#642=ORIENTED_EDGE('',*,*,#641,.F.);
#644=ORIENTED_EDGE('',*,*,#643,.T.);
#645=EDGE_LOOP('',(#638,#640,#642,#644));
#646=FACE_OUTER_BOUND('',#645,.F.);
#647=ADVANCED_FACE('',(#646),#636,.F.);
#648=CARTESIAN_POINT('',(0.E0,0.E0,5.E-1));
#649=DIRECTION('',(0.E0,0.E0,-1.E0));
#650=DIRECTION('',(-1.E0,0.E0,0.E0));
#651=AXIS2_PLACEMENT_3D('',#648,#649,#650);
#652=PLANE('',#651);
#653=ORIENTED_EDGE('',*,*,#637,.T.);
#655=ORIENTED_EDGE('',*,*,#654,.T.);
#656=EDGE_LOOP('',(#653,#655));
#657=FACE_OUTER_BOUND('',#656,.F.);
#659=ORIENTED_EDGE('',*,*,#658,.T.);
#661=ORIENTED_EDGE('',*,*,#660,.T.);
#662=EDGE_LOOP('',(#659,#661));
#663=FACE_BOUND('',#662,.F.);
#664=ADVANCED_FACE('',(#657,#663),#652,.F.);
#665=CARTESIAN_POINT('',(-8.5E0,0.E0,4.E0));
#666=DIRECTION('',(0.E0,0.E0,1.E0));
#667=DIRECTION('',(1.E0,0.E0,0.E0));
#668=AXIS2_PLACEMENT_3D('',#665,#666,#667);
#669=CYLINDRICAL_SURFACE('',#668,3.E0);
#670=ORIENTED_EDGE('',*,*,#654,.F.);
#671=ORIENTED_EDGE('',*,*,#643,.F.);
#673=ORIENTED_EDGE('',*,*,#672,.F.);
#674=ORIENTED_EDGE('',*,*,#639,.T.);
#675=EDGE_LOOP('',(#670,#671,#673,#674));
#676=FACE_OUTER_BOUND('',#675,.F.);
#677=ADVANCED_FACE('',(#676),#669,.F.);
#678=CARTESIAN_POINT('',(0.E0,0.E0,4.E0));
#679=DIRECTION('',(0.E0,0.E0,1.E0));
#680=DIRECTION('',(1.E0,0.E0,0.E0));
#681=AXIS2_PLACEMENT_3D('',#678,#679,#680);
#682=PLANE('',#681);
#684=ORIENTED_EDGE('',*,*,#683,.T.);
#686=ORIENTED_EDGE('',*,*,#685,.T.);
#688=ORIENTED_EDGE('',*,*,#687,.T.);
#690=ORIENTED_EDGE('',*,*,#689,.T.);
#692=ORIENTED_EDGE('',*,*,#691,.T.);
#694=ORIENTED_EDGE('',*,*,#693,.T.);
#696=ORIENTED_EDGE('',*,*,#695,.T.);
#698=ORIENTED_EDGE('',*,*,#697,.T.);
#699=EDGE_LOOP('',(#684,#686,#688,#690,#692,#694,#696,#698));
#700=FACE_OUTER_BOUND('',#699,.F.);
#701=ORIENTED_EDGE('',*,*,#641,.T.);
#702=ORIENTED_EDGE('',*,*,#672,.T.);
#703=EDGE_LOOP('',(#701,#702));
#704=FACE_BOUND('',#703,.F.);
#706=ORIENTED_EDGE('',*,*,#705,.T.);
#708=ORIENTED_EDGE('',*,*,#707,.T.);
#709=EDGE_LOOP('',(#706,#708));
#710=FACE_BOUND('',#709,.F.);
#712=ORIENTED_EDGE('',*,*,#711,.T.);
#714=ORIENTED_EDGE('',*,*,#713,.T.);
#715=EDGE_LOOP('',(#712,#714));
#716=FACE_BOUND('',#715,.F.);
#717=ADVANCED_FACE('',(#700,#704,#710,#716),#682,.T.);
#718=CARTESIAN_POINT('',(0.E0,0.E0,0.E0));
#719=DIRECTION('',(0.E0,0.E0,1.E0));
#720=DIRECTION('',(1.E0,0.E0,0.E0));
#721=AXIS2_PLACEMENT_3D('',#718,#719,#720);
#722=CYLINDRICAL_SURFACE('',#721,4.E0);
#724=ORIENTED_EDGE('',*,*,#723,.F.);
#726=ORIENTED_EDGE('',*,*,#725,.F.);
#728=ORIENTED_EDGE('',*,*,#727,.F.);
#729=ORIENTED_EDGE('',*,*,#711,.F.);
#730=EDGE_LOOP('',(#724,#726,#728,#729));
#731=FACE_OUTER_BOUND('',#730,.F.);
#732=ADVANCED_FACE('',(#731),#722,.F.);
#733=CARTESIAN_POINT('',(0.E0,0.E0,0.E0));
#734=DIRECTION('',(0.E0,0.E0,1.E0));
#735=DIRECTION('',(1.E0,0.E0,0.E0));
#736=AXIS2_PLACEMENT_3D('',#733,#734,#735);
#737=CYLINDRICAL_SURFACE('',#736,4.E0);
#738=ORIENTED_EDGE('',*,*,#723,.T.);
#739=ORIENTED_EDGE('',*,*,#713,.F.);
#740=ORIENTED_EDGE('',*,*,#727,.T.);
#742=ORIENTED_EDGE('',*,*,#741,.F.);
#743=EDGE_LOOP('',(#738,#739,#740,#742));
#744=FACE_OUTER_BOUND('',#743,.F.);
#745=ADVANCED_FACE('',(#744),#737,.F.);
#746=CARTESIAN_POINT('',(0.E0,0.E0,-1.E0));
#747=DIRECTION('',(0.E0,0.E0,-1.E0));
#748=DIRECTION('',(-1.E0,0.E0,0.E0));
#749=AXIS2_PLACEMENT_3D('',#746,#747,#748);
#750=PLANE('',#749);
#752=ORIENTED_EDGE('',*,*,#751,.T.);
#754=ORIENTED_EDGE('',*,*,#753,.T.);
#756=ORIENTED_EDGE('',*,*,#755,.T.);
#758=ORIENTED_EDGE('',*,*,#757,.T.);
#759=EDGE_LOOP('',(#752,#754,#756,#758));
#760=FACE_OUTER_BOUND('',#759,.F.);
#761=ORIENTED_EDGE('',*,*,#725,.T.);
#762=ORIENTED_EDGE('',*,*,#741,.T.);
#763=EDGE_LOOP('',(#761,#762));
#764=FACE_BOUND('',#763,.F.);
#766=ORIENTED_EDGE('',*,*,#765,.T.);
#768=ORIENTED_EDGE('',*,*,#767,.T.);
#769=EDGE_LOOP('',(#766,#768));
#770=FACE_BOUND('',#769,.F.);
#772=ORIENTED_EDGE('',*,*,#771,.T.);
#774=ORIENTED_EDGE('',*,*,#773,.T.);
#775=EDGE_LOOP('',(#772,#774));
#776=FACE_BOUND('',#775,.F.);
#777=ADVANCED_FACE('',(#760,#764,#770,#776),#750,.T.);
#778=CARTESIAN_POINT('',(-8.5E0,0.E0,-1.E0));
#779=DIRECTION('',(0.E0,0.E0,-1.E0));
#780=DIRECTION('',(-1.E0,0.E0,0.E0));
#781=AXIS2_PLACEMENT_3D('',#778,#779,#780);
#782=CYLINDRICAL_SURFACE('',#781,1.75E0);
#783=ORIENTED_EDGE('',*,*,#771,.F.);
#785=ORIENTED_EDGE('',*,*,#784,.F.);
#786=ORIENTED_EDGE('',*,*,#658,.F.);
#788=ORIENTED_EDGE('',*,*,#787,.T.);
#789=EDGE_LOOP('',(#783,#785,#786,#788));
#790=FACE_OUTER_BOUND('',#789,.F.);
#791=ADVANCED_FACE('',(#790),#782,.F.);
#792=CARTESIAN_POINT('',(-8.5E0,0.E0,-1.E0));
#793=DIRECTION('',(0.E0,0.E0,-1.E0));
#794=DIRECTION('',(-1.E0,0.E0,0.E0));
#795=AXIS2_PLACEMENT_3D('',#792,#793,#794);
#796=CYLINDRICAL_SURFACE('',#795,1.75E0);
#797=ORIENTED_EDGE('',*,*,#773,.F.);
#798=ORIENTED_EDGE('',*,*,#787,.F.);
#799=ORIENTED_EDGE('',*,*,#660,.F.);
#800=ORIENTED_EDGE('',*,*,#784,.T.);
#801=EDGE_LOOP('',(#797,#798,#799,#800));
#802=FACE_OUTER_BOUND('',#801,.F.);
#803=ADVANCED_FACE('',(#802),#796,.F.);
#804=CARTESIAN_POINT('',(8.5E0,0.E0,-1.E0));
#805=DIRECTION('',(0.E0,0.E0,-1.E0));
#806=DIRECTION('',(-1.E0,0.E0,0.E0));
#807=AXIS2_PLACEMENT_3D('',#804,#805,#806);
#808=CYLINDRICAL_SURFACE('',#807,1.75E0);
#809=ORIENTED_EDGE('',*,*,#765,.F.);
#811=ORIENTED_EDGE('',*,*,#810,.F.);
#813=ORIENTED_EDGE('',*,*,#812,.F.);
#815=ORIENTED_EDGE('',*,*,#814,.T.);
#816=EDGE_LOOP('',(#809,#811,#813,#815));
#817=FACE_OUTER_BOUND('',#816,.F.);
#818=ADVANCED_FACE('',(#817),#808,.F.);
#819=CARTESIAN_POINT('',(8.5E0,0.E0,-1.E0));
#820=DIRECTION('',(0.E0,0.E0,-1.E0));
#821=DIRECTION('',(-1.E0,0.E0,0.E0));
#822=AXIS2_PLACEMENT_3D('',#819,#820,#821);
#823=CYLINDRICAL_SURFACE('',#822,1.75E0);
#824=ORIENTED_EDGE('',*,*,#767,.F.);
#825=ORIENTED_EDGE('',*,*,#814,.F.);
#827=ORIENTED_EDGE('',*,*,#826,.F.);
#828=ORIENTED_EDGE('',*,*,#810,.T.);
#829=EDGE_LOOP('',(#824,#825,#827,#828));
#830=FACE_OUTER_BOUND('',#829,.F.);
#831=ADVANCED_FACE('',(#830),#823,.F.);
#832=CARTESIAN_POINT('',(0.E0,0.E0,5.E-1));
#833=DIRECTION('',(0.E0,0.E0,-1.E0));
#834=DIRECTION('',(-1.E0,0.E0,0.E0));
#835=AXIS2_PLACEMENT_3D('',#832,#833,#834);
#836=PLANE('',#835);
#838=ORIENTED_EDGE('',*,*,#837,.T.);
#840=ORIENTED_EDGE('',*,*,#839,.T.);
#841=EDGE_LOOP('',(#838,#840));
#842=FACE_OUTER_BOUND('',#841,.F.);
#843=ORIENTED_EDGE('',*,*,#812,.T.);
#844=ORIENTED_EDGE('',*,*,#826,.T.);
#845=EDGE_LOOP('',(#843,#844));
#846=FACE_BOUND('',#845,.F.);
#847=ADVANCED_FACE('',(#842,#846),#836,.F.);
#848=CARTESIAN_POINT('',(8.5E0,0.E0,4.E0));
#849=DIRECTION('',(0.E0,0.E0,1.E0));
#850=DIRECTION('',(1.E0,0.E0,0.E0));
#851=AXIS2_PLACEMENT_3D('',#848,#849,#850);
#852=CYLINDRICAL_SURFACE('',#851,3.E0);
#853=ORIENTED_EDGE('',*,*,#837,.F.);
#855=ORIENTED_EDGE('',*,*,#854,.F.);
#856=ORIENTED_EDGE('',*,*,#705,.F.);
#858=ORIENTED_EDGE('',*,*,#857,.T.);
#859=EDGE_LOOP('',(#853,#855,#856,#858));
#860=FACE_OUTER_BOUND('',#859,.F.);
#861=ADVANCED_FACE('',(#860),#852,.F.);
#862=CARTESIAN_POINT('',(8.5E0,0.E0,4.E0));
#863=DIRECTION('',(0.E0,0.E0,1.E0));
#864=DIRECTION('',(1.E0,0.E0,0.E0));
#865=AXIS2_PLACEMENT_3D('',#862,#863,#864);
#866=CYLINDRICAL_SURFACE('',#865,3.E0);
#867=ORIENTED_EDGE('',*,*,#839,.F.);
#868=ORIENTED_EDGE('',*,*,#857,.F.);
#869=ORIENTED_EDGE('',*,*,#707,.F.);
#870=ORIENTED_EDGE('',*,*,#854,.T.);
#871=EDGE_LOOP('',(#867,#868,#869,#870));
#872=FACE_OUTER_BOUND('',#871,.F.);
#873=ADVANCED_FACE('',(#872),#866,.F.);
#874=CARTESIAN_POINT('',(-1.8036E2,-1.55E1,-6.E0));
#875=DIRECTION('',(1.E0,0.E0,0.E0));
#876=DIRECTION('',(0.E0,0.E0,1.E0));
#877=AXIS2_PLACEMENT_3D('',#874,#875,#876);
#878=CYLINDRICAL_SURFACE('',#877,5.E0);
#879=ORIENTED_EDGE('',*,*,#751,.F.);
#881=ORIENTED_EDGE('',*,*,#880,.T.);
#883=ORIENTED_EDGE('',*,*,#882,.T.);
#885=ORIENTED_EDGE('',*,*,#884,.T.);
#886=EDGE_LOOP('',(#879,#881,#883,#885));
#887=FACE_OUTER_BOUND('',#886,.F.);
#888=ADVANCED_FACE('',(#887),#878,.F.);
#889=CARTESIAN_POINT('',(-3.809986876618E1,1.E-1,1.86504E2));
#890=DIRECTION('',(0.E0,0.E0,-1.E0));
#891=DIRECTION('',(9.999965555427E-1,-2.624671916011E-3,0.E0));
#892=AXIS2_PLACEMENT_3D('',#889,#890,#891);
#893=CYLINDRICAL_SURFACE('',#892,2.06E1);
#895=ORIENTED_EDGE('',*,*,#894,.T.);
#896=ORIENTED_EDGE('',*,*,#880,.F.);
#897=ORIENTED_EDGE('',*,*,#757,.F.);
#899=ORIENTED_EDGE('',*,*,#898,.F.);
#900=ORIENTED_EDGE('',*,*,#685,.F.);
#901=EDGE_LOOP('',(#895,#896,#897,#899,#900));
#902=FACE_OUTER_BOUND('',#901,.F.);
#903=ADVANCED_FACE('',(#902),#893,.F.);
#904=CARTESIAN_POINT('',(0.E0,-2.05E1,0.E0));
#905=DIRECTION('',(0.E0,-1.E0,0.E0));
#906=DIRECTION('',(0.E0,0.E0,1.E0));
#907=AXIS2_PLACEMENT_3D('',#904,#905,#906);
#908=PLANE('',#907);
#910=ORIENTED_EDGE('',*,*,#909,.F.);
#912=ORIENTED_EDGE('',*,*,#911,.F.);
#914=ORIENTED_EDGE('',*,*,#913,.F.);
#916=ORIENTED_EDGE('',*,*,#915,.F.);
#917=ORIENTED_EDGE('',*,*,#691,.F.);
#919=ORIENTED_EDGE('',*,*,#918,.F.);
#920=ORIENTED_EDGE('',*,*,#882,.F.);
#921=ORIENTED_EDGE('',*,*,#894,.F.);
#922=ORIENTED_EDGE('',*,*,#683,.F.);
#924=ORIENTED_EDGE('',*,*,#923,.F.);
#926=ORIENTED_EDGE('',*,*,#925,.F.);
#928=ORIENTED_EDGE('',*,*,#927,.F.);
#929=EDGE_LOOP('',(#910,#912,#914,#916,#917,#919,#920,#921,#922,#924,#926,
#928));
#930=FACE_OUTER_BOUND('',#929,.F.);
#931=ADVANCED_FACE('',(#930),#908,.F.);
#932=CARTESIAN_POINT('',(1.8036E2,-1.55E1,-1.26E2));
#933=DIRECTION('',(-1.E0,0.E0,0.E0));
#934=DIRECTION('',(0.E0,0.E0,-1.E0));
#935=AXIS2_PLACEMENT_3D('',#932,#933,#934);
#936=CYLINDRICAL_SURFACE('',#935,5.E0);
#938=ORIENTED_EDGE('',*,*,#937,.F.);
#940=ORIENTED_EDGE('',*,*,#939,.T.);
#941=ORIENTED_EDGE('',*,*,#909,.T.);
#943=ORIENTED_EDGE('',*,*,#942,.T.);
#944=EDGE_LOOP('',(#938,#940,#941,#943));
#945=FACE_OUTER_BOUND('',#944,.F.);
#946=ADVANCED_FACE('',(#945),#936,.F.);
#947=CARTESIAN_POINT('',(0.E0,0.E0,-1.31E2));
#948=DIRECTION('',(0.E0,0.E0,-1.E0));
#949=DIRECTION('',(-1.E0,0.E0,0.E0));
#950=AXIS2_PLACEMENT_3D('',#947,#948,#949);
#951=PLANE('',#950);
#952=ORIENTED_EDGE('',*,*,#937,.T.);
#954=ORIENTED_EDGE('',*,*,#953,.T.);
#956=ORIENTED_EDGE('',*,*,#955,.T.);
#958=ORIENTED_EDGE('',*,*,#957,.T.);
#959=EDGE_LOOP('',(#952,#954,#956,#958));
#960=FACE_OUTER_BOUND('',#959,.F.);
#962=ORIENTED_EDGE('',*,*,#961,.T.);
#964=ORIENTED_EDGE('',*,*,#963,.T.);
#965=EDGE_LOOP('',(#962,#964));
#966=FACE_BOUND('',#965,.F.);
#968=ORIENTED_EDGE('',*,*,#967,.T.);
#970=ORIENTED_EDGE('',*,*,#969,.T.);
#971=EDGE_LOOP('',(#968,#970));
#972=FACE_BOUND('',#971,.F.);
#974=ORIENTED_EDGE('',*,*,#973,.T.);
#976=ORIENTED_EDGE('',*,*,#975,.T.);
#977=EDGE_LOOP('',(#974,#976));
#978=FACE_BOUND('',#977,.F.);
#979=ADVANCED_FACE('',(#960,#966,#972,#978),#951,.F.);
#980=CARTESIAN_POINT('',(8.5E0,0.E0,-1.31E2));
#981=DIRECTION('',(0.E0,0.E0,-1.E0));
#982=DIRECTION('',(-1.E0,0.E0,0.E0));
#983=AXIS2_PLACEMENT_3D('',#980,#981,#982);
#984=CYLINDRICAL_SURFACE('',#983,1.75E0);
#985=ORIENTED_EDGE('',*,*,#973,.F.);
#987=ORIENTED_EDGE('',*,*,#986,.F.);
#989=ORIENTED_EDGE('',*,*,#988,.F.);
#991=ORIENTED_EDGE('',*,*,#990,.T.);
#992=EDGE_LOOP('',(#985,#987,#989,#991));
#993=FACE_OUTER_BOUND('',#992,.F.);
#994=ADVANCED_FACE('',(#993),#984,.F.);
#995=CARTESIAN_POINT('',(8.5E0,0.E0,-1.31E2));
#996=DIRECTION('',(0.E0,0.E0,-1.E0));
#997=DIRECTION('',(-1.E0,0.E0,0.E0));
#998=AXIS2_PLACEMENT_3D('',#995,#996,#997);
#999=CYLINDRICAL_SURFACE('',#998,1.75E0);
#1000=ORIENTED_EDGE('',*,*,#975,.F.);
#1001=ORIENTED_EDGE('',*,*,#990,.F.);
#1003=ORIENTED_EDGE('',*,*,#1002,.F.);
#1004=ORIENTED_EDGE('',*,*,#986,.T.);
#1005=EDGE_LOOP('',(#1000,#1001,#1003,#1004));
#1006=FACE_OUTER_BOUND('',#1005,.F.);
#1007=ADVANCED_FACE('',(#1006),#999,.F.);
#1008=CARTESIAN_POINT('',(0.E0,0.E0,-1.325E2));
#1009=DIRECTION('',(0.E0,0.E0,-1.E0));
#1010=DIRECTION('',(-1.E0,0.E0,0.E0));
#1011=AXIS2_PLACEMENT_3D('',#1008,#1009,#1010);
#1012=PLANE('',#1011);
#1014=ORIENTED_EDGE('',*,*,#1013,.T.);
#1016=ORIENTED_EDGE('',*,*,#1015,.T.);
#1017=EDGE_LOOP('',(#1014,#1016));
#1018=FACE_OUTER_BOUND('',#1017,.F.);
#1019=ORIENTED_EDGE('',*,*,#988,.T.);
#1020=ORIENTED_EDGE('',*,*,#1002,.T.);
#1021=EDGE_LOOP('',(#1019,#1020));
#1022=FACE_BOUND('',#1021,.F.);
#1023=ADVANCED_FACE('',(#1018,#1022),#1012,.T.);
#1024=CARTESIAN_POINT('',(8.5E0,0.E0,-1.36E2));
#1025=DIRECTION('',(0.E0,0.E0,-1.E0));
#1026=DIRECTION('',(-1.E0,0.E0,0.E0));
#1027=AXIS2_PLACEMENT_3D('',#1024,#1025,#1026);
#1028=CYLINDRICAL_SURFACE('',#1027,3.E0);
#1029=ORIENTED_EDGE('',*,*,#1013,.F.);
#1031=ORIENTED_EDGE('',*,*,#1030,.F.);
#1033=ORIENTED_EDGE('',*,*,#1032,.F.);
#1035=ORIENTED_EDGE('',*,*,#1034,.T.);
#1036=EDGE_LOOP('',(#1029,#1031,#1033,#1035));
#1037=FACE_OUTER_BOUND('',#1036,.F.);
#1038=ADVANCED_FACE('',(#1037),#1028,.F.);
#1039=CARTESIAN_POINT('',(8.5E0,0.E0,-1.36E2));
#1040=DIRECTION('',(0.E0,0.E0,-1.E0));
#1041=DIRECTION('',(-1.E0,0.E0,0.E0));
#1042=AXIS2_PLACEMENT_3D('',#1039,#1040,#1041);
#1043=CYLINDRICAL_SURFACE('',#1042,3.E0);
#1044=ORIENTED_EDGE('',*,*,#1015,.F.);
#1045=ORIENTED_EDGE('',*,*,#1034,.F.);
#1047=ORIENTED_EDGE('',*,*,#1046,.F.);
#1048=ORIENTED_EDGE('',*,*,#1030,.T.);
#1049=EDGE_LOOP('',(#1044,#1045,#1047,#1048));
#1050=FACE_OUTER_BOUND('',#1049,.F.);
#1051=ADVANCED_FACE('',(#1050),#1043,.F.);
#1052=CARTESIAN_POINT('',(0.E0,0.E0,-1.36E2));
#1053=DIRECTION('',(0.E0,0.E0,1.E0));
#1054=DIRECTION('',(1.E0,0.E0,0.E0));
#1055=AXIS2_PLACEMENT_3D('',#1052,#1053,#1054);
#1056=PLANE('',#1055);
#1057=ORIENTED_EDGE('',*,*,#913,.T.);
#1059=ORIENTED_EDGE('',*,*,#1058,.T.);
#1061=ORIENTED_EDGE('',*,*,#1060,.T.);
#1063=ORIENTED_EDGE('',*,*,#1062,.T.);
#1064=ORIENTED_EDGE('',*,*,#925,.T.);
#1066=ORIENTED_EDGE('',*,*,#1065,.T.);
#1068=ORIENTED_EDGE('',*,*,#1067,.T.);
#1070=ORIENTED_EDGE('',*,*,#1069,.F.);
#1071=EDGE_LOOP('',(#1057,#1059,#1061,#1063,#1064,#1066,#1068,#1070));
#1072=FACE_OUTER_BOUND('',#1071,.F.);
#1073=ORIENTED_EDGE('',*,*,#1032,.T.);
#1074=ORIENTED_EDGE('',*,*,#1046,.T.);
#1075=EDGE_LOOP('',(#1073,#1074));
#1076=FACE_BOUND('',#1075,.F.);
#1078=ORIENTED_EDGE('',*,*,#1077,.T.);
#1080=ORIENTED_EDGE('',*,*,#1079,.T.);
#1081=EDGE_LOOP('',(#1078,#1080));
#1082=FACE_BOUND('',#1081,.F.);
#1084=ORIENTED_EDGE('',*,*,#1083,.T.);
#1086=ORIENTED_EDGE('',*,*,#1085,.T.);
#1087=EDGE_LOOP('',(#1084,#1086));
#1088=FACE_BOUND('',#1087,.F.);
#1089=ADVANCED_FACE('',(#1072,#1076,#1082,#1088),#1056,.F.);
#1090=CARTESIAN_POINT('',(0.E0,0.E0,-1.32E2));
#1091=DIRECTION('',(0.E0,0.E0,1.E0));
#1092=DIRECTION('',(1.E0,0.E0,0.E0));
#1093=AXIS2_PLACEMENT_3D('',#1090,#1091,#1092);
#1094=CYLINDRICAL_SURFACE('',#1093,4.E0);
#1095=ORIENTED_EDGE('',*,*,#967,.F.);
#1097=ORIENTED_EDGE('',*,*,#1096,.F.);
#1098=ORIENTED_EDGE('',*,*,#1083,.F.);
#1100=ORIENTED_EDGE('',*,*,#1099,.F.);
#1101=EDGE_LOOP('',(#1095,#1097,#1098,#1100));
#1102=FACE_OUTER_BOUND('',#1101,.F.);
#1103=ADVANCED_FACE('',(#1102),#1094,.F.);
#1104=CARTESIAN_POINT('',(0.E0,0.E0,-1.32E2));
#1105=DIRECTION('',(0.E0,0.E0,1.E0));
#1106=DIRECTION('',(1.E0,0.E0,0.E0));
#1107=AXIS2_PLACEMENT_3D('',#1104,#1105,#1106);
#1108=CYLINDRICAL_SURFACE('',#1107,4.E0);
#1109=ORIENTED_EDGE('',*,*,#969,.F.);
#1110=ORIENTED_EDGE('',*,*,#1099,.T.);
#1111=ORIENTED_EDGE('',*,*,#1085,.F.);
#1112=ORIENTED_EDGE('',*,*,#1096,.T.);
#1113=EDGE_LOOP('',(#1109,#1110,#1111,#1112));
#1114=FACE_OUTER_BOUND('',#1113,.F.);
#1115=ADVANCED_FACE('',(#1114),#1108,.F.);
#1116=CARTESIAN_POINT('',(-8.5E0,0.E0,-1.36E2));
#1117=DIRECTION('',(0.E0,0.E0,-1.E0));
#1118=DIRECTION('',(-1.E0,0.E0,0.E0));
#1119=AXIS2_PLACEMENT_3D('',#1116,#1117,#1118);
#1120=CYLINDRICAL_SURFACE('',#1119,3.E0);
#1122=ORIENTED_EDGE('',*,*,#1121,.F.);
#1124=ORIENTED_EDGE('',*,*,#1123,.F.);
#1125=ORIENTED_EDGE('',*,*,#1077,.F.);
#1127=ORIENTED_EDGE('',*,*,#1126,.T.);
#1128=EDGE_LOOP('',(#1122,#1124,#1125,#1127));
#1129=FACE_OUTER_BOUND('',#1128,.F.);
#1130=ADVANCED_FACE('',(#1129),#1120,.F.);
#1131=CARTESIAN_POINT('',(0.E0,0.E0,-1.325E2));
#1132=DIRECTION('',(0.E0,0.E0,-1.E0));
#1133=DIRECTION('',(-1.E0,0.E0,0.E0));
#1134=AXIS2_PLACEMENT_3D('',#1131,#1132,#1133);
#1135=PLANE('',#1134);
#1136=ORIENTED_EDGE('',*,*,#1121,.T.);
#1138=ORIENTED_EDGE('',*,*,#1137,.T.);
#1139=EDGE_LOOP('',(#1136,#1138));
#1140=FACE_OUTER_BOUND('',#1139,.F.);
#1142=ORIENTED_EDGE('',*,*,#1141,.T.);
#1144=ORIENTED_EDGE('',*,*,#1143,.T.);
#1145=EDGE_LOOP('',(#1142,#1144));
#1146=FACE_BOUND('',#1145,.F.);
#1147=ADVANCED_FACE('',(#1140,#1146),#1135,.T.);
#1148=CARTESIAN_POINT('',(-8.5E0,0.E0,-1.36E2));
#1149=DIRECTION('',(0.E0,0.E0,-1.E0));
#1150=DIRECTION('',(-1.E0,0.E0,0.E0));
#1151=AXIS2_PLACEMENT_3D('',#1148,#1149,#1150);
#1152=CYLINDRICAL_SURFACE('',#1151,3.E0);
#1153=ORIENTED_EDGE('',*,*,#1137,.F.);
#1154=ORIENTED_EDGE('',*,*,#1126,.F.);
#1155=ORIENTED_EDGE('',*,*,#1079,.F.);
#1156=ORIENTED_EDGE('',*,*,#1123,.T.);
#1157=EDGE_LOOP('',(#1153,#1154,#1155,#1156));
#1158=FACE_OUTER_BOUND('',#1157,.F.);
#1159=ADVANCED_FACE('',(#1158),#1152,.F.);
#1160=CARTESIAN_POINT('',(-8.5E0,0.E0,-1.31E2));
#1161=DIRECTION('',(0.E0,0.E0,-1.E0));
#1162=DIRECTION('',(-1.E0,0.E0,0.E0));
#1163=AXIS2_PLACEMENT_3D('',#1160,#1161,#1162);
#1164=CYLINDRICAL_SURFACE('',#1163,1.75E0);
#1165=ORIENTED_EDGE('',*,*,#961,.F.);
#1167=ORIENTED_EDGE('',*,*,#1166,.F.);
#1168=ORIENTED_EDGE('',*,*,#1141,.F.);
#1170=ORIENTED_EDGE('',*,*,#1169,.T.);
#1171=EDGE_LOOP('',(#1165,#1167,#1168,#1170));
#1172=FACE_OUTER_BOUND('',#1171,.F.);
#1173=ADVANCED_FACE('',(#1172),#1164,.F.);
#1174=CARTESIAN_POINT('',(-8.5E0,0.E0,-1.31E2));
#1175=DIRECTION('',(0.E0,0.E0,-1.E0));
#1176=DIRECTION('',(-1.E0,0.E0,0.E0));
#1177=AXIS2_PLACEMENT_3D('',#1174,#1175,#1176);
#1178=CYLINDRICAL_SURFACE('',#1177,1.75E0);
#1179=ORIENTED_EDGE('',*,*,#963,.F.);
#1180=ORIENTED_EDGE('',*,*,#1169,.F.);
#1181=ORIENTED_EDGE('',*,*,#1143,.F.);
#1182=ORIENTED_EDGE('',*,*,#1166,.T.);
#1183=EDGE_LOOP('',(#1179,#1180,#1181,#1182));
#1184=FACE_OUTER_BOUND('',#1183,.F.);
#1185=ADVANCED_FACE('',(#1184),#1178,.F.);
#1186=CARTESIAN_POINT('',(3.809986876618E1,1.E-1,-3.18504E2));
#1187=DIRECTION('',(0.E0,0.E0,1.E0));
#1188=DIRECTION('',(-9.999965555427E-1,-2.624671916011E-3,0.E0));
#1189=AXIS2_PLACEMENT_3D('',#1186,#1187,#1188);
#1190=CYLINDRICAL_SURFACE('',#1189,2.06E1);
#1191=ORIENTED_EDGE('',*,*,#911,.T.);
#1192=ORIENTED_EDGE('',*,*,#939,.F.);
#1193=ORIENTED_EDGE('',*,*,#957,.F.);
#1195=ORIENTED_EDGE('',*,*,#1194,.F.);
#1196=ORIENTED_EDGE('',*,*,#1058,.F.);
#1197=EDGE_LOOP('',(#1191,#1192,#1193,#1195,#1196));
#1198=FACE_OUTER_BOUND('',#1197,.F.);
#1199=ADVANCED_FACE('',(#1198),#1190,.F.);
#1200=CARTESIAN_POINT('',(0.E0,0.E0,-1.36E2));
#1201=DIRECTION('',(0.E0,0.E0,-1.E0));
#1202=DIRECTION('',(-1.E0,0.E0,0.E0));
#1203=AXIS2_PLACEMENT_3D('',#1200,#1201,#1202);
#1204=CYLINDRICAL_SURFACE('',#1203,1.75E1);
#1206=ORIENTED_EDGE('',*,*,#1205,.F.);
#1207=ORIENTED_EDGE('',*,*,#1060,.F.);
#1208=ORIENTED_EDGE('',*,*,#1194,.T.);
#1209=ORIENTED_EDGE('',*,*,#955,.F.);
#1210=EDGE_LOOP('',(#1206,#1207,#1208,#1209));
#1211=FACE_OUTER_BOUND('',#1210,.F.);
#1212=ADVANCED_FACE('',(#1211),#1204,.T.);
#1213=CARTESIAN_POINT('',(-3.809986876618E1,1.E-1,-3.18504E2));
#1214=DIRECTION('',(0.E0,0.E0,1.E0));
#1215=DIRECTION('',(0.E0,-1.E0,0.E0));
#1216=AXIS2_PLACEMENT_3D('',#1213,#1214,#1215);
#1217=CYLINDRICAL_SURFACE('',#1216,2.06E1);
#1218=ORIENTED_EDGE('',*,*,#953,.F.);
#1219=ORIENTED_EDGE('',*,*,#942,.F.);
#1220=ORIENTED_EDGE('',*,*,#927,.T.);
#1221=ORIENTED_EDGE('',*,*,#1062,.F.);
#1222=ORIENTED_EDGE('',*,*,#1205,.T.);
#1223=EDGE_LOOP('',(#1218,#1219,#1220,#1221,#1222));
#1224=FACE_OUTER_BOUND('',#1223,.F.);
#1225=ADVANCED_FACE('',(#1224),#1217,.F.);
#1226=CARTESIAN_POINT('',(-5.E1,-2.45E1,4.E0));
#1227=DIRECTION('',(-1.E0,0.E0,0.E0));
#1228=DIRECTION('',(0.E0,0.E0,-1.E0));
#1229=AXIS2_PLACEMENT_3D('',#1226,#1227,#1228);
#1230=PLANE('',#1229);
#1231=ORIENTED_EDGE('',*,*,#697,.F.);
#1233=ORIENTED_EDGE('',*,*,#1232,.T.);
#1234=ORIENTED_EDGE('',*,*,#1065,.F.);
#1235=ORIENTED_EDGE('',*,*,#923,.T.);
#1236=EDGE_LOOP('',(#1231,#1233,#1234,#1235));
#1237=FACE_OUTER_BOUND('',#1236,.F.);
#1238=ADVANCED_FACE('',(#1237),#1230,.T.);
#1239=CARTESIAN_POINT('',(0.E0,-2.75E1,0.E0));
#1240=DIRECTION('',(0.E0,-1.E0,0.E0));
#1241=DIRECTION('',(1.E0,0.E0,0.E0));
#1242=AXIS2_PLACEMENT_3D('',#1239,#1240,#1241);
#1243=PLANE('',#1242);
#1244=ORIENTED_EDGE('',*,*,#1232,.F.);
#1245=ORIENTED_EDGE('',*,*,#695,.F.);
#1247=ORIENTED_EDGE('',*,*,#1246,.F.);
#1248=ORIENTED_EDGE('',*,*,#1067,.F.);
#1249=EDGE_LOOP('',(#1244,#1245,#1247,#1248));
#1250=FACE_OUTER_BOUND('',#1249,.F.);
#1251=ADVANCED_FACE('',(#1250),#1243,.T.);
#1252=CARTESIAN_POINT('',(5.E1,-2.45E1,-1.36E2));
#1253=DIRECTION('',(1.E0,0.E0,0.E0));
#1254=DIRECTION('',(0.E0,0.E0,1.E0));
#1255=AXIS2_PLACEMENT_3D('',#1252,#1253,#1254);
#1256=PLANE('',#1255);
#1257=ORIENTED_EDGE('',*,*,#1069,.T.);
#1258=ORIENTED_EDGE('',*,*,#1246,.T.);
#1259=ORIENTED_EDGE('',*,*,#693,.F.);
#1260=ORIENTED_EDGE('',*,*,#915,.T.);
#1261=EDGE_LOOP('',(#1257,#1258,#1259,#1260));
#1262=FACE_OUTER_BOUND('',#1261,.F.);
#1263=ADVANCED_FACE('',(#1262),#1256,.T.);
#1264=CARTESIAN_POINT('',(3.809986876618E1,1.E-1,-3.18504E2));
#1265=DIRECTION('',(0.E0,0.E0,1.E0));
#1266=DIRECTION('',(-9.999965555427E-1,-2.624671916010E-3,0.E0));
#1267=AXIS2_PLACEMENT_3D('',#1264,#1265,#1266);
#1268=CYLINDRICAL_SURFACE('',#1267,2.06E1);
#1269=ORIENTED_EDGE('',*,*,#753,.F.);
#1270=ORIENTED_EDGE('',*,*,#884,.F.);
#1271=ORIENTED_EDGE('',*,*,#918,.T.);
#1272=ORIENTED_EDGE('',*,*,#689,.F.);
#1274=ORIENTED_EDGE('',*,*,#1273,.F.);
#1275=EDGE_LOOP('',(#1269,#1270,#1271,#1272,#1274));
#1276=FACE_OUTER_BOUND('',#1275,.F.);
#1277=ADVANCED_FACE('',(#1276),#1268,.F.);
#1278=CARTESIAN_POINT('',(0.E0,0.E0,0.E0));
#1279=DIRECTION('',(0.E0,0.E0,-1.E0));
#1280=DIRECTION('',(-1.E0,0.E0,0.E0));
#1281=AXIS2_PLACEMENT_3D('',#1278,#1279,#1280);
#1282=CYLINDRICAL_SURFACE('',#1281,1.75E1);
#1283=ORIENTED_EDGE('',*,*,#1273,.T.);
#1284=ORIENTED_EDGE('',*,*,#687,.F.);
#1285=ORIENTED_EDGE('',*,*,#898,.T.);
#1286=ORIENTED_EDGE('',*,*,#755,.F.);
#1287=EDGE_LOOP('',(#1283,#1284,#1285,#1286));
#1288=FACE_OUTER_BOUND('',#1287,.F.);
#1289=ADVANCED_FACE('',(#1288),#1282,.T.);
#1293=DIMENSIONAL_EXPONENTS(0.E0,0.E0,0.E0,0.E0,0.E0,0.E0,0.E0);
#1295=PLANE_ANGLE_MEASURE_WITH_UNIT(PLANE_ANGLE_MEASURE(1.745329251994E-2),
#1294);
#1296=(CONVERSION_BASED_UNIT('DEGREE',#1295)NAMED_UNIT(*)PLANE_ANGLE_UNIT());
#1298=UNCERTAINTY_MEASURE_WITH_UNIT(LENGTH_MEASURE(1.778325179277E-2),#1292,
'closure',
'Maximum model space distance between geometric entities at asserted connectivities');
#1299=(GEOMETRIC_REPRESENTATION_CONTEXT(3)GLOBAL_UNCERTAINTY_ASSIGNED_CONTEXT((
#1298))GLOBAL_UNIT_ASSIGNED_CONTEXT((#1292,#1296,#1297))REPRESENTATION_CONTEXT(
'ID1','3'));
#1301=APPLICATION_CONTEXT(
'CONFIGURATION CONTROLLED 3D DESIGNS OF MECHANICAL PARTS AND ASSEMBLIES');
#1302=APPLICATION_PROTOCOL_DEFINITION('international standard',
'config_control_design',1994,#1301);
#1303=DESIGN_CONTEXT('',#1301,'design');
#1304=MECHANICAL_CONTEXT('',#1301,'mechanical');
#1305=PRODUCT('CARJIACU3','CARJIACU3','NOT SPECIFIED',(#1304));
#1306=PRODUCT_DEFINITION_FORMATION_WITH_SPECIFIED_SOURCE('1','LAST_VERSION',
#1305,.MADE.);
#1310=PRODUCT_CATEGORY('part','');
#1311=PRODUCT_RELATED_PRODUCT_CATEGORY('detail','',(#1305));
#1312=PRODUCT_CATEGORY_RELATIONSHIP('','',#1310,#1311);
#1313=SECURITY_CLASSIFICATION_LEVEL('unclassified');
#1314=SECURITY_CLASSIFICATION('','',#1313);
#1315=CC_DESIGN_SECURITY_CLASSIFICATION(#1314,(#1306));
#1316=APPROVAL_STATUS('approved');
#1317=APPROVAL(#1316,'');
#1318=CC_DESIGN_APPROVAL(#1317,(#1314,#1306,#1307));
#1319=CALENDAR_DATE(126,25,6);
#1320=COORDINATED_UNIVERSAL_TIME_OFFSET(8,0,.AHEAD.);
#1321=LOCAL_TIME(23,41,4.9E1,#1320);
#1322=DATE_AND_TIME(#1319,#1321);
#1323=APPROVAL_DATE_TIME(#1322,#1317);
#1324=DATE_TIME_ROLE('creation_date');
#1325=CC_DESIGN_DATE_AND_TIME_ASSIGNMENT(#1322,#1324,(#1307));
#1326=DATE_TIME_ROLE('classification_date');
#1327=CC_DESIGN_DATE_AND_TIME_ASSIGNMENT(#1322,#1326,(#1314));
#1328=PERSON('UNSPECIFIED','UNSPECIFIED',$,$,$,$);
#1329=ORGANIZATION('UNSPECIFIED','UNSPECIFIED','UNSPECIFIED');
#1330=PERSON_AND_ORGANIZATION(#1328,#1329);
#1331=APPROVAL_ROLE('approver');
#1332=APPROVAL_PERSON_ORGANIZATION(#1330,#1317,#1331);
#1333=PERSON_AND_ORGANIZATION_ROLE('creator');
#1334=CC_DESIGN_PERSON_AND_ORGANIZATION_ASSIGNMENT(#1330,#1333,(#1306,#1307));
#1335=PERSON_AND_ORGANIZATION_ROLE('design_supplier');
#1336=CC_DESIGN_PERSON_AND_ORGANIZATION_ASSIGNMENT(#1330,#1335,(#1306));
#1337=PERSON_AND_ORGANIZATION_ROLE('classification_officer');
#1338=CC_DESIGN_PERSON_AND_ORGANIZATION_ASSIGNMENT(#1330,#1337,(#1314));
#1339=PERSON_AND_ORGANIZATION_ROLE('design_owner');
#1340=CC_DESIGN_PERSON_AND_ORGANIZATION_ASSIGNMENT(#1330,#1339,(#1305));
#9=CIRCLE('',#8,3.E0);
#14=CIRCLE('',#13,3.E0);
#19=CIRCLE('',#18,1.75E0);
#24=CIRCLE('',#23,1.75E0);
#33=CIRCLE('',#32,4.E0);
#38=CIRCLE('',#37,4.E0);
#43=CIRCLE('',#42,3.E0);
#48=CIRCLE('',#47,3.E0);
#53=CIRCLE('',#52,3.E0);
#58=CIRCLE('',#57,3.E0);
#67=CIRCLE('',#66,2.06E1);
#72=CIRCLE('',#71,1.75E1);
#77=CIRCLE('',#76,2.06E1);
#106=CIRCLE('',#105,1.75E0);
#111=CIRCLE('',#110,1.75E0);
#116=CIRCLE('',#115,4.E0);
#121=CIRCLE('',#120,4.E0);
#126=CIRCLE('',#125,1.75E0);
#131=CIRCLE('',#130,1.75E0);
#140=CIRCLE('',#139,2.06E1);
#145=CIRCLE('',#144,1.75E1);
#150=CIRCLE('',#149,2.06E1);
#171=CIRCLE('',#170,3.E0);
#176=CIRCLE('',#175,3.E0);
#181=CIRCLE('',#180,1.75E0);
#186=CIRCLE('',#185,1.75E0);
#207=B_SPLINE_CURVE_WITH_KNOTS('',3,(#195,#196,#197,#198,#199,#200,#201,#202,
#203,#204,#205,#206),.UNSPECIFIED.,.F.,.F.,(4,1,1,1,1,1,1,1,1,4),(0.E0,
1.111111111111E-1,2.222222222222E-1,3.333333333333E-1,4.444444444444E-1,
5.555555555556E-1,6.666666666667E-1,7.777777777778E-1,8.888888888889E-1,1.E0),
.UNSPECIFIED.);
#219=B_SPLINE_CURVE_WITH_KNOTS('',3,(#208,#209,#210,#211,#212,#213,#214,#215,
#216,#217,#218),.UNSPECIFIED.,.F.,.F.,(4,1,1,1,1,1,1,1,4),(0.E0,1.25E-1,2.5E-1,
3.75E-1,5.E-1,6.25E-1,7.5E-1,8.75E-1,1.E0),.UNSPECIFIED.);
#244=B_SPLINE_CURVE_WITH_KNOTS('',3,(#232,#233,#234,#235,#236,#237,#238,#239,
#240,#241,#242,#243),.UNSPECIFIED.,.F.,.F.,(4,1,1,1,1,1,1,1,1,4),(0.E0,
1.111111111111E-1,2.222222222222E-1,3.333333333333E-1,4.444444444444E-1,
5.555555555556E-1,6.666666666667E-1,7.777777777778E-1,8.888888888889E-1,1.E0),
.UNSPECIFIED.);
#257=B_SPLINE_CURVE_WITH_KNOTS('',3,(#245,#246,#247,#248,#249,#250,#251,#252,
#253,#254,#255,#256),.UNSPECIFIED.,.F.,.F.,(4,1,1,1,1,1,1,1,1,4),(0.E0,
1.111111111111E-1,2.222222222222E-1,3.333333333333E-1,4.444444444444E-1,
5.555555555556E-1,6.666666666667E-1,7.777777777778E-1,8.888888888889E-1,1.E0),
.UNSPECIFIED.);
#262=CIRCLE('',#261,1.75E0);
#267=CIRCLE('',#266,1.75E0);
#272=CIRCLE('',#271,1.75E0);
#277=CIRCLE('',#276,1.75E0);
#282=CIRCLE('',#281,4.E0);
#287=CIRCLE('',#286,4.E0);
#296=CIRCLE('',#295,2.06E1);
#301=CIRCLE('',#300,1.75E1);
#306=CIRCLE('',#305,2.06E1);
#319=CIRCLE('',#318,3.E0);
#324=CIRCLE('',#323,3.E0);
#329=CIRCLE('',#328,1.75E0);
#334=CIRCLE('',#333,1.75E0);
#347=CIRCLE('',#346,4.E0);
#352=CIRCLE('',#351,4.E0);
#357=CIRCLE('',#356,3.E0);
#362=CIRCLE('',#361,3.E0);
#367=CIRCLE('',#366,3.E0);
#372=CIRCLE('',#371,3.E0);
#381=CIRCLE('',#380,2.06E1);
#386=CIRCLE('',#385,1.75E1);
#391=CIRCLE('',#390,2.06E1);
#420=CIRCLE('',#419,3.E0);
#425=CIRCLE('',#424,3.E0);
#430=CIRCLE('',#429,1.75E0);
#435=CIRCLE('',#434,1.75E0);
#637=EDGE_CURVE('',#498,#499,#9,.T.);
#639=EDGE_CURVE('',#501,#498,#28,.T.);
#641=EDGE_CURVE('',#503,#501,#43,.T.);
#643=EDGE_CURVE('',#503,#499,#4,.T.);
#654=EDGE_CURVE('',#499,#498,#14,.T.);
#658=EDGE_CURVE('',#506,#507,#19,.T.);
#660=EDGE_CURVE('',#507,#506,#24,.T.);
#672=EDGE_CURVE('',#501,#503,#48,.T.);
#683=EDGE_CURVE('',#539,#609,#62,.T.);
#685=EDGE_CURVE('',#609,#606,#67,.T.);
#687=EDGE_CURVE('',#606,#603,#72,.T.);
#689=EDGE_CURVE('',#603,#611,#77,.T.);
#691=EDGE_CURVE('',#611,#534,#81,.T.);
#693=EDGE_CURVE('',#534,#535,#85,.T.);
#695=EDGE_CURVE('',#535,#537,#89,.T.);
#697=EDGE_CURVE('',#537,#539,#93,.T.);
#705=EDGE_CURVE('',#542,#543,#53,.T.);
#707=EDGE_CURVE('',#543,#542,#58,.T.);
#711=EDGE_CURVE('',#529,#531,#33,.T.);
#713=EDGE_CURVE('',#531,#529,#38,.T.);
#723=EDGE_CURVE('',#527,#529,#97,.T.);
#725=EDGE_CURVE('',#526,#527,#116,.T.);
#727=EDGE_CURVE('',#531,#526,#101,.T.);
#741=EDGE_CURVE('',#527,#526,#121,.T.);
#751=EDGE_CURVE('',#626,#627,#135,.T.);
#753=EDGE_CURVE('',#627,#602,#140,.T.);
#755=EDGE_CURVE('',#602,#607,#145,.T.);
#757=EDGE_CURVE('',#607,#626,#150,.T.);
#765=EDGE_CURVE('',#518,#519,#126,.T.);
#767=EDGE_CURVE('',#519,#518,#131,.T.);
#771=EDGE_CURVE('',#522,#523,#106,.T.);
#773=EDGE_CURVE('',#523,#522,#111,.T.);
#784=EDGE_CURVE('',#507,#522,#158,.T.);
#787=EDGE_CURVE('',#506,#523,#154,.T.);
#810=EDGE_CURVE('',#515,#518,#166,.T.);
#812=EDGE_CURVE('',#514,#515,#181,.T.);
#814=EDGE_CURVE('',#514,#519,#162,.T.);
#826=EDGE_CURVE('',#515,#514,#186,.T.);
#837=EDGE_CURVE('',#510,#511,#171,.T.);
#839=EDGE_CURVE('',#511,#510,#176,.T.);
#854=EDGE_CURVE('',#543,#510,#194,.T.);
#857=EDGE_CURVE('',#542,#511,#190,.T.);
#880=EDGE_CURVE('',#626,#630,#207,.T.);
#882=EDGE_CURVE('',#630,#631,#231,.T.);
#884=EDGE_CURVE('',#631,#627,#219,.T.);
#894=EDGE_CURVE('',#609,#630,#223,.T.);
#898=EDGE_CURVE('',#606,#607,#495,.T.);
#909=EDGE_CURVE('',#622,#623,#227,.T.);
#911=EDGE_CURVE('',#613,#622,#451,.T.);
#913=EDGE_CURVE('',#546,#613,#376,.T.);
#915=EDGE_CURVE('',#534,#546,#483,.T.);
#918=EDGE_CURVE('',#631,#611,#487,.T.);
#923=EDGE_CURVE('',#550,#539,#471,.T.);
#925=EDGE_CURVE('',#615,#550,#395,.T.);
#927=EDGE_CURVE('',#623,#615,#463,.T.);
#937=EDGE_CURVE('',#618,#619,#291,.T.);
#939=EDGE_CURVE('',#618,#622,#244,.T.);
#942=EDGE_CURVE('',#623,#619,#257,.T.);
#953=EDGE_CURVE('',#619,#595,#296,.T.);
#955=EDGE_CURVE('',#595,#599,#301,.T.);
#957=EDGE_CURVE('',#599,#618,#306,.T.);
#961=EDGE_CURVE('',#570,#571,#272,.T.);
#963=EDGE_CURVE('',#571,#570,#277,.T.);
#967=EDGE_CURVE('',#574,#575,#282,.T.);
#969=EDGE_CURVE('',#575,#574,#287,.T.);
#973=EDGE_CURVE('',#566,#567,#262,.T.);
#975=EDGE_CURVE('',#567,#566,#267,.T.);
#986=EDGE_CURVE('',#587,#566,#314,.T.);
#988=EDGE_CURVE('',#586,#587,#329,.T.);
#990=EDGE_CURVE('',#586,#567,#310,.T.);
#1002=EDGE_CURVE('',#587,#586,#334,.T.);
#1013=EDGE_CURVE('',#582,#583,#319,.T.);
#1015=EDGE_CURVE('',#583,#582,#324,.T.);
#1030=EDGE_CURVE('',#559,#582,#342,.T.);
#1032=EDGE_CURVE('',#558,#559,#357,.T.);
#1034=EDGE_CURVE('',#558,#583,#338,.T.);
#1046=EDGE_CURVE('',#559,#558,#362,.T.);
#1058=EDGE_CURVE('',#613,#598,#381,.T.);
#1060=EDGE_CURVE('',#598,#594,#386,.T.);
#1062=EDGE_CURVE('',#594,#615,#391,.T.);
#1065=EDGE_CURVE('',#550,#551,#399,.T.);
#1067=EDGE_CURVE('',#551,#547,#403,.T.);
#1069=EDGE_CURVE('',#546,#547,#475,.T.);
#1077=EDGE_CURVE('',#562,#563,#367,.T.);
#1079=EDGE_CURVE('',#563,#562,#372,.T.);
#1083=EDGE_CURVE('',#554,#555,#347,.T.);
#1085=EDGE_CURVE('',#555,#554,#352,.T.);
#1096=EDGE_CURVE('',#555,#574,#411,.T.);
#1099=EDGE_CURVE('',#575,#554,#407,.T.);
#1121=EDGE_CURVE('',#590,#591,#420,.T.);
#1123=EDGE_CURVE('',#563,#590,#439,.T.);
#1126=EDGE_CURVE('',#562,#591,#415,.T.);
#1137=EDGE_CURVE('',#591,#590,#425,.T.);
#1141=EDGE_CURVE('',#579,#577,#430,.T.);
#1143=EDGE_CURVE('',#577,#579,#435,.T.);
#1166=EDGE_CURVE('',#577,#570,#447,.T.);
#1169=EDGE_CURVE('',#579,#571,#443,.T.);
#1194=EDGE_CURVE('',#598,#599,#459,.T.);
#1205=EDGE_CURVE('',#594,#595,#455,.T.);
#1232=EDGE_CURVE('',#537,#551,#467,.T.);
#1246=EDGE_CURVE('',#547,#535,#479,.T.);
#1273=EDGE_CURVE('',#602,#603,#491,.T.);
#1290=CLOSED_SHELL('',(#647,#664,#677,#717,#732,#745,#777,#791,#803,#818,#831,
#847,#861,#873,#888,#903,#931,#946,#979,#994,#1007,#1023,#1038,#1051,#1089,
#1103,#1115,#1130,#1147,#1159,#1173,#1185,#1199,#1212,#1225,#1238,#1251,#1263,
#1277,#1289));
#1291=MANIFOLD_SOLID_BREP('',#1290);
#1292=(LENGTH_UNIT()NAMED_UNIT(*)SI_UNIT(.MILLI.,.METRE.));
#1294=(NAMED_UNIT(*)PLANE_ANGLE_UNIT()SI_UNIT($,.RADIAN.));
#1297=(NAMED_UNIT(*)SI_UNIT($,.STERADIAN.)SOLID_ANGLE_UNIT());
#1300=ADVANCED_BREP_SHAPE_REPRESENTATION('',(#1291),#1299);
#1307=PRODUCT_DEFINITION('design','',#1306,#1303);
#1308=PRODUCT_DEFINITION_SHAPE('','SHAPE FOR CARJIACU3.',#1307);
#1309=SHAPE_DEFINITION_REPRESENTATION(#1308,#1300);
ENDSEC;
END-ISO-10303-21;
