ISO-10303-21;
HEADER;
FILE_DESCRIPTION((''),'2;1');
FILE_NAME('ZHIJIANEW3','2026-07-29T12:45:53',('13763'),(''),
'CREO PARAMETRIC BY PTC INC, 2025102','CREO PARAMETRIC BY PTC INC, 2025102','');
FILE_SCHEMA(('CONFIG_CONTROL_DESIGN'));
ENDSEC;
DATA;
#1=DIRECTION('',(-1.E0,0.E0,0.E0));
#2=VECTOR('',#1,4.E0);
#3=CARTESIAN_POINT('',(2.E0,1.E1,0.E0));
#4=LINE('',#3,#2);
#5=DIRECTION('',(0.E0,-1.E0,0.E0));
#6=VECTOR('',#5,2.E1);
#7=CARTESIAN_POINT('',(-2.E0,1.E1,0.E0));
#8=LINE('',#7,#6);
#9=DIRECTION('',(1.E0,0.E0,0.E0));
#10=VECTOR('',#9,4.E0);
#11=CARTESIAN_POINT('',(-2.E0,-1.E1,0.E0));
#12=LINE('',#11,#10);
#13=DIRECTION('',(0.E0,1.E0,0.E0));
#14=VECTOR('',#13,2.E1);
#15=CARTESIAN_POINT('',(2.E0,-1.E1,0.E0));
#16=LINE('',#15,#14);
#17=DIRECTION('',(-1.E0,0.E0,0.E0));
#18=VECTOR('',#17,2.E0);
#19=CARTESIAN_POINT('',(2.E0,1.E1,2.7E1));
#20=LINE('',#19,#18);
#21=DIRECTION('',(0.E0,0.E0,-1.E0));
#22=VECTOR('',#21,3.E0);
#23=CARTESIAN_POINT('',(0.E0,1.E1,3.E1));
#24=LINE('',#23,#22);
#25=DIRECTION('',(0.E0,0.E0,1.E0));
#26=VECTOR('',#25,2.7E1);
#27=CARTESIAN_POINT('',(2.E0,1.E1,0.E0));
#28=LINE('',#27,#26);
#29=DIRECTION('',(0.E0,-1.E0,0.E0));
#30=VECTOR('',#29,2.E1);
#31=CARTESIAN_POINT('',(0.E0,1.E1,2.7E1));
#32=LINE('',#31,#30);
#33=DIRECTION('',(0.E0,1.E0,0.E0));
#34=VECTOR('',#33,2.E1);
#35=CARTESIAN_POINT('',(2.E0,-1.E1,2.7E1));
#36=LINE('',#35,#34);
#37=DIRECTION('',(0.E0,0.E0,1.E0));
#38=VECTOR('',#37,2.7E1);
#39=CARTESIAN_POINT('',(2.E0,-1.E1,0.E0));
#40=LINE('',#39,#38);
#41=DIRECTION('',(-1.E0,0.E0,0.E0));
#42=VECTOR('',#41,2.E0);
#43=CARTESIAN_POINT('',(2.E0,-1.E1,2.7E1));
#44=LINE('',#43,#42);
#45=DIRECTION('',(0.E0,0.E0,1.E0));
#46=VECTOR('',#45,3.E1);
#47=CARTESIAN_POINT('',(-2.E0,-1.E1,0.E0));
#48=LINE('',#47,#46);
#49=DIRECTION('',(0.E0,0.E0,-1.E0));
#50=VECTOR('',#49,3.E0);
#51=CARTESIAN_POINT('',(0.E0,-1.E1,3.E1));
#52=LINE('',#51,#50);
#53=DIRECTION('',(0.E0,0.E0,1.E0));
#54=VECTOR('',#53,3.E1);
#55=CARTESIAN_POINT('',(-2.E0,1.E1,0.E0));
#56=LINE('',#55,#54);
#57=DIRECTION('',(0.E0,1.E0,0.E0));
#58=VECTOR('',#57,2.E1);
#59=CARTESIAN_POINT('',(0.E0,-1.E1,3.E1));
#60=LINE('',#59,#58);
#61=DIRECTION('',(1.E0,0.E0,0.E0));
#62=VECTOR('',#61,2.E0);
#63=CARTESIAN_POINT('',(-2.E0,-1.E1,3.E1));
#64=LINE('',#63,#62);
#65=DIRECTION('',(0.E0,-1.E0,0.E0));
#66=VECTOR('',#65,2.E1);
#67=CARTESIAN_POINT('',(-2.E0,1.E1,3.E1));
#68=LINE('',#67,#66);
#69=DIRECTION('',(-1.E0,0.E0,0.E0));
#70=VECTOR('',#69,2.E0);
#71=CARTESIAN_POINT('',(0.E0,1.E1,3.E1));
#72=LINE('',#71,#70);
#73=CARTESIAN_POINT('',(2.E0,1.E1,0.E0));
#74=CARTESIAN_POINT('',(-2.E0,1.E1,0.E0));
#75=VERTEX_POINT('',#73);
#76=VERTEX_POINT('',#74);
#77=CARTESIAN_POINT('',(-2.E0,-1.E1,0.E0));
#78=VERTEX_POINT('',#77);
#79=CARTESIAN_POINT('',(2.E0,-1.E1,0.E0));
#80=VERTEX_POINT('',#79);
#81=CARTESIAN_POINT('',(-2.E0,1.E1,3.E1));
#82=CARTESIAN_POINT('',(-2.E0,-1.E1,3.E1));
#83=VERTEX_POINT('',#81);
#84=VERTEX_POINT('',#82);
#85=CARTESIAN_POINT('',(0.E0,-1.E1,3.E1));
#86=CARTESIAN_POINT('',(0.E0,1.E1,3.E1));
#87=VERTEX_POINT('',#85);
#88=VERTEX_POINT('',#86);
#89=CARTESIAN_POINT('',(2.E0,1.E1,2.7E1));
#90=CARTESIAN_POINT('',(0.E0,1.E1,2.7E1));
#91=VERTEX_POINT('',#89);
#92=VERTEX_POINT('',#90);
#93=CARTESIAN_POINT('',(2.E0,-1.E1,2.7E1));
#94=CARTESIAN_POINT('',(0.E0,-1.E1,2.7E1));
#95=VERTEX_POINT('',#93);
#96=VERTEX_POINT('',#94);
#97=CARTESIAN_POINT('',(0.E0,0.E0,0.E0));
#98=DIRECTION('',(0.E0,0.E0,1.E0));
#99=DIRECTION('',(1.E0,0.E0,0.E0));
#100=AXIS2_PLACEMENT_3D('',#97,#98,#99);
#101=PLANE('',#100);
#103=ORIENTED_EDGE('',*,*,#102,.T.);
#105=ORIENTED_EDGE('',*,*,#104,.T.);
#107=ORIENTED_EDGE('',*,*,#106,.T.);
#109=ORIENTED_EDGE('',*,*,#108,.T.);
#110=EDGE_LOOP('',(#103,#105,#107,#109));
#111=FACE_OUTER_BOUND('',#110,.F.);
#112=ADVANCED_FACE('',(#111),#101,.F.);
#113=CARTESIAN_POINT('',(2.E0,1.E1,0.E0));
#114=DIRECTION('',(0.E0,1.E0,0.E0));
#115=DIRECTION('',(-1.E0,0.E0,0.E0));
#116=AXIS2_PLACEMENT_3D('',#113,#114,#115);
#117=PLANE('',#116);
#119=ORIENTED_EDGE('',*,*,#118,.T.);
#121=ORIENTED_EDGE('',*,*,#120,.F.);
#123=ORIENTED_EDGE('',*,*,#122,.T.);
#125=ORIENTED_EDGE('',*,*,#124,.F.);
#126=ORIENTED_EDGE('',*,*,#102,.F.);
#128=ORIENTED_EDGE('',*,*,#127,.T.);
#129=EDGE_LOOP('',(#119,#121,#123,#125,#126,#128));
#130=FACE_OUTER_BOUND('',#129,.F.);
#131=ADVANCED_FACE('',(#130),#117,.T.);
#132=CARTESIAN_POINT('',(0.E0,0.E0,2.7E1));
#133=DIRECTION('',(0.E0,0.E0,1.E0));
#134=DIRECTION('',(1.E0,0.E0,0.E0));
#135=AXIS2_PLACEMENT_3D('',#132,#133,#134);
#136=PLANE('',#135);
#137=ORIENTED_EDGE('',*,*,#118,.F.);
#139=ORIENTED_EDGE('',*,*,#138,.F.);
#141=ORIENTED_EDGE('',*,*,#140,.T.);
#143=ORIENTED_EDGE('',*,*,#142,.F.);
#144=EDGE_LOOP('',(#137,#139,#141,#143));
#145=FACE_OUTER_BOUND('',#144,.F.);
#146=ADVANCED_FACE('',(#145),#136,.T.);
#147=CARTESIAN_POINT('',(2.E0,-1.E1,0.E0));
#148=DIRECTION('',(1.E0,0.E0,0.E0));
#149=DIRECTION('',(0.E0,1.E0,0.E0));
#150=AXIS2_PLACEMENT_3D('',#147,#148,#149);
#151=PLANE('',#150);
#152=ORIENTED_EDGE('',*,*,#138,.T.);
#153=ORIENTED_EDGE('',*,*,#127,.F.);
#154=ORIENTED_EDGE('',*,*,#108,.F.);
#156=ORIENTED_EDGE('',*,*,#155,.T.);
#157=EDGE_LOOP('',(#152,#153,#154,#156));
#158=FACE_OUTER_BOUND('',#157,.F.);
#159=ADVANCED_FACE('',(#158),#151,.T.);
#160=CARTESIAN_POINT('',(-2.E0,-1.E1,0.E0));
#161=DIRECTION('',(0.E0,-1.E0,0.E0));
#162=DIRECTION('',(1.E0,0.E0,0.E0));
#163=AXIS2_PLACEMENT_3D('',#160,#161,#162);
#164=PLANE('',#163);
#165=ORIENTED_EDGE('',*,*,#140,.F.);
#166=ORIENTED_EDGE('',*,*,#155,.F.);
#167=ORIENTED_EDGE('',*,*,#106,.F.);
#169=ORIENTED_EDGE('',*,*,#168,.T.);
#171=ORIENTED_EDGE('',*,*,#170,.T.);
#173=ORIENTED_EDGE('',*,*,#172,.T.);
#174=EDGE_LOOP('',(#165,#166,#167,#169,#171,#173));
#175=FACE_OUTER_BOUND('',#174,.F.);
#176=ADVANCED_FACE('',(#175),#164,.T.);
#177=CARTESIAN_POINT('',(-2.E0,1.E1,0.E0));
#178=DIRECTION('',(-1.E0,0.E0,0.E0));
#179=DIRECTION('',(0.E0,-1.E0,0.E0));
#180=AXIS2_PLACEMENT_3D('',#177,#178,#179);
#181=PLANE('',#180);
#182=ORIENTED_EDGE('',*,*,#104,.F.);
#183=ORIENTED_EDGE('',*,*,#124,.T.);
#185=ORIENTED_EDGE('',*,*,#184,.T.);
#186=ORIENTED_EDGE('',*,*,#168,.F.);
#187=EDGE_LOOP('',(#182,#183,#185,#186));
#188=FACE_OUTER_BOUND('',#187,.F.);
#189=ADVANCED_FACE('',(#188),#181,.T.);
#190=CARTESIAN_POINT('',(0.E0,0.E0,3.E1));
#191=DIRECTION('',(0.E0,0.E0,1.E0));
#192=DIRECTION('',(1.E0,0.E0,0.E0));
#193=AXIS2_PLACEMENT_3D('',#190,#191,#192);
#194=PLANE('',#193);
#196=ORIENTED_EDGE('',*,*,#195,.F.);
#197=ORIENTED_EDGE('',*,*,#170,.F.);
#198=ORIENTED_EDGE('',*,*,#184,.F.);
#199=ORIENTED_EDGE('',*,*,#122,.F.);
#200=EDGE_LOOP('',(#196,#197,#198,#199));
#201=FACE_OUTER_BOUND('',#200,.F.);
#202=ADVANCED_FACE('',(#201),#194,.T.);
#203=CARTESIAN_POINT('',(0.E0,1.E1,3.E1));
#204=DIRECTION('',(-1.E0,0.E0,0.E0));
#205=DIRECTION('',(0.E0,-1.E0,0.E0));
#206=AXIS2_PLACEMENT_3D('',#203,#204,#205);
#207=PLANE('',#206);
#208=ORIENTED_EDGE('',*,*,#195,.T.);
#209=ORIENTED_EDGE('',*,*,#120,.T.);
#210=ORIENTED_EDGE('',*,*,#142,.T.);
#211=ORIENTED_EDGE('',*,*,#172,.F.);
#212=EDGE_LOOP('',(#208,#209,#210,#211));
#213=FACE_OUTER_BOUND('',#212,.F.);
#214=ADVANCED_FACE('',(#213),#207,.F.);
#218=DIMENSIONAL_EXPONENTS(0.E0,0.E0,0.E0,0.E0,0.E0,0.E0,0.E0);
#220=PLANE_ANGLE_MEASURE_WITH_UNIT(PLANE_ANGLE_MEASURE(1.745329251994E-2),#219);
#221=(CONVERSION_BASED_UNIT('DEGREE',#220)NAMED_UNIT(*)PLANE_ANGLE_UNIT());
#223=UNCERTAINTY_MEASURE_WITH_UNIT(LENGTH_MEASURE(3.627526322586E-3),#217,
'closure',
'Maximum model space distance between geometric entities at asserted connectivities');
#224=(GEOMETRIC_REPRESENTATION_CONTEXT(3)GLOBAL_UNCERTAINTY_ASSIGNED_CONTEXT((
#223))GLOBAL_UNIT_ASSIGNED_CONTEXT((#217,#221,#222))REPRESENTATION_CONTEXT
('ID1','3'));
#226=APPLICATION_CONTEXT(
'CONFIGURATION CONTROLLED 3D DESIGNS OF MECHANICAL PARTS AND ASSEMBLIES');
#227=APPLICATION_PROTOCOL_DEFINITION('international standard',
'config_control_design',1994,#226);
#228=DESIGN_CONTEXT('',#226,'design');
#229=MECHANICAL_CONTEXT('',#226,'mechanical');
#230=PRODUCT('ZHIJIANEW3','ZHIJIANEW3','NOT SPECIFIED',(#229));
#231=PRODUCT_DEFINITION_FORMATION_WITH_SPECIFIED_SOURCE('1','LAST_VERSION',#230,
.MADE.);
#235=PRODUCT_CATEGORY('part','');
#236=PRODUCT_RELATED_PRODUCT_CATEGORY('detail','',(#230));
#237=PRODUCT_CATEGORY_RELATIONSHIP('','',#235,#236);
#238=SECURITY_CLASSIFICATION_LEVEL('unclassified');
#239=SECURITY_CLASSIFICATION('','',#238);
#240=CC_DESIGN_SECURITY_CLASSIFICATION(#239,(#231));
#241=APPROVAL_STATUS('approved');
#242=APPROVAL(#241,'');
#243=CC_DESIGN_APPROVAL(#242,(#239,#231,#232));
#244=CALENDAR_DATE(126,29,7);
#245=COORDINATED_UNIVERSAL_TIME_OFFSET(8,0,.AHEAD.);
#246=LOCAL_TIME(12,45,5.3E1,#245);
#247=DATE_AND_TIME(#244,#246);
#248=APPROVAL_DATE_TIME(#247,#242);
#249=DATE_TIME_ROLE('creation_date');
#250=CC_DESIGN_DATE_AND_TIME_ASSIGNMENT(#247,#249,(#232));
#251=DATE_TIME_ROLE('classification_date');
#252=CC_DESIGN_DATE_AND_TIME_ASSIGNMENT(#247,#251,(#239));
#253=PERSON('UNSPECIFIED','UNSPECIFIED',$,$,$,$);
#254=ORGANIZATION('UNSPECIFIED','UNSPECIFIED','UNSPECIFIED');
#255=PERSON_AND_ORGANIZATION(#253,#254);
#256=APPROVAL_ROLE('approver');
#257=APPROVAL_PERSON_ORGANIZATION(#255,#242,#256);
#258=PERSON_AND_ORGANIZATION_ROLE('creator');
#259=CC_DESIGN_PERSON_AND_ORGANIZATION_ASSIGNMENT(#255,#258,(#231,#232));
#260=PERSON_AND_ORGANIZATION_ROLE('design_supplier');
#261=CC_DESIGN_PERSON_AND_ORGANIZATION_ASSIGNMENT(#255,#260,(#231));
#262=PERSON_AND_ORGANIZATION_ROLE('classification_officer');
#263=CC_DESIGN_PERSON_AND_ORGANIZATION_ASSIGNMENT(#255,#262,(#239));
#264=PERSON_AND_ORGANIZATION_ROLE('design_owner');
#265=CC_DESIGN_PERSON_AND_ORGANIZATION_ASSIGNMENT(#255,#264,(#230));
#102=EDGE_CURVE('',#75,#76,#4,.T.);
#104=EDGE_CURVE('',#76,#78,#8,.T.);
#106=EDGE_CURVE('',#78,#80,#12,.T.);
#108=EDGE_CURVE('',#80,#75,#16,.T.);
#118=EDGE_CURVE('',#91,#92,#20,.T.);
#120=EDGE_CURVE('',#88,#92,#24,.T.);
#122=EDGE_CURVE('',#88,#83,#72,.T.);
#124=EDGE_CURVE('',#76,#83,#56,.T.);
#127=EDGE_CURVE('',#75,#91,#28,.T.);
#138=EDGE_CURVE('',#95,#91,#36,.T.);
#140=EDGE_CURVE('',#95,#96,#44,.T.);
#142=EDGE_CURVE('',#92,#96,#32,.T.);
#155=EDGE_CURVE('',#80,#95,#40,.T.);
#168=EDGE_CURVE('',#78,#84,#48,.T.);
#170=EDGE_CURVE('',#84,#87,#64,.T.);
#172=EDGE_CURVE('',#87,#96,#52,.T.);
#184=EDGE_CURVE('',#83,#84,#68,.T.);
#195=EDGE_CURVE('',#87,#88,#60,.T.);
#215=CLOSED_SHELL('',(#112,#131,#146,#159,#176,#189,#202,#214));
#216=MANIFOLD_SOLID_BREP('',#215);
#217=(LENGTH_UNIT()NAMED_UNIT(*)SI_UNIT(.MILLI.,.METRE.));
#219=(NAMED_UNIT(*)PLANE_ANGLE_UNIT()SI_UNIT($,.RADIAN.));
#222=(NAMED_UNIT(*)SI_UNIT($,.STERADIAN.)SOLID_ANGLE_UNIT());
#225=ADVANCED_BREP_SHAPE_REPRESENTATION('',(#216),#224);
#232=PRODUCT_DEFINITION('design','',#231,#228);
#233=PRODUCT_DEFINITION_SHAPE('','SHAPE FOR ZHIJIANEW3.',#232);
#234=SHAPE_DEFINITION_REPRESENTATION(#233,#225);
ENDSEC;
END-ISO-10303-21;
